<svg width="50" height="50" viewBox="0 0 50 50" fill="none" xmlns="http://www.w3.org/2000/svg">
<path fill-rule="evenodd" clip-rule="evenodd" d="M15.4631 41.2923C16.3423 41.2923 17.0569 42.0069 17.0569 42.8861C17.0569 43.7652 16.3423 44.4777 15.4631 44.4777C14.584 44.4777 13.8715 43.7652 13.8715 42.8861C13.8715 42.0069 14.584 41.2923 15.4631 41.2923Z" stroke="#666666" stroke-width="1.5" stroke-linecap="round" stroke-linejoin="round"/>
<path fill-rule="evenodd" clip-rule="evenodd" d="M38.9056 41.2923C39.7848 41.2923 40.4994 42.0069 40.4994 42.8861C40.4994 43.7652 39.7848 44.4777 38.9056 44.4777C38.0265 44.4777 37.3119 43.7652 37.3119 42.8861C37.3119 42.0069 38.0265 41.2923 38.9056 41.2923Z" stroke="#666666" stroke-width="1.5" stroke-linecap="round" stroke-linejoin="round"/>
<path d="M5.72894 6.77084L10.0623 7.52084L12.0685 31.4229C12.231 33.3708 13.8581 34.8667 15.8123 34.8667H38.5456C40.4123 34.8667 41.9956 33.4958 42.2644 31.6458L44.2414 17.9833C44.4852 16.2979 43.1789 14.7896 41.4769 14.7896H10.7581" stroke="#666666" stroke-width="1.5" stroke-linecap="round" stroke-linejoin="round"/>
<path d="M29.4279 22.4896H35.205" stroke="#666666" stroke-width="1.5" stroke-linecap="round" stroke-linejoin="round"/>
</svg>
