<?xml version="1.0" encoding="UTF-8" standalone="no"?>
<!-- Created with Inkscape (http://www.inkscape.org/) -->

<svg
   version="1.1"
   id="svg2"
   xml:space="preserve"
   width="533.74146"
   height="332.35031"
   viewBox="0 0 533.74145 332.35031"
   sodipodi:docname="39c08ab7d87467b7e7859e997f711d67.ai"
   xmlns:inkscape="http://www.inkscape.org/namespaces/inkscape"
   xmlns:sodipodi="http://sodipodi.sourceforge.net/DTD/sodipodi-0.dtd"
   xmlns="http://www.w3.org/2000/svg"
   xmlns:svg="http://www.w3.org/2000/svg"><defs
     id="defs6"><clipPath
       clipPathUnits="userSpaceOnUse"
       id="clipPath20"><path
         d="M 0,566.929 H 566.929 V 0 H 0 Z"
         id="path18" /></clipPath></defs><sodipodi:namedview
     id="namedview4"
     pagecolor="#ffffff"
     bordercolor="#666666"
     borderopacity="1.0"
     inkscape:pageshadow="2"
     inkscape:pageopacity="0.0"
     inkscape:pagecheckerboard="0" /><g
     id="g8"
     inkscape:groupmode="layer"
     inkscape:label="39c08ab7d87467b7e7859e997f711d67"
     transform="matrix(1.3333333,0,0,-1.3333333,-111.08165,544.4495)"><g
       id="g10"
       transform="translate(246.4648,175.5717)"><path
         d="M 0,0 H 7.92 V -1.547 H 1.58 V -6.501 H 7.92 V -8.049 H 1.58 v -7.759 H 0 Z"
         style="fill:#98bf13;fill-opacity:1;fill-rule:nonzero;stroke:none"
         id="path12" /></g><g
       id="g14"><g
         id="g16"
         clip-path="url(#clipPath20)"><g
           id="g22"
           transform="translate(256.3198,171.4565)"><path
             d="m 0,0 h 1.537 v -1.709 c 0.459,0.673 0.942,1.177 1.451,1.51 0.509,0.333 1.038,0.5 1.591,0.5 0.415,0 0.859,-0.133 1.332,-0.398 L 5.126,-1.365 C 4.811,-1.229 4.546,-1.161 4.331,-1.161 3.83,-1.161 3.346,-1.367 2.88,-1.779 2.415,-2.19 2.06,-2.83 1.816,-3.697 1.63,-4.363 1.537,-5.711 1.537,-7.738 v -3.954 H 0 Z"
             style="fill:#98bf13;fill-opacity:1;fill-rule:nonzero;stroke:none"
             id="path24" /></g><g
           id="g26"
           transform="translate(263.3164,171.4565)"><path
             d="m 0,0 h 1.504 v -5.46 c 0,-1.332 0.072,-2.25 0.216,-2.751 0.215,-0.717 0.626,-1.283 1.232,-1.698 0.607,-0.415 1.329,-0.623 2.169,-0.623 0.839,0 1.551,0.202 2.136,0.607 0.585,0.404 0.989,0.937 1.211,1.596 0.151,0.451 0.226,1.408 0.226,2.869 V 0 h 1.537 v -5.739 c 0,-1.613 -0.188,-2.826 -0.564,-3.644 -0.376,-0.815 -0.942,-1.456 -1.698,-1.918 -0.756,-0.462 -1.703,-0.692 -2.843,-0.692 -1.139,0 -2.09,0.23 -2.853,0.692 C 1.51,-10.839 0.94,-10.193 0.564,-9.366 0.188,-8.539 0,-7.294 0,-5.632 Z"
             style="fill:#98bf13;fill-opacity:1;fill-rule:nonzero;stroke:none"
             id="path28" /></g><g
           id="g30"
           transform="translate(278.2007,175.7983)"><path
             d="M 0,0 H 1.504 V -4.342 H 3.891 V -5.643 H 1.504 V -16.034 H 0 v 10.391 h -2.053 v 1.301 H 0 Z"
             style="fill:#98bf13;fill-opacity:1;fill-rule:nonzero;stroke:none"
             id="path32" /></g><g
           id="g34"
           transform="translate(289.9854,170.3061)"><path
             d="m 0,0 c -0.838,0 -1.61,-0.205 -2.319,-0.617 -0.708,-0.411 -1.272,-0.989 -1.691,-1.734 -0.419,-0.745 -0.628,-1.531 -0.628,-2.361 0,-0.823 0.211,-1.61 0.634,-2.362 0.422,-0.751 0.988,-1.336 1.701,-1.755 0.712,-0.419 1.476,-0.628 2.292,-0.628 0.823,0 1.603,0.208 2.34,0.623 0.737,0.415 1.304,0.977 1.701,1.685 0.398,0.709 0.596,1.506 0.596,2.394 0,1.352 -0.445,2.483 -1.337,3.392 C 2.399,-0.454 1.302,0 0,0 M 6.013,1.15 V -10.542 H 4.529 v 2.009 C 3.898,-9.3 3.191,-9.876 2.406,-10.264 c -0.783,-0.385 -1.641,-0.579 -2.573,-0.579 -1.655,0 -3.068,0.6 -4.239,1.8 -1.172,1.199 -1.758,2.659 -1.758,4.379 0,1.684 0.592,3.124 1.773,4.321 1.183,1.196 2.605,1.794 4.267,1.794 0.96,0 1.829,-0.204 2.605,-0.612 C 3.26,0.43 3.941,-0.183 4.529,-0.999 V 1.15 Z"
             style="fill:#98bf13;fill-opacity:1;fill-rule:nonzero;stroke:none"
             id="path36" /></g><g
           id="g38"
           transform="translate(338.2549,161.2582)"><path
             d="m 0,0 h 1.827 c 2.186,0 3.7,0.136 4.546,0.407 1.189,0.386 2.125,1.083 2.805,2.088 0.681,1.007 1.021,2.236 1.021,3.69 0,1.524 -0.369,2.828 -1.107,3.908 -0.738,1.081 -1.766,1.822 -3.084,2.222 -0.988,0.301 -2.618,0.452 -4.89,0.452 H 0 Z m -1.516,-1.494 v 15.807 h 3.279 c 2.364,0 4.08,-0.189 5.148,-0.568 1.533,-0.538 2.731,-1.469 3.595,-2.795 0.863,-1.325 1.295,-2.905 1.295,-4.739 0,-1.583 -0.343,-2.977 -1.027,-4.181 C 10.09,0.826 9.202,-0.062 8.108,-0.635 7.017,-1.209 5.484,-1.494 3.515,-1.494 Z"
             style="fill:#98bf13;fill-opacity:1;fill-rule:nonzero;stroke:none"
             id="path40" /></g><g
           id="g42"
           transform="translate(362.7148,166.7924)"><path
             d="m 0,0 c -0.2,0.802 -0.493,1.443 -0.877,1.923 -0.384,0.48 -0.892,0.867 -1.522,1.161 -0.632,0.294 -1.295,0.44 -1.991,0.44 -1.147,0 -2.134,-0.368 -2.96,-1.106 C -7.951,1.88 -8.407,1.074 -8.716,0 Z m 0,-3.149 1.269,-0.666 c -0.416,-0.818 -0.897,-1.476 -1.442,-1.978 -0.545,-0.502 -1.158,-0.883 -1.84,-1.144 -0.681,-0.262 -1.452,-0.392 -2.312,-0.392 -1.908,0 -3.4,0.625 -4.475,1.875 -1.076,1.25 -1.614,2.663 -1.614,4.239 0,1.484 0.455,2.806 1.366,3.966 1.154,1.476 2.7,2.214 4.637,2.214 1.993,0 3.586,-0.756 4.776,-2.268 0.846,-1.067 1.277,-2.4 1.29,-3.998 H -8.866 c 0.029,-1.358 0.463,-2.471 1.302,-3.34 0.839,-0.869 1.876,-1.302 3.11,-1.302 0.595,0 1.174,0.103 1.737,0.31 0.564,0.207 1.042,0.482 1.437,0.824 0.394,0.343 0.821,0.896 1.28,1.66"
             style="fill:#98bf13;fill-opacity:1;fill-rule:nonzero;stroke:none"
             id="path44" /></g><g
           id="g46"
           transform="translate(373.0537,170.1772)"><path
             d="m 0,0 -0.967,-0.999 c -0.804,0.781 -1.592,1.171 -2.36,1.171 -0.488,0 -0.906,-0.161 -1.255,-0.484 -0.349,-0.322 -0.522,-0.698 -0.522,-1.128 0,-0.379 0.142,-0.741 0.43,-1.085 0.287,-0.352 0.891,-0.764 1.81,-1.236 1.12,-0.581 1.881,-1.139 2.283,-1.676 0.394,-0.545 0.592,-1.158 0.592,-1.838 0,-0.961 -0.337,-1.774 -1.012,-2.44 -0.675,-0.667 -1.518,-0.999 -2.529,-0.999 -0.675,0 -1.319,0.147 -1.932,0.44 -0.614,0.294 -1.122,0.699 -1.523,1.214 l 0.945,1.076 c 0.769,-0.868 1.584,-1.301 2.445,-1.301 0.604,0 1.117,0.193 1.541,0.58 0.424,0.387 0.635,0.842 0.635,1.365 0,0.43 -0.14,0.813 -0.419,1.15 -0.28,0.33 -0.912,0.746 -1.896,1.247 -1.056,0.544 -1.774,1.082 -2.154,1.611 -0.381,0.53 -0.571,1.137 -0.571,1.816 0,0.889 0.303,1.627 0.91,2.215 C -4.943,1.286 -4.177,1.58 -3.25,1.58 -2.174,1.58 -1.09,1.054 0,0"
             style="fill:#98bf13;fill-opacity:1;fill-rule:nonzero;stroke:none"
             id="path48" /></g><g
           id="g50"
           transform="translate(375.7197,175.9702)"><path
             d="m 0,0 h 1.504 v -6.609 c 0.609,0.802 1.279,1.402 2.01,1.799 0.731,0.398 1.522,0.597 2.375,0.597 0.874,0 1.65,-0.222 2.327,-0.666 0.677,-0.445 1.177,-1.041 1.499,-1.79 0.322,-0.748 0.483,-1.922 0.483,-3.519 v -6.018 H 8.694 v 5.577 c 0,1.347 -0.053,2.246 -0.161,2.698 C 8.347,-7.158 8.008,-6.575 7.518,-6.186 7.026,-5.795 6.383,-5.6 5.589,-5.6 4.678,-5.6 3.863,-5.899 3.144,-6.502 2.423,-7.104 1.948,-7.849 1.72,-8.737 1.576,-9.311 1.504,-10.371 1.504,-11.919 v -4.287 H 0 Z"
             style="fill:#98bf13;fill-opacity:1;fill-rule:nonzero;stroke:none"
             id="path52" /></g><path
           d="m 388.917,171.456 h 1.504 v -11.692 h -1.504 z m 0.746,4.815 c 0.344,0 0.636,-0.122 0.878,-0.365 0.242,-0.244 0.364,-0.537 0.364,-0.881 0,-0.337 -0.122,-0.628 -0.364,-0.871 -0.242,-0.244 -0.534,-0.365 -0.878,-0.365 -0.335,0 -0.624,0.121 -0.866,0.365 -0.242,0.243 -0.363,0.534 -0.363,0.871 0,0.344 0.121,0.637 0.363,0.881 0.242,0.243 0.531,0.365 0.866,0.365"
           style="fill:#98bf13;fill-opacity:1;fill-rule:nonzero;stroke:none"
           id="path54" /><g
           id="g56"
           transform="translate(399.207,170.3061)"><path
             d="m 0,0 c -0.838,0 -1.611,-0.205 -2.318,-0.617 -0.709,-0.411 -1.274,-0.989 -1.692,-1.734 -0.418,-0.745 -0.628,-1.531 -0.628,-2.361 0,-0.823 0.211,-1.61 0.633,-2.362 0.423,-0.751 0.989,-1.336 1.701,-1.755 0.713,-0.419 1.477,-0.628 2.293,-0.628 0.823,0 1.603,0.208 2.34,0.623 0.736,0.415 1.305,0.977 1.701,1.685 0.397,0.709 0.596,1.506 0.596,2.394 0,1.352 -0.445,2.483 -1.336,3.392 C 2.398,-0.454 1.303,0 0,0 M 6.013,5.664 V -10.542 H 4.529 v 2.009 C 3.898,-9.3 3.191,-9.876 2.407,-10.264 c -0.785,-0.385 -1.642,-0.579 -2.574,-0.579 -1.655,0 -3.068,0.6 -4.239,1.8 -1.172,1.199 -1.758,2.659 -1.758,4.379 0,1.684 0.592,3.124 1.773,4.321 1.182,1.196 2.605,1.794 4.267,1.794 0.96,0 1.829,-0.204 2.606,-0.612 C 3.26,0.43 3.941,-0.183 4.529,-0.999 v 6.663 z"
             style="fill:#98bf13;fill-opacity:1;fill-rule:nonzero;stroke:none"
             id="path58" /></g><g
           id="g60"
           transform="translate(408.0566,171.4565)"><path
             d="m 0,0 h 1.537 v -1.709 c 0.458,0.673 0.942,1.177 1.451,1.51 0.508,0.333 1.039,0.5 1.591,0.5 0.415,0 0.859,-0.133 1.332,-0.398 L 5.126,-1.365 C 4.812,-1.229 4.547,-1.161 4.332,-1.161 3.83,-1.161 3.346,-1.367 2.881,-1.779 2.415,-2.19 2.06,-2.83 1.816,-3.697 1.63,-4.363 1.537,-5.711 1.537,-7.738 v -3.954 H 0 Z"
             style="fill:#98bf13;fill-opacity:1;fill-rule:nonzero;stroke:none"
             id="path62" /></g><g
           id="g64"
           transform="translate(420.8838,170.3061)"><path
             d="m 0,0 c -0.837,0 -1.61,-0.205 -2.318,-0.617 -0.709,-0.411 -1.273,-0.989 -1.692,-1.734 -0.418,-0.745 -0.627,-1.531 -0.627,-2.361 0,-0.823 0.211,-1.61 0.633,-2.362 0.422,-0.751 0.989,-1.336 1.701,-1.755 0.712,-0.419 1.477,-0.628 2.292,-0.628 0.823,0 1.603,0.208 2.34,0.623 0.737,0.415 1.305,0.977 1.702,1.685 0.397,0.709 0.595,1.506 0.595,2.394 0,1.352 -0.444,2.483 -1.336,3.392 C 2.398,-0.454 1.303,0 0,0 M 6.013,1.15 V -10.542 H 4.529 v 2.009 C 3.899,-9.3 3.192,-9.876 2.407,-10.264 c -0.784,-0.385 -1.642,-0.579 -2.574,-0.579 -1.654,0 -3.068,0.6 -4.239,1.8 -1.171,1.199 -1.757,2.659 -1.757,4.379 0,1.684 0.591,3.124 1.772,4.321 1.183,1.196 2.605,1.794 4.267,1.794 0.96,0 1.829,-0.204 2.606,-0.612 C 3.26,0.43 3.942,-0.183 4.529,-0.999 V 1.15 Z"
             style="fill:#98bf13;fill-opacity:1;fill-rule:nonzero;stroke:none"
             id="path66" /></g><g
           id="g68"
           transform="translate(431.5928,175.7983)"><path
             d="M 0,0 H 1.505 V -4.342 H 3.891 V -5.643 H 1.505 V -16.034 H 0 v 10.391 h -2.053 v 1.301 H 0 Z"
             style="fill:#98bf13;fill-opacity:1;fill-rule:nonzero;stroke:none"
             id="path70" /></g><g
           id="g72"
           transform="translate(443.377,170.3061)"><path
             d="m 0,0 c -0.837,0 -1.61,-0.205 -2.318,-0.617 -0.709,-0.411 -1.273,-0.989 -1.692,-1.734 -0.418,-0.745 -0.627,-1.531 -0.627,-2.361 0,-0.823 0.211,-1.61 0.633,-2.362 0.422,-0.751 0.989,-1.336 1.701,-1.755 0.712,-0.419 1.477,-0.628 2.292,-0.628 0.823,0 1.603,0.208 2.34,0.623 0.737,0.415 1.305,0.977 1.702,1.685 0.397,0.709 0.595,1.506 0.595,2.394 0,1.352 -0.444,2.483 -1.336,3.392 C 2.399,-0.454 1.303,0 0,0 M 6.014,1.15 V -10.542 H 4.529 v 2.009 C 3.899,-9.3 3.192,-9.876 2.407,-10.264 c -0.784,-0.385 -1.641,-0.579 -2.574,-0.579 -1.654,0 -3.068,0.6 -4.239,1.8 -1.171,1.199 -1.757,2.659 -1.757,4.379 0,1.684 0.591,3.124 1.773,4.321 1.182,1.196 2.604,1.794 4.266,1.794 0.961,0 1.829,-0.204 2.606,-0.612 0.779,-0.409 1.46,-1.022 2.047,-1.838 V 1.15 Z"
             style="fill:#98bf13;fill-opacity:1;fill-rule:nonzero;stroke:none"
             id="path74" /></g><g
           id="g76"
           transform="translate(458.4346,170.3061)"><path
             d="m 0,0 c -0.838,0 -1.611,-0.205 -2.319,-0.617 -0.708,-0.411 -1.273,-0.989 -1.692,-1.734 -0.418,-0.745 -0.627,-1.531 -0.627,-2.361 0,-0.823 0.211,-1.61 0.633,-2.362 0.423,-0.751 0.989,-1.336 1.701,-1.755 0.713,-0.419 1.477,-0.628 2.293,-0.628 0.823,0 1.602,0.208 2.34,0.623 0.736,0.415 1.304,0.977 1.701,1.685 0.397,0.709 0.596,1.506 0.596,2.394 0,1.352 -0.445,2.483 -1.337,3.392 C 2.398,-0.454 1.302,0 0,0 M 6.013,5.664 V -10.542 H 4.529 v 2.009 C 3.898,-9.3 3.191,-9.876 2.406,-10.264 c -0.784,-0.385 -1.641,-0.579 -2.574,-0.579 -1.654,0 -3.067,0.6 -4.239,1.8 -1.171,1.199 -1.757,2.659 -1.757,4.379 0,1.684 0.591,3.124 1.773,4.321 1.182,1.196 2.604,1.794 4.266,1.794 0.961,0 1.83,-0.204 2.606,-0.612 0.779,-0.409 1.46,-1.022 2.048,-1.838 v 6.663 z"
             style="fill:#98bf13;fill-opacity:1;fill-rule:nonzero;stroke:none"
             id="path78" /></g><g
           id="g80"
           transform="translate(473.4902,170.3061)"><path
             d="m 0,0 c -0.838,0 -1.61,-0.205 -2.318,-0.617 -0.709,-0.411 -1.273,-0.989 -1.692,-1.734 -0.418,-0.745 -0.628,-1.531 -0.628,-2.361 0,-0.823 0.211,-1.61 0.633,-2.362 0.423,-0.751 0.99,-1.336 1.701,-1.755 0.713,-0.419 1.477,-0.628 2.293,-0.628 0.823,0 1.603,0.208 2.34,0.623 0.737,0.415 1.305,0.977 1.702,1.685 0.397,0.709 0.595,1.506 0.595,2.394 0,1.352 -0.444,2.483 -1.336,3.392 C 2.398,-0.454 1.303,0 0,0 M 6.013,1.15 V -10.542 H 4.529 v 2.009 C 3.899,-9.3 3.191,-9.876 2.407,-10.264 c -0.785,-0.385 -1.642,-0.579 -2.574,-0.579 -1.654,0 -3.068,0.6 -4.239,1.8 -1.172,1.199 -1.758,2.659 -1.758,4.379 0,1.684 0.592,3.124 1.773,4.321 1.183,1.196 2.605,1.794 4.267,1.794 0.96,0 1.829,-0.204 2.606,-0.612 C 3.26,0.43 3.942,-0.183 4.529,-0.999 V 1.15 Z"
             style="fill:#98bf13;fill-opacity:1;fill-rule:nonzero;stroke:none"
             id="path82" /></g><g
           id="g84"
           transform="translate(145.8682,184.0073)"><path
             d="M 0,0 C 1.118,0.706 1.987,1.928 2.605,3.665 3.224,5.401 3.473,7.389 3.356,9.627 L 1.589,42.393 C 1.53,43.275 1.088,43.775 0.265,43.894 -0.561,44.012 -1.119,43.687 -1.413,42.923 L -14.661,9.627 c -0.295,-0.825 -0.56,-1.649 -0.795,-2.474 V 7.021 6.889 l 2.738,-6.271 c 0.235,-0.53 0.206,-1.031 -0.088,-1.501 -0.296,-0.472 -0.737,-0.707 -1.325,-0.707 H -26.23 c -0.649,0 -1.12,0.323 -1.414,0.972 l -0.088,0.177 -4.416,10.068 -13.601,30.822 c -0.295,0.765 -0.854,1.074 -1.678,0.928 -0.825,-0.148 -1.237,-0.634 -1.237,-1.457 L -49.812,9.627 c -0.118,-2.238 0.146,-4.226 0.795,-5.962 0.647,-1.737 1.531,-2.93 2.65,-3.577 0.588,-0.412 0.883,-0.971 0.883,-1.678 h -14.308 c 0,0.707 0.323,1.266 0.972,1.678 1.118,0.647 2.075,1.84 2.87,3.577 0.795,1.736 1.221,3.724 1.281,5.962 l 1.59,41.421 c 0.058,2.119 -0.207,4.032 -0.795,5.74 -1.532,1.884 -3.063,3.18 -4.593,3.887 -0.765,0.352 -1.296,0.883 -1.59,1.589 h 7.419 4.769 12.806 c 0.354,-0.706 0.294,-1.237 -0.176,-1.589 -0.825,-0.65 -1.223,-1.841 -1.192,-3.577 0.029,-1.738 0.514,-3.696 1.457,-5.873 L -18.9,14.661 c 0.176,-0.353 0.442,-0.53 0.795,-0.53 0.353,0 0.587,0.177 0.706,0.53 l 14.396,36.475 c 0.765,1.943 1.177,3.738 1.236,5.387 0.059,1.648 -0.235,2.884 -0.883,3.709 -0.236,0.177 -0.441,0.324 -0.618,0.443 -0.649,0.352 -1.002,0.883 -1.06,1.589 h 5.741 4.769 14.572 c 0,-0.706 -0.295,-1.237 -0.882,-1.589 -1.06,-0.707 -1.899,-1.93 -2.518,-3.666 -0.618,-1.738 -0.869,-3.696 -0.75,-5.873 L 18.9,9.538 C 19.017,7.359 19.474,5.401 20.269,3.665 21.063,1.928 22.049,0.706 23.228,0 c 0.647,-0.354 0.971,-0.883 0.971,-1.59 H -0.795 C -0.854,-0.883 -0.589,-0.354 0,0"
             style="fill:#1e130f;fill-opacity:1;fill-rule:nonzero;stroke:none"
             id="path86" /></g><g
           id="g88"
           transform="translate(109.083,246.6469)"><path
             d="M 0,0 C -0.021,-0.016 -0.041,-0.031 -0.06,-0.048 -0.04,-0.032 -0.021,-0.016 0,0 m 37.705,-20.615 -0.003,-0.009 c 0.001,0.003 0.002,0.006 0.003,0.009 M -9.378,-22.72 -9.38,-22.759 c 0.001,0.013 0.002,0.027 0.002,0.039 m -8.436,-39.009 h 4.115 c -0.327,0.568 -0.62,1.196 -0.875,1.882 -0.545,1.457 -0.864,3.066 -0.953,4.799 -0.219,-1.794 -0.676,-3.463 -1.365,-4.968 -0.284,-0.621 -0.592,-1.192 -0.922,-1.713 m 29.004,0 h 10.022 l -2.174,4.977 c -0.138,0.316 -0.209,0.656 -0.209,1.001 v 0.265 c 0,0.231 0.032,0.462 0.096,0.685 0.247,0.868 0.532,1.753 0.845,2.63 l 0.66,1.658 c -0.502,-0.32 -1.1,-0.496 -1.75,-0.496 -1.3,0 -2.432,0.715 -3.031,1.912 -0.019,0.037 -0.036,0.075 -0.053,0.113 l -16.074,36.563 c -1.074,2.483 -1.633,4.779 -1.668,6.838 -0.018,1.008 0.085,1.911 0.306,2.707 h -14.536 c 0.41,-0.43 0.818,-0.895 1.227,-1.398 0.185,-0.228 0.329,-0.487 0.424,-0.764 0.683,-1.983 0.996,-4.211 0.93,-6.622 l -0.371,-9.666 c 0.443,1.294 1.558,2.252 3.085,2.524 1.988,0.354 3.679,-0.573 4.424,-2.424 z m 29.696,0 h 14.82 c -0.333,0.524 -0.642,1.095 -0.925,1.714 -0.923,2.016 -1.459,4.297 -1.593,6.78 l -2.295,41.593 c -0.137,2.499 0.163,4.803 0.891,6.849 0.248,0.697 0.532,1.336 0.851,1.917 H 37.134 c 0.299,-0.964 0.427,-2.076 0.383,-3.328 -0.069,-1.925 -0.543,-4.016 -1.409,-6.215 l -1.834,-4.648 c 0.83,0.672 1.922,0.966 3.13,0.796 1.999,-0.288 3.327,-1.747 3.465,-3.809 l 1.769,-32.798 c 0.134,-2.565 -0.166,-4.897 -0.893,-6.935 -0.247,-0.697 -0.534,-1.335 -0.859,-1.916 m -29.511,-0.405 0.002,-0.006 c 0,0.002 -0.001,0.004 -0.002,0.006 m 10.404,-0.894 c 0.001,-0.002 0.001,-0.003 0.002,-0.004 z m 39.205,-3.701 H 35.99 c -1.299,0 -2.382,0.995 -2.491,2.29 -0.139,1.646 0.577,3.074 1.966,3.922 0.622,0.401 1.15,1.202 1.57,2.38 0.504,1.415 0.709,3.095 0.61,4.993 l -1.538,28.513 -11.66,-29.306 c -0.171,-0.482 -0.345,-1.008 -0.509,-1.542 l 2.42,-5.542 c 0.569,-1.286 0.478,-2.649 -0.26,-3.828 -0.746,-1.195 -2.002,-1.88 -3.444,-1.88 H 10.555 c -1.642,0 -2.988,0.888 -3.69,2.439 l -0.048,0.091 c -0.019,0.038 -0.036,0.075 -0.053,0.114 l -4.416,10.068 -11.891,26.947 -0.985,-26.037 c -0.102,-1.921 0.113,-3.588 0.638,-4.993 0.431,-1.156 0.97,-1.947 1.56,-2.288 0.062,-0.036 0.123,-0.075 0.183,-0.117 1.256,-0.881 1.948,-2.203 1.948,-3.724 0,-1.381 -1.119,-2.5 -2.5,-2.5 h -14.307 c -1.381,0 -2.5,1.119 -2.5,2.5 0,1.57 0.756,2.915 2.131,3.788 0.029,0.018 0.058,0.036 0.087,0.052 0.647,0.375 1.287,1.224 1.85,2.454 0.65,1.42 1.005,3.098 1.055,4.989 l 1.591,41.45 c 0.043,1.61 -0.134,3.101 -0.528,4.418 -1.18,1.387 -2.326,2.343 -3.41,2.844 -1.329,0.612 -2.315,1.614 -2.85,2.897 -0.321,0.772 -0.235,1.652 0.228,2.348 0.464,0.695 1.245,1.113 2.081,1.113 H 1.723 c 0.946,0 1.811,-0.534 2.235,-1.381 1.082,-2.159 0.185,-3.886 -0.912,-4.708 0.002,0.002 0.004,0.002 0.004,0.002 0.02,0 -0.217,-0.359 -0.196,-1.535 0.023,-1.402 0.444,-3.059 1.251,-4.924 l 14.447,-32.861 12.905,32.697 c 0.656,1.669 1.015,3.204 1.063,4.56 0.037,1.046 -0.114,1.602 -0.236,1.875 -0.03,0.021 -0.059,0.042 -0.088,0.061 -1.317,0.765 -2.108,2.006 -2.23,3.511 -0.057,0.696 0.18,1.384 0.653,1.897 0.474,0.514 1.14,0.806 1.839,0.806 H 57.54 c 1.38,0 2.5,-1.119 2.5,-2.5 0,-1.545 -0.738,-2.885 -2.027,-3.689 -0.576,-0.402 -1.1,-1.232 -1.518,-2.405 -0.505,-1.417 -0.71,-3.065 -0.61,-4.898 l 2.296,-41.596 c 0.1,-1.855 0.486,-3.527 1.146,-4.97 0.578,-1.262 1.24,-2.124 1.97,-2.561 1.359,-0.74 2.187,-2.119 2.187,-3.734 0,-1.381 -1.119,-2.5 -2.5,-2.5"
             style="fill:#1e130f;fill-opacity:1;fill-rule:nonzero;stroke:none"
             id="path90" /></g><g
           id="g92"
           transform="translate(196.8276,189.1293)"><path
             d="m 0,0 v 13.248 c 0,0.53 -0.192,0.941 -0.574,1.236 -0.384,0.294 -0.81,0.412 -1.281,0.354 -1.296,-0.236 -2.371,-0.457 -3.224,-0.662 -0.854,-0.207 -1.854,-0.546 -3.002,-1.017 -1.148,-0.471 -2.106,-1.147 -2.871,-2.031 -0.765,-0.883 -1.355,-1.942 -1.766,-3.179 -0.53,-1.826 -0.457,-3.475 0.221,-4.946 0.676,-1.473 1.736,-2.503 3.179,-3.091 1.443,-0.59 3.003,-0.942 4.681,-1.059 C -2.959,-1.267 -1.413,-0.883 0,0 m 17.84,-1.501 c 1.766,0 3.268,0.411 4.504,1.236 -0.118,-1.472 -0.927,-2.856 -2.428,-4.151 -1.502,-1.296 -3.343,-2.149 -5.52,-2.561 -1.002,-0.176 -1.974,-0.265 -2.915,-0.265 h -0.353 c -1.413,0 -2.768,0.148 -4.063,0.442 -1.413,0.353 -2.693,0.956 -3.841,1.811 -1.149,0.852 -2.018,1.751 -2.606,2.693 L 0.353,-2.561 C 0.176,-2.737 0.058,-2.886 0,-3.003 -1.119,-4.122 -2.548,-5.034 -4.284,-5.74 c -1.737,-0.707 -3.548,-1.149 -5.431,-1.325 -1.885,-0.177 -3.813,-0.162 -5.785,0.044 -1.973,0.207 -3.753,0.676 -5.343,1.413 -1.59,0.736 -2.989,1.648 -4.196,2.738 -1.207,1.089 -1.958,2.414 -2.252,3.974 -0.293,1.56 -0.117,3.282 0.53,5.167 0.707,1.943 1.855,3.59 3.445,4.946 1.589,1.353 3.429,2.369 5.52,3.047 2.089,0.675 4.076,1.192 5.961,1.546 1.884,0.352 3.9,0.662 6.05,0.926 2.149,0.266 3.694,0.515 4.637,0.751 C -0.384,17.664 0,18.163 0,18.988 v 9.716 c 0,1.471 -0.883,2.53 -2.65,3.179 -2.238,0.824 -4.151,0.294 -5.741,-1.59 -1.001,-1.178 -1.677,-2.797 -2.031,-4.857 -0.176,-1.12 -0.441,-2.106 -0.795,-2.958 -0.353,-0.855 -0.721,-1.577 -1.103,-2.165 -0.384,-0.588 -0.943,-1.059 -1.679,-1.413 -0.736,-0.353 -1.355,-0.633 -1.855,-0.838 -0.5,-0.208 -1.28,-0.354 -2.34,-0.442 -1.059,-0.089 -1.885,-0.133 -2.473,-0.133 -0.589,0 -1.545,0.014 -2.87,0.044 -1.325,0.03 -2.312,0.044 -2.959,0.044 0.294,3.062 0.677,5.328 1.148,6.801 0.707,1.943 1.796,3.635 3.268,5.078 1.471,1.442 3.209,2.562 5.211,3.357 2.001,0.794 4.063,1.369 6.182,1.721 2.12,0.354 4.357,0.531 6.712,0.531 3.121,0 5.991,-0.325 8.612,-0.972 2.619,-0.649 4.871,-1.767 6.756,-3.356 1.883,-1.589 2.884,-3.563 3.003,-5.918 V 24.729 24.376 1.59 c 0,-1.002 0.234,-1.767 0.706,-2.296 0.471,-0.53 1.383,-0.795 2.738,-0.795"
             style="fill:#1e130f;fill-opacity:1;fill-rule:nonzero;stroke:none"
             id="path94" /></g><g
           id="g96"
           transform="translate(173.1313,209.1645)"><path
             d="m 0,0 c 0.071,-0.001 0.142,-0.003 0.214,-0.005 1.301,-0.029 2.238,-0.043 2.816,-0.043 0.52,0 1.282,0.042 2.263,0.124 1.173,0.098 1.555,0.244 1.594,0.261 0.471,0.193 1.045,0.454 1.729,0.782 0.317,0.152 0.535,0.324 0.666,0.525 0.296,0.456 0.595,1.046 0.887,1.753 0.278,0.669 0.491,1.473 0.636,2.392 0.434,2.534 1.306,4.571 2.596,6.088 0.05,0.06 0.101,0.118 0.152,0.176 C 13.509,12.046 13.465,12.038 13.421,12.031 11.485,11.709 9.577,11.178 7.75,10.452 6.067,9.783 4.592,8.836 3.367,7.634 2.153,6.444 1.28,5.088 0.698,3.486 0.447,2.699 0.211,1.523 0,0 m 21.94,-0.123 c -0.006,-0.001 -0.011,-0.003 -0.017,-0.004 0.006,0.001 0.011,0.003 0.017,0.004 M 19.102,9.725 C 18.408,9.725 17.837,9.382 17.216,8.646 16.509,7.813 16.014,6.582 15.738,4.978 15.538,3.703 15.216,2.516 14.789,1.484 14.381,0.498 13.938,-0.367 13.473,-1.083 13.391,-1.208 13.305,-1.33 13.215,-1.448 c 1.406,0.233 2.876,0.444 4.39,0.631 1.533,0.189 2.736,0.368 3.591,0.533 v 8.953 c 0,0.161 0,0.461 -1.011,0.832 -0.401,0.147 -0.756,0.224 -1.083,0.224 m 2.094,-17.588 c -0.77,-0.151 -1.438,-0.293 -1.994,-0.427 -0.723,-0.175 -1.612,-0.479 -2.639,-0.899 -0.789,-0.325 -1.42,-0.767 -1.928,-1.354 -0.548,-0.633 -0.98,-1.416 -1.284,-2.332 -0.332,-1.149 -0.303,-2.197 0.119,-3.111 0.412,-0.897 1,-1.475 1.851,-1.822 1.191,-0.487 2.506,-0.783 3.913,-0.88 0.694,-0.049 1.345,0.023 1.962,0.222 z M 11.177,-6.916 C 9.746,-7.23 8.234,-7.644 6.669,-8.15 4.904,-8.723 3.333,-9.588 2.001,-10.722 c -1.267,-1.08 -2.155,-2.355 -2.716,-3.897 -0.487,-1.419 -0.634,-2.728 -0.423,-3.849 0.192,-1.017 0.673,-1.862 1.471,-2.581 1.013,-0.916 2.214,-1.698 3.571,-2.326 1.329,-0.615 2.861,-1.018 4.553,-1.195 1.802,-0.188 3.583,-0.202 5.291,-0.041 1.498,0.14 2.96,0.478 4.351,1.006 -1.648,0.182 -3.215,0.574 -4.667,1.168 -2.041,0.832 -3.557,2.299 -4.505,4.362 -0.932,2.022 -1.05,4.273 -0.349,6.686 0.541,1.635 1.298,2.991 2.278,4.119 0.104,0.122 0.211,0.239 0.321,0.354 m 14.952,-13.695 c 0.114,-0.12 0.217,-0.253 0.307,-0.397 0.418,-0.672 1.083,-1.347 1.974,-2.009 0.891,-0.664 1.857,-1.118 2.957,-1.392 1.06,-0.24 2.24,-0.368 3.457,-0.368 h 0.353 c 0.79,0 1.624,0.076 2.481,0.227 0.785,0.149 1.508,0.364 2.173,0.652 -1.254,0.223 -2.211,0.718 -2.902,1.498 -0.887,0.994 -1.337,2.326 -1.337,3.955 V 4.694 c -0.081,1.633 -0.754,2.947 -2.115,4.096 -1.58,1.331 -3.513,2.286 -5.745,2.839 -0.886,0.219 -1.812,0.398 -2.771,0.538 1.025,-1.232 1.235,-2.592 1.235,-3.498 v -9.716 c 0,-1.17 -0.409,-2.174 -1.134,-2.891 0.737,-0.749 1.134,-1.741 1.134,-2.849 v -13.248 c 0,-0.196 -0.023,-0.39 -0.067,-0.576 m 9.048,-9.166 h -0.353 c -1.589,0 -3.142,0.17 -4.616,0.505 -1.781,0.443 -3.372,1.193 -4.781,2.242 -0.464,0.344 -0.894,0.7 -1.289,1.066 -1.095,-0.836 -2.361,-1.549 -3.784,-2.127 -1.954,-0.796 -4.02,-1.3 -6.14,-1.499 -2.034,-0.189 -4.145,-0.174 -6.277,0.047 -2.242,0.235 -4.306,0.784 -6.135,1.631 -1.813,0.84 -3.434,1.9 -4.82,3.151 -1.616,1.458 -2.637,3.264 -3.033,5.367 -0.374,1.983 -0.164,4.15 0.622,6.441 0.867,2.387 2.271,4.403 4.187,6.037 0.83,0.707 1.723,1.336 2.674,1.886 -0.393,0.007 -0.836,0.015 -1.33,0.027 -1.298,0.028 -2.267,0.043 -2.901,0.043 -0.705,0 -1.377,0.297 -1.85,0.818 -0.475,0.522 -0.706,1.219 -0.639,1.921 0.314,3.271 0.725,5.667 1.256,7.325 0.863,2.378 2.164,4.4 3.899,6.1 1.701,1.669 3.733,2.98 6.037,3.895 2.158,0.857 4.41,1.484 6.696,1.864 2.244,0.375 4.64,0.564 7.122,0.564 3.306,0 6.405,-0.351 9.211,-1.045 2.983,-0.738 5.596,-2.041 7.768,-3.87 2.425,-2.049 3.733,-4.639 3.888,-7.704 0.002,-0.042 0.003,-0.084 0.003,-0.126 v -23.227 c 0,-0.25 0.023,-0.415 0.046,-0.518 0.161,-0.034 0.445,-0.073 0.898,-0.073 1.275,0 2.294,0.266 3.117,0.815 0.796,0.534 1.827,0.564 2.654,0.076 0.826,-0.485 1.302,-1.4 1.225,-2.356 -0.172,-2.145 -1.279,-4.111 -3.287,-5.844 -1.832,-1.58 -4.082,-2.632 -6.689,-3.124 -1.172,-0.206 -2.299,-0.308 -3.379,-0.308"
             style="fill:#1e130f;fill-opacity:1;fill-rule:nonzero;stroke:none"
             id="path98" /></g><g
           id="g100"
           transform="translate(256.2646,215.4487)"><path
             d="m 0,0 v -0.177 c 0,-1.472 -0.397,-2.812 -1.192,-4.018 -0.795,-1.208 -1.87,-2.047 -3.224,-2.518 -1.532,-0.472 -2.959,-0.501 -4.283,-0.088 -1.325,0.411 -2.429,1.149 -3.312,2.208 -0.825,1.06 -1.296,2.266 -1.413,3.621 v 0.618 c 0,1.471 0.411,2.796 1.236,3.975 0.235,0.353 0.5,0.647 0.795,0.883 l 0.088,0.088 c 0.117,0.118 0.206,0.206 0.265,0.265 0.765,0.588 1.59,1 2.473,1.237 0.058,0.057 0.117,0.088 0.177,0.088 -1.826,-0.236 -3.548,-0.883 -5.167,-1.943 -1.62,-1.06 -2.929,-2.252 -3.93,-3.577 -1.002,-1.325 -1.797,-2.516 -2.385,-3.577 -0.589,-1.06 -0.913,-1.855 -0.971,-2.385 v -16.603 c 0,-2.179 0.353,-4.137 1.06,-5.873 0.706,-1.738 1.618,-2.93 2.738,-3.578 0.647,-0.412 0.971,-0.97 0.971,-1.677 h -23.934 c 0,0.707 0.294,1.265 0.883,1.677 1.177,0.648 2.12,1.84 2.826,3.578 0.707,1.736 1.06,3.723 1.06,5.962 v 22.52 c 0,0.411 -0.148,0.78 -0.442,1.105 -0.295,0.322 -0.677,0.485 -1.148,0.485 h -3.179 c 0,0.647 0.236,1.222 0.706,1.723 0.471,0.499 1.06,0.779 1.767,0.838 2.296,0.177 4.665,0.455 7.109,0.839 2.443,0.382 4.651,0.928 6.624,1.634 1.972,0.707 2.959,1.413 2.959,2.12 V 6.182 c -0.825,-0.766 -1.561,-1.59 -2.208,-2.473 -0.353,-0.53 -0.649,-1.002 -0.883,-1.413 -0.236,-0.412 -0.442,-0.839 -0.618,-1.28 -0.177,-0.442 -0.309,-0.855 -0.398,-1.237 -0.088,-0.383 -0.176,-0.751 -0.265,-1.104 -0.088,-0.354 -0.132,-0.678 -0.132,-0.972 0,-0.295 -0.015,-0.545 -0.045,-0.75 -0.03,-0.207 -0.044,-0.369 -0.044,-0.486 V -3.71 c 0.53,1.53 1.619,3.297 3.268,5.3 0.294,0.352 0.588,0.706 0.883,1.059 0,0.058 0.029,0.088 0.089,0.088 0.234,0.235 0.353,0.383 0.353,0.442 2.767,3.003 5.799,4.975 9.096,5.918 3.121,0.882 5.859,0.47 8.214,-1.237 C -1.296,6.151 -0.119,3.532 0,0"
             style="fill:#1e130f;fill-opacity:1;fill-rule:nonzero;stroke:none"
             id="path102" /></g><g
           id="g104"
           transform="translate(249.458,219.767)"><path
             d="m 0,0 -0.003,-0.003 z m -4.118,-5.171 c 0.088,-0.831 0.379,-1.553 0.886,-2.204 0.522,-0.625 1.22,-1.09 2.081,-1.356 0.841,-0.263 1.758,-0.233 2.806,0.089 0.754,0.264 1.376,0.75 1.871,1.502 0.526,0.798 0.781,1.662 0.781,2.645 v 0.133 C 4.207,-1.615 3.373,0.32 1.756,1.556 1.48,1.756 1.197,1.931 0.907,2.079 0.909,2.061 0.91,2.042 0.911,2.023 0.98,0.956 0.367,-0.006 -0.565,-0.421 -0.738,-0.515 -0.922,-0.588 -1.114,-0.64 -1.638,-0.779 -2.122,-1.014 -2.59,-1.354 L -2.824,-1.587 C -2.887,-1.65 -2.955,-1.71 -3.025,-1.767 -3.117,-1.841 -3.21,-1.947 -3.301,-2.083 -3.861,-2.885 -4.118,-3.716 -4.118,-4.672 Z M -28.081,-34.85 h 13.684 c -0.328,0.548 -0.627,1.154 -0.895,1.814 -0.826,2.028 -1.245,4.321 -1.245,6.814 v 16.604 c 0,0.08 0.004,0.159 0.012,0.238 -0.531,-0.826 -1.514,-1.282 -2.518,-1.114 -1.205,0.203 -2.086,1.245 -2.086,2.466 v 0.176 c 0,0.205 0.018,0.488 0.07,0.848 0.015,0.101 0.018,0.233 0.018,0.389 0,0.498 0.07,1.028 0.208,1.578 0.084,0.339 0.169,0.691 0.254,1.058 0.118,0.511 0.29,1.05 0.513,1.606 0.219,0.548 0.478,1.085 0.77,1.595 0.102,0.178 0.215,0.37 0.339,0.572 -1.35,-0.356 -2.78,-0.652 -4.276,-0.886 -1.093,-0.172 -2.181,-0.324 -3.259,-0.456 0.369,-0.629 0.56,-1.329 0.56,-2.064 v -22.521 c 0,-2.552 -0.419,-4.875 -1.245,-6.904 -0.268,-0.659 -0.57,-1.264 -0.904,-1.813 m 18.814,-5 h -23.935 c -1.381,0 -2.5,1.12 -2.5,2.5 0,1.524 0.693,2.847 1.951,3.727 0.073,0.052 0.149,0.099 0.228,0.142 0.656,0.361 1.233,1.144 1.715,2.328 0.581,1.428 0.876,3.118 0.876,5.02 v 21.611 h -2.27 c -1.381,0 -2.5,1.119 -2.5,2.5 0,1.282 0.479,2.468 1.384,3.433 0.896,0.95 2.063,1.508 3.38,1.619 2.253,0.174 4.579,0.449 6.931,0.818 2.272,0.355 4.347,0.865 6.17,1.517 0.799,0.287 1.236,0.511 1.459,0.644 0.355,0.948 1.269,1.623 2.341,1.623 1.381,0 2.5,-1.119 2.5,-2.5 V 4.358 c 1.873,1.29 3.849,2.235 5.91,2.824 3.886,1.102 7.373,0.554 10.368,-1.616 2.901,-2.215 4.42,-5.5 4.564,-9.8 10e-4,-0.029 0.002,-0.056 0.002,-0.084 v -0.177 c 0,-1.964 -0.54,-3.778 -1.605,-5.395 -1.099,-1.67 -2.611,-2.849 -4.491,-3.503 -2.1,-0.649 -4.039,-0.676 -5.848,-0.113 -1.782,0.553 -3.293,1.561 -4.488,2.994 -1.132,1.451 -1.776,3.048 -1.964,4.806 -0.742,-1.013 -1.342,-1.932 -1.789,-2.739 -0.461,-0.828 -0.612,-1.247 -0.659,-1.403 v -16.374 c 0,-1.843 0.295,-3.503 0.876,-4.93 0.483,-1.187 1.061,-2.001 1.674,-2.356 0.031,-0.017 0.061,-0.036 0.091,-0.055 1.373,-0.875 2.129,-2.219 2.129,-3.787 0,-1.38 -1.119,-2.5 -2.5,-2.5"
             style="fill:#1e130f;fill-opacity:1;fill-rule:nonzero;stroke:none"
             id="path106" /></g><g
           id="g108"
           transform="translate(256.3521,184.0073)"><path
             d="m 0,0 c 1.177,0.706 2.12,1.928 2.826,3.665 0.707,1.736 1.06,3.724 1.06,5.962 v 21.814 c 0,0.412 -0.148,0.78 -0.442,1.104 -0.295,0.323 -0.677,0.486 -1.148,0.486 h -3.179 c 0,0.647 0.236,1.237 0.707,1.766 0.47,0.53 1.059,0.795 1.766,0.795 3.767,0.294 7.492,0.868 11.172,1.722 3.679,0.853 5.519,1.811 5.519,2.871 V 9.627 c 0,-2.238 0.354,-4.226 1.061,-5.962 C 20.049,1.928 20.961,0.706 22.08,0 c 0.647,-0.354 0.971,-0.883 0.971,-1.59 H -0.883 c 0,0.707 0.295,1.236 0.883,1.59"
             style="fill:#1e130f;fill-opacity:1;fill-rule:nonzero;stroke:none"
             id="path110" /></g><g
           id="g112"
           transform="translate(260.5947,184.9174)"><path
             d="M 0,0 H 13.675 C 13.348,0.552 13.051,1.156 12.784,1.812 11.958,3.841 11.539,6.164 11.539,8.717 V 34.628 C 10.746,34.375 9.913,34.161 9.084,33.969 6.613,33.396 4.1,32.94 1.574,32.61 1.95,31.979 2.144,31.273 2.144,30.531 V 8.717 C 2.144,6.165 1.725,3.842 0.899,1.812 0.632,1.156 0.332,0.552 0,0 M 18.808,-5 H -5.126 c -1.381,0 -2.5,1.119 -2.5,2.5 0,1.571 0.764,2.932 2.095,3.732 10e-4,0 0.002,0.001 0.003,0.001 0.697,0.419 1.301,1.247 1.796,2.463 0.581,1.429 0.876,3.117 0.876,5.021 v 20.904 h -2.27 c -1.381,0 -2.5,1.119 -2.5,2.5 0,1.257 0.463,2.442 1.339,3.427 0.922,1.04 2.138,1.603 3.521,1.633 3.599,0.285 7.205,0.842 10.72,1.659 2.347,0.544 3.339,1.009 3.713,1.228 0.332,0.992 1.268,1.706 2.372,1.706 1.38,0 2.5,-1.119 2.5,-2.5 V 8.717 c 0,-1.904 0.294,-3.592 0.876,-5.02 0.485,-1.192 1.077,-2.043 1.713,-2.466 1.387,-0.796 2.18,-2.151 2.18,-3.731 0,-1.381 -1.119,-2.5 -2.5,-2.5"
             style="fill:#1e130f;fill-opacity:1;fill-rule:nonzero;stroke:none"
             id="path114" /></g><g
           id="g116"
           transform="translate(272.0234,226.8998)"><path
             d="m 0,0 c 0,0 1.231,4.457 6.041,7.271 0,0 -2.463,1.467 -5.337,0.587 0,0 1.407,4.692 4.633,8.21 0,0 -6.099,-0.351 -8.328,-4.104 0,0 -0.41,5.101 -2.17,7.271 -1.759,-2.17 -2.17,-7.271 -2.17,-7.271 -2.229,3.753 -8.328,4.104 -8.328,4.104 3.226,-3.518 4.634,-8.21 4.634,-8.21 -2.874,0.88 -5.337,-0.587 -5.337,-0.587 4.809,-2.814 6.04,-7.271 6.04,-7.271 0,0 6.158,1.231 10.322,0"
             style="fill:#1e130f;fill-opacity:1;fill-rule:nonzero;stroke:none"
             id="path118" /></g><g
           id="g120"
           transform="translate(261.5371,232.3168)"><path
             d="m 0,0 c 0.754,-0.957 1.309,-1.878 1.705,-2.65 1.838,0.229 4.647,0.441 7.286,0.087 C 9.384,-1.809 9.925,-0.921 10.651,0 10.196,0.101 9.77,0.328 9.427,0.669 8.773,1.319 8.53,2.276 8.795,3.16 8.819,3.237 9.038,3.955 9.478,5.023 8.887,4.254 7.89,3.888 6.931,4.111 6.237,4.272 5.664,4.715 5.325,5.305 4.987,4.715 4.414,4.272 3.72,4.111 2.758,3.888 1.764,4.254 1.174,5.022 1.613,3.954 1.832,3.237 1.855,3.16 2.121,2.276 1.877,1.319 1.224,0.669 0.881,0.328 0.455,0.101 0,0 m 0.163,-7.917 c -1.103,0 -2.104,0.733 -2.408,1.834 -0.037,0.125 -1.085,3.551 -4.894,5.781 -0.763,0.447 -1.234,1.264 -1.237,2.149 -0.003,0.884 0.461,1.705 1.221,2.157 0.194,0.115 1.257,0.717 2.816,1.03 -0.653,1.26 -1.54,2.69 -2.676,3.929 -0.688,0.75 -0.852,1.842 -0.416,2.762 0.436,0.919 1.378,1.489 2.403,1.423 0.503,-0.029 3.632,-0.267 6.509,-1.807 0.411,1.456 1.016,2.96 1.902,4.053 0.475,0.585 1.188,0.925 1.942,0.925 0.754,0 1.467,-0.34 1.942,-0.925 0.887,-1.093 1.492,-2.597 1.903,-4.053 2.877,1.54 6.006,1.778 6.509,1.807 1.014,0.069 1.966,-0.504 2.403,-1.423 0.436,-0.92 0.272,-2.012 -0.416,-2.762 C 16.534,7.729 15.647,6.297 14.993,5.034 16.551,4.72 17.612,4.119 17.806,4.004 18.565,3.552 19.03,2.731 19.027,1.847 19.023,0.962 18.553,0.145 17.79,-0.302 13.98,-2.532 12.933,-5.958 12.89,-6.104 12.703,-6.739 12.267,-7.285 11.684,-7.603 11.1,-7.92 10.412,-8.002 9.777,-7.814 6.848,-6.948 2.199,-7.56 0.655,-7.868 0.49,-7.901 0.325,-7.917 0.163,-7.917"
             style="fill:#1e130f;fill-opacity:1;fill-rule:nonzero;stroke:none"
             id="path122" /></g><g
           id="g124"
           transform="translate(394.6934,226.8998)"><path
             d="m 0,0 c 0,0 1.231,4.457 6.041,7.271 0,0 -2.463,1.467 -5.337,0.587 0,0 1.407,4.692 4.633,8.21 0,0 -6.099,-0.351 -8.327,-4.104 0,0 -0.411,5.101 -2.17,7.271 -1.76,-2.17 -2.17,-7.271 -2.17,-7.271 -2.23,3.753 -8.328,4.104 -8.328,4.104 3.225,-3.518 4.633,-8.21 4.633,-8.21 -2.874,0.88 -5.337,-0.587 -5.337,-0.587 C -11.553,4.457 -10.321,0 -10.321,0 c 0,0 6.157,1.231 10.321,0"
             style="fill:#1e130f;fill-opacity:1;fill-rule:nonzero;stroke:none"
             id="path126" /></g><g
           id="g128"
           transform="translate(384.207,232.3168)"><path
             d="m 0,0 c 0.755,-0.957 1.309,-1.878 1.706,-2.65 1.837,0.229 4.648,0.44 7.285,0.087 C 9.385,-1.809 9.925,-0.921 10.651,0 10.196,0.101 9.771,0.328 9.428,0.669 8.773,1.318 8.531,2.276 8.796,3.159 8.819,3.237 9.038,3.955 9.479,5.024 8.887,4.255 7.894,3.887 6.931,4.111 6.236,4.272 5.663,4.715 5.324,5.306 4.986,4.715 4.411,4.272 3.717,4.112 2.754,3.888 1.765,4.255 1.174,5.022 1.613,3.954 1.832,3.237 1.855,3.159 2.12,2.276 1.878,1.318 1.224,0.669 0.881,0.328 0.455,0.101 0,0 m 0.165,-7.917 c -1.103,0 -2.105,0.733 -2.41,1.834 -0.036,0.125 -1.084,3.551 -4.894,5.781 -0.763,0.447 -1.234,1.264 -1.237,2.149 -0.003,0.884 0.461,1.705 1.222,2.157 0.193,0.115 1.256,0.717 2.815,1.031 -0.652,1.26 -1.54,2.689 -2.676,3.928 -0.687,0.75 -0.852,1.842 -0.416,2.762 0.438,0.919 1.394,1.488 2.403,1.423 0.504,-0.029 3.632,-0.267 6.509,-1.807 0.411,1.456 1.016,2.959 1.902,4.053 0.474,0.585 1.188,0.925 1.942,0.925 0.753,0 1.467,-0.34 1.942,-0.925 0.886,-1.093 1.492,-2.597 1.903,-4.053 2.877,1.54 6.006,1.778 6.51,1.807 1.012,0.062 1.966,-0.504 2.402,-1.423 0.437,-0.92 0.272,-2.012 -0.416,-2.762 C 16.534,7.729 15.647,6.297 14.993,5.034 16.551,4.72 17.612,4.119 17.806,4.004 18.566,3.552 19.03,2.731 19.027,1.847 19.024,0.962 18.554,0.145 17.79,-0.302 13.98,-2.532 12.933,-5.958 12.891,-6.104 12.702,-6.739 12.267,-7.285 11.684,-7.603 11.103,-7.919 10.415,-8.001 9.777,-7.814 6.864,-6.954 2.203,-7.562 0.653,-7.869 0.489,-7.901 0.326,-7.917 0.165,-7.917"
             style="fill:#1e130f;fill-opacity:1;fill-rule:nonzero;stroke:none"
             id="path130" /></g><g
           id="g132"
           transform="translate(308.8125,196.1948)"><path
             d="m 0,0 v 16.339 c 0,2.473 -0.707,4.416 -2.12,5.829 -0.177,0.177 -0.324,0.294 -0.442,0.353 -0.648,0.531 -1.295,0.883 -1.943,1.06 -0.472,0.117 -0.942,0.177 -1.413,0.177 -1.59,0 -3.135,-0.81 -4.637,-2.429 -1.501,-1.62 -2.723,-3.739 -3.665,-6.359 -0.942,-2.62 -1.413,-5.255 -1.413,-7.905 0,-4.122 0.853,-7.625 2.562,-10.509 1.707,-2.886 3.766,-4.327 6.181,-4.327 2.061,0 3.887,1.059 5.476,3.179 C -0.473,-3.298 0,-1.766 0,0 m 18.281,-32.942 c 0.588,-0.354 0.883,-0.912 0.883,-1.678 H -4.682 c 0,0.766 0.294,1.324 0.884,1.678 1.117,0.648 2.031,1.84 2.737,3.577 C -0.354,-27.628 0,-25.67 0,-23.492 V -12.1 C 2.413,-9.568 4.65,-5.476 6.712,0.177 5.356,-3.298 3.119,-6.33 0,-8.92 c -0.649,-0.53 -1.355,-1.059 -2.12,-1.59 -3.945,-2.649 -7.979,-3.974 -12.1,-3.974 -5.064,0 -8.964,2.032 -11.702,6.094 -2.739,4.063 -4.107,9.214 -4.107,15.455 0,6.064 1.662,11.173 4.989,15.324 3.327,4.151 7.582,6.226 12.764,6.226 h 0.618 0.177 c 2.001,-0.118 3.355,-0.264 4.062,-0.441 h 0.088 c 0.765,-0.177 1.972,-0.487 3.621,-0.928 1.647,-0.441 2.884,-0.75 3.71,-0.927 2.943,-0.707 5.387,-1.06 7.33,-1.06 1.471,0 2.767,0.177 3.886,0.53 h 0.089 c 0.175,0.058 0.352,0.117 0.529,0.177 0.294,0.117 0.588,0.234 0.884,0.353 0.117,0.058 0.205,0.118 0.264,0.177 0.354,0.176 0.648,0.382 0.883,0.618 0.059,0 0.117,0.029 0.177,0.088 0.058,0.058 0.089,0.117 0.089,0.177 0.057,0.058 0.117,0.117 0.176,0.177 v 0.088 c 0.058,0 0.089,0.029 0.089,0.088 v 0.265 -51.401 c 0,-1.884 0.293,-3.621 0.882,-5.211 0.354,-1.06 0.765,-1.943 1.237,-2.65 0.53,-0.764 1.118,-1.324 1.766,-1.677"
             style="fill:#1e130f;fill-opacity:1;fill-rule:nonzero;stroke:none"
             id="path134" /></g><g
           id="g136"
           transform="translate(320.0283,224.4604)"><path
             d="M 0,0 V 0 C 0,0.001 0.001,0.001 0.001,0.001 0.001,0.001 0,0.001 0,0 m 0.414,-0.883 v -0.004 z m -15.328,-7.089 c 10e-4,0 0.002,-10e-4 0.003,-10e-4 -0.001,0 -0.002,10e-4 -0.003,10e-4 m -2.221,0.964 c -0.857,0 -1.801,-0.548 -2.803,-1.629 -1.265,-1.365 -2.324,-3.217 -3.146,-5.505 -0.84,-2.335 -1.266,-4.71 -1.266,-7.058 0,-3.651 0.745,-6.758 2.213,-9.236 1.834,-3.101 3.488,-3.101 4.031,-3.101 0.456,0 1.841,0 3.474,2.179 0.61,0.837 0.915,1.858 0.915,3.092 v 16.339 c 0,1.799 -0.454,3.127 -1.387,4.062 -0.003,0.002 -0.005,0.004 -0.006,0.006 -0.087,0.054 -0.171,0.115 -0.251,0.179 -0.371,0.304 -0.714,0.5 -1.019,0.583 -0.224,0.056 -0.488,0.089 -0.755,0.089 m -6.358,4.858 c -4.423,0 -7.96,-1.731 -10.812,-5.29 -2.987,-3.727 -4.44,-8.228 -4.44,-13.76 0,-5.706 1.238,-10.436 3.68,-14.058 2.263,-3.359 5.414,-4.992 9.628,-4.992 2.496,0 4.994,0.575 7.46,1.714 -2.356,-0.038 -5.697,0.877 -8.462,5.554 -1.931,3.258 -2.911,7.222 -2.911,11.782 0,2.927 0.526,5.871 1.561,8.75 1.05,2.923 2.458,5.349 4.184,7.213 1.259,1.357 2.594,2.291 3.99,2.793 -0.475,0.077 -1.401,0.188 -3.157,0.294 z m 12.635,-58.236 H 2.888 c -0.463,0.794 -0.854,1.682 -1.198,2.714 -0.662,1.783 -1.011,3.828 -1.011,6.002 v 46.765 c -0.073,-0.019 -0.147,-0.032 -0.22,-0.044 -2.964,-0.852 -6.589,-0.755 -11.897,0.486 1.805,-1.879 2.721,-4.389 2.721,-7.464 v -16.339 c 0,-1.11 -0.149,-2.161 -0.444,-3.145 0.966,1.322 1.744,2.736 2.327,4.23 0.497,1.278 1.932,1.911 3.212,1.431 1.281,-0.483 1.935,-1.908 1.466,-3.195 -2.011,-5.513 -4.163,-9.576 -6.561,-12.38 v -10.433 c 0,-2.492 -0.419,-4.785 -1.245,-6.815 -0.267,-0.659 -0.567,-1.264 -0.896,-1.813 m 18.805,-5 h -23.845 c -1.381,0 -2.5,1.119 -2.5,2.5 0,1.654 0.745,3.011 2.098,3.823 0.646,0.375 1.225,1.189 1.707,2.374 0.581,1.429 0.876,3.088 0.876,4.931 v 9.804 c -3.816,-2.193 -7.743,-3.296 -11.72,-3.296 -5.921,0 -10.556,2.422 -13.774,7.197 -3.008,4.463 -4.534,10.133 -4.534,16.853 0,6.621 1.864,12.303 5.539,16.887 3.808,4.752 8.758,7.163 14.713,7.163 h 0.795 c 0.049,0 0.098,-10e-4 0.147,-0.004 2.546,-0.151 3.681,-0.325 4.292,-0.459 0.099,-0.01 0.196,-0.025 0.275,-0.043 0.782,-0.181 2.016,-0.497 3.704,-0.948 1.594,-0.428 2.801,-0.73 3.587,-0.898 2.798,-0.671 5.068,-1.005 6.806,-1.005 1.209,0 2.263,0.14 3.133,0.414 0.107,0.034 0.215,0.061 0.325,0.079 l 0.761,0.293 c 0.103,0.071 0.209,0.135 0.32,0.19 0.08,0.04 0.134,0.074 0.17,0.099 0.344,0.969 1.27,1.663 2.357,1.663 1.381,0 2.5,-1.119 2.5,-2.5 V -51.67 c 0,-1.579 0.245,-3.04 0.727,-4.343 0.309,-0.923 0.627,-1.614 0.972,-2.13 0.279,-0.402 0.585,-0.708 0.883,-0.87 0.031,-0.017 0.061,-0.035 0.092,-0.052 1.35,-0.813 2.094,-2.169 2.094,-3.821 0,-1.381 -1.119,-2.5 -2.5,-2.5"
             style="fill:#1e130f;fill-opacity:1;fill-rule:nonzero;stroke:none"
             id="path138" /></g><g
           id="g140"
           transform="translate(375.7568,189.6596)"><path
             d="m 0,0 h 3.179 c 0,-1.355 -0.368,-2.385 -1.104,-3.091 -0.737,-0.707 -2.075,-1.06 -4.018,-1.06 -2.592,0 -5.492,-0.339 -8.7,-1.016 -3.21,-0.678 -4.99,-1.545 -5.343,-2.605 v 4.063 c 0.353,0.411 0.735,0.853 1.148,1.324 0.471,0.471 0.942,1.03 1.413,1.678 1,1.413 1.824,2.811 2.473,4.195 0.647,1.383 1.029,2.458 1.148,3.224 l 0.265,1.059 C -9.774,7.006 -10.541,5.799 -11.835,4.15 -12.307,3.621 -12.837,3.031 -13.425,2.385 -14.131,1.618 -14.926,0.824 -15.81,0 l -0.087,-0.089 -0.089,-0.088 c -0.589,-0.589 -1.311,-1.236 -2.163,-1.943 -0.855,-0.706 -2.341,-1.605 -4.461,-2.693 -2.119,-1.09 -4.327,-1.811 -6.623,-2.165 -0.413,-0.058 -0.839,-0.103 -1.282,-0.131 -0.441,-0.031 -0.898,-0.076 -1.368,-0.133 h -0.177 -0.707 c -3.003,0 -5.563,0.852 -7.683,2.561 -2.119,1.707 -3.18,3.767 -3.18,6.182 v 0.133 0.088 0.221 21.02 c 0,2.178 -0.368,4.106 -1.103,5.784 -0.738,1.679 -1.664,2.871 -2.783,3.577 -0.588,0.354 -0.882,0.883 -0.882,1.59 h 17.575 c 0.411,0 0.779,-0.163 1.103,-0.485 0.324,-0.325 0.487,-0.694 0.487,-1.105 V 10.068 9.803 9.627 9.45 c 0,-0.296 0.028,-0.53 0.087,-0.707 0,-0.059 0.014,-0.207 0.044,-0.441 0.03,-0.237 0.045,-0.442 0.045,-0.618 0.058,-0.12 0.088,-0.265 0.088,-0.442 0.058,-0.177 0.117,-0.384 0.177,-0.618 l 0.088,-0.353 c 0.117,-0.354 0.221,-0.678 0.309,-0.972 0.088,-0.295 0.221,-0.618 0.398,-0.972 l 0.088,-0.265 c 0.117,-0.236 0.234,-0.441 0.353,-0.618 0.058,-0.059 0.118,-0.147 0.177,-0.264 0.117,-0.177 0.234,-0.354 0.354,-0.531 l 0.175,-0.264 c 0.236,-0.237 0.443,-0.473 0.62,-0.707 h 0.087 c 0.118,-0.177 0.265,-0.324 0.442,-0.442 0.234,-0.176 0.411,-0.309 0.53,-0.397 0.117,-0.088 0.205,-0.133 0.265,-0.133 0.117,-0.118 0.264,-0.207 0.441,-0.265 0.059,-0.059 0.117,-0.087 0.177,-0.087 0.177,-0.12 0.353,-0.208 0.53,-0.266 0.058,0 0.147,-0.015 0.265,-0.044 0.117,-0.03 0.264,-0.044 0.441,-0.044 0.117,-0.06 0.206,-0.089 0.266,-0.089 h 0.441 c 0,-0.058 0.058,-0.088 0.177,-0.088 1.942,-0.059 4.003,0.853 6.182,2.739 v 20.401 c 0,2.119 -0.353,4.032 -1.06,5.74 -0.706,1.707 -1.649,2.915 -2.826,3.621 -0.589,0.354 -0.883,0.883 -0.883,1.59 h 4.769 12.806 c 0.471,0 0.853,-0.163 1.148,-0.485 0.294,-0.325 0.442,-0.694 0.442,-1.105 V 1.501 c 0,-0.412 0.146,-0.766 0.442,-1.06 C -0.854,0.146 -0.473,0 0,0"
             style="fill:#1e130f;fill-opacity:1;fill-rule:nonzero;stroke:none"
             id="path142" /></g><g
           id="g144"
           transform="translate(329.5273,224.1274)"><path
             d="M 0,0 C 0.005,-0.003 0.01,-0.007 0.015,-0.01 0.01,-0.007 0.005,-0.003 0,0 m 19.452,-24.926 v -0.002 z m -4.692,-2.3 v -0.001 z m 0.16,-0.644 c 10e-4,-10e-4 10e-4,-0.002 10e-4,-0.003 0,0.001 0,0.002 -10e-4,0.003 m 7.024,-3.744 z m 0.597,-0.002 0.001,-0.001 c 0,0 -0.001,0 -0.001,0.001 m 0.769,-0.374 c 0.008,-0.003 0.018,-0.005 0.027,-0.007 -0.01,0.002 -0.019,0.005 -0.027,0.007 m 0.751,-0.155 h 0.002 -10e-4 z m 0.04,-10e-4 c 0.011,0 0.024,0 0.036,0 -0.013,0 -0.026,0 -0.037,10e-4 0,-10e-4 10e-4,-10e-4 10e-4,-10e-4 m 0.208,-0.092 c 0,-10e-4 10e-4,-10e-4 10e-4,-10e-4 0,0 -10e-4,0 -10e-4,10e-4 m -0.766,-0.033 0.003,-0.002 z m -6.922,-0.15 v -10e-4 z m 9.72,-1.67 c 0.027,-0.148 0.042,-0.301 0.043,-0.458 -0.001,0.159 -0.016,0.312 -0.043,0.458 m 0.043,-0.458 v -0.004 z m 12.49,6.284 c -0.173,-0.993 -0.61,-2.23 -1.334,-3.775 -0.708,-1.512 -1.615,-3.052 -2.695,-4.579 -0.191,-0.261 -0.38,-0.51 -0.57,-0.746 0.268,0.062 0.534,0.121 0.794,0.177 3.122,0.658 6.018,1.015 8.617,1.063 -0.131,0.103 -0.257,0.214 -0.376,0.334 -0.763,0.758 -1.171,1.737 -1.171,2.824 V -3.054 H 30.612 c 0.325,-0.536 0.618,-1.121 0.881,-1.756 0.828,-2.002 1.249,-4.254 1.249,-6.695 v -16.862 c 1.328,1.738 1.537,2.339 1.558,2.405 0.398,1.296 1.748,2.039 3.06,1.674 1.305,-0.363 2.083,-1.7 1.755,-3.014 z M 2.921,-3.054 c 0.313,-0.509 0.6,-1.063 0.863,-1.662 0.872,-1.99 1.315,-4.274 1.315,-6.789 v -21.462 c 0,-1.653 0.713,-2.999 2.248,-4.234 1.676,-1.352 3.676,-2.009 6.115,-2.009 h 0.734 c 0.461,0.055 0.911,0.097 1.347,0.127 0.388,0.024 0.75,0.063 1.101,0.113 1.992,0.307 3.963,0.951 5.831,1.912 0.071,0.037 0.14,0.073 0.209,0.108 -0.01,0.003 -0.02,0.006 -0.031,0.009 -0.161,0.017 -0.315,0.043 -0.463,0.077 -0.171,0.019 -0.341,0.056 -0.506,0.111 -0.27,0.09 -0.536,0.207 -0.793,0.352 -0.114,0.047 -0.224,0.103 -0.331,0.167 -0.177,0.083 -0.344,0.178 -0.502,0.287 -0.24,0.123 -0.41,0.251 -0.5,0.318 l -0.485,0.363 c -0.216,0.15 -0.415,0.319 -0.596,0.505 -0.18,0.133 -0.342,0.289 -0.475,0.466 -0.112,0.149 -0.245,0.298 -0.395,0.448 -0.116,0.117 -0.219,0.243 -0.31,0.381 l -0.531,0.796 c -0.028,0.042 -0.054,0.085 -0.079,0.129 -0.031,0.039 -0.059,0.079 -0.087,0.12 -0.182,0.271 -0.353,0.567 -0.521,0.905 -0.051,0.105 -0.096,0.212 -0.133,0.323 l -0.034,0.105 c -0.204,0.425 -0.359,0.82 -0.474,1.205 -0.081,0.266 -0.177,0.569 -0.287,0.899 -0.019,0.06 -0.038,0.122 -0.052,0.183 l -0.088,0.354 c -0.041,0.162 -0.085,0.315 -0.128,0.447 -0.054,0.165 -0.091,0.336 -0.11,0.509 -0.067,0.228 -0.101,0.467 -0.101,0.707 0,0.089 -0.011,0.191 -0.026,0.31 -0.016,0.123 -0.028,0.232 -0.038,0.328 -0.076,0.339 -0.113,0.712 -0.113,1.128 V -3.054 Z M 30.244,-44.74 c -0.133,0 -0.267,0.011 -0.402,0.032 -1.21,0.196 -2.1,1.241 -2.1,2.468 v 2.386 c -0.823,-0.503 -1.813,-1.051 -2.981,-1.651 -2.347,-1.207 -4.831,-2.017 -7.385,-2.411 -0.505,-0.072 -0.994,-0.123 -1.502,-0.156 -0.388,-0.027 -0.8,-0.068 -1.224,-0.119 -0.101,-0.013 -0.203,-0.019 -0.304,-0.019 h -0.884 c -3.575,0 -6.689,1.048 -9.253,3.115 -2.728,2.198 -4.11,4.932 -4.11,8.128 v 21.462 c 0,1.82 -0.301,3.429 -0.894,4.78 -0.529,1.205 -1.143,2.037 -1.827,2.467 -1.304,0.782 -2.048,2.109 -2.048,3.704 0,1.381 1.119,2.5 2.5,2.5 h 17.575 c 1.077,0 2.069,-0.419 2.866,-1.212 0.804,-0.809 1.224,-1.8 1.224,-2.878 v -22.874 c 10e-4,-0.03 10e-4,-0.043 -0.001,-0.043 0,0 -0.001,0 -0.001,0.001 0.052,-0.187 0.081,-0.379 0.088,-0.574 0.005,-0.05 0.014,-0.12 0.025,-0.212 0.023,-0.179 0.039,-0.344 0.049,-0.498 0.033,-0.135 0.059,-0.273 0.076,-0.415 0.043,-0.144 0.085,-0.302 0.128,-0.469 l 0.069,-0.274 c 0.112,-0.342 0.212,-0.656 0.299,-0.943 0.034,-0.115 0.1,-0.297 0.241,-0.577 0.053,-0.107 0.098,-0.217 0.136,-0.331 l 0.027,-0.081 c 0.02,-0.038 0.04,-0.073 0.06,-0.107 0.11,-0.14 0.21,-0.291 0.303,-0.458 l 0.34,-0.509 c 0.107,-0.113 0.21,-0.227 0.309,-0.342 0.154,-0.118 0.294,-0.253 0.414,-0.403 l 0.326,-0.245 c 0.154,-0.072 0.302,-0.16 0.438,-0.264 0.049,-0.022 0.097,-0.046 0.143,-0.071 0.089,-0.04 0.176,-0.085 0.259,-0.136 0.203,-0.005 0.409,-0.035 0.607,-0.088 h 0.054 c 0.211,0 0.416,-0.026 0.612,-0.075 1.003,0.085 2.081,0.562 3.246,1.422 v 19.205 c 0,1.78 -0.293,3.391 -0.869,4.784 -0.494,1.194 -1.101,2.012 -1.803,2.434 -1.352,0.811 -2.096,2.138 -2.096,3.733 0,1.381 1.119,2.5 2.5,2.5 h 17.575 c 1.163,0 2.225,-0.461 2.992,-1.298 0.722,-0.798 1.098,-1.759 1.098,-2.792 v -29.824 h 2.268 c 1.381,0 2.5,-1.119 2.5,-2.5 0,-2.054 -0.63,-3.701 -1.872,-4.894 -1.233,-1.183 -3.114,-1.757 -5.75,-1.757 -2.404,0 -5.158,-0.323 -8.183,-0.962 -2.513,-0.53 -3.364,-1.038 -3.588,-1.204 -0.409,-0.889 -1.3,-1.455 -2.27,-1.455"
             style="fill:#1e130f;fill-opacity:1;fill-rule:nonzero;stroke:none"
             id="path146" /></g><g
           id="g148"
           transform="translate(379.0234,184.0073)"><path
             d="m 0,0 c 1.177,0.706 2.119,1.928 2.826,3.665 0.706,1.736 1.06,3.724 1.06,5.962 v 21.814 c 0,0.412 -0.148,0.78 -0.442,1.104 -0.296,0.323 -0.677,0.486 -1.148,0.486 h -3.18 c 0,0.647 0.237,1.237 0.707,1.766 0.471,0.53 1.06,0.795 1.767,0.795 3.766,0.294 7.491,0.868 11.172,1.722 3.678,0.853 5.519,1.811 5.519,2.871 V 9.627 c 0,-2.238 0.354,-4.226 1.06,-5.962 C 20.048,1.928 20.96,0.706 22.079,0 c 0.648,-0.354 0.972,-0.883 0.972,-1.59 H -0.884 c 0,0.707 0.296,1.236 0.884,1.59"
             style="fill:#1e130f;fill-opacity:1;fill-rule:nonzero;stroke:none"
             id="path150" /></g><g
           id="g152"
           transform="translate(383.2646,184.9174)"><path
             d="M 0,0 H 13.675 C 13.348,0.552 13.05,1.156 12.783,1.812 11.957,3.843 11.539,6.165 11.539,8.717 V 34.629 C 10.746,34.375 9.913,34.161 9.084,33.969 6.613,33.396 4.1,32.94 1.574,32.61 1.95,31.978 2.144,31.273 2.144,30.531 V 8.717 C 2.144,6.165 1.726,3.843 0.899,1.813 0.633,1.156 0.332,0.552 0,0 M 18.809,-5 H -5.126 c -1.381,0 -2.5,1.119 -2.5,2.5 0,1.571 0.764,2.932 2.096,3.732 0,0 0.001,0.001 0.002,0.001 0.697,0.419 1.301,1.247 1.797,2.464 0.58,1.428 0.875,3.117 0.875,5.02 v 20.904 h -2.27 c -1.381,0 -2.5,1.119 -2.5,2.5 0,1.257 0.463,2.442 1.339,3.427 0.923,1.04 2.139,1.603 3.521,1.633 3.599,0.285 7.205,0.842 10.72,1.659 2.348,0.544 3.34,1.009 3.714,1.228 0.332,0.992 1.268,1.706 2.371,1.706 1.381,0 2.5,-1.119 2.5,-2.5 V 8.717 c 0,-1.903 0.295,-3.592 0.875,-5.021 0.485,-1.191 1.077,-2.042 1.714,-2.464 1.388,-0.796 2.181,-2.151 2.181,-3.732 0,-1.381 -1.12,-2.5 -2.5,-2.5"
             style="fill:#1e130f;fill-opacity:1;fill-rule:nonzero;stroke:none"
             id="path154" /></g><g
           id="g156"
           transform="translate(420.6201,191.603)"><path
             d="m 0,0 c 0,-1.179 0.779,-2.18 2.34,-3.003 1.559,-0.825 3.43,-1.236 5.608,-1.236 2.238,0 4.152,0.411 5.741,1.236 C 13.513,-4.829 12.113,-6.39 9.494,-7.685 6.873,-8.979 3.709,-9.656 0,-9.716 h -0.354 c -1.826,0 -3.563,0.177 -5.21,0.53 -2.65,0.531 -4.785,1.383 -6.404,2.562 -1.62,1.177 -2.428,2.473 -2.428,3.886 V 26.76 c 0,0.47 -0.148,0.852 -0.442,1.148 -0.295,0.294 -0.678,0.442 -1.148,0.442 h -3.179 c 0,0.882 0.221,1.81 0.662,2.782 0.441,0.972 1.045,1.457 1.811,1.457 1.766,0 3.694,0.588 5.785,1.766 2.089,1.177 3.899,2.531 5.431,4.063 1.531,1.53 2.827,3.017 3.886,4.46 C -0.53,44.32 0,45.364 0,46.014 v -3.357 0.088 -9.273 C 0,33.06 0.146,32.706 0.441,32.412 0.735,32.117 1.117,31.971 1.59,31.971 h 12.099 c 0,-1.002 -0.353,-1.855 -1.06,-2.562 C 11.923,28.703 11.068,28.35 10.068,28.35 H -10.51 L 0,26.672 Z"
             style="fill:#1e130f;fill-opacity:1;fill-rule:nonzero;stroke:none"
             id="path158" /></g><g
           id="g160"
           transform="translate(418.1191,237.6186)"><path
             d="m 0,0 v -0.002 z m -11.569,-15.611 c 0.364,-0.186 0.698,-0.429 0.996,-0.726 0.099,-0.1 0.192,-0.203 0.279,-0.31 0.392,0.877 1.273,1.481 2.284,1.481 H 0.98 C 0.34,-14.439 0,-13.536 0,-12.544 v 4.428 c -0.387,-0.415 -0.79,-0.831 -1.208,-1.249 -1.685,-1.685 -3.693,-3.19 -5.972,-4.473 -1.505,-0.849 -2.973,-1.441 -4.389,-1.773 m 2.173,-4.136 v -29.007 c 0,-0.7 0.759,-1.399 1.397,-1.863 1.317,-0.959 3.142,-1.676 5.425,-2.133 1.502,-0.321 3.079,-0.481 4.72,-0.481 H 2.5 c 1.946,0.031 3.736,0.254 5.345,0.665 -1.534,0.233 -2.931,0.68 -4.174,1.337 C 0.638,-49.628 0,-47.51 0,-46.016 v 24.539 l -8.404,1.342 c -0.366,0.059 -0.701,0.195 -0.992,0.388 M 2.146,-58.231 c -1.994,0 -3.923,0.197 -5.735,0.585 -2.963,0.593 -5.447,1.6 -7.35,2.985 -2.857,2.075 -3.457,4.358 -3.457,5.907 v 28.588 h -2.269 c -1.381,0 -2.5,1.119 -2.5,2.5 0,1.238 0.298,2.522 0.886,3.816 1.155,2.543 3.056,2.923 4.087,2.923 1.324,0 2.857,0.487 4.557,1.445 1.883,1.06 3.529,2.29 4.892,3.652 1.436,1.437 2.661,2.841 3.638,4.172 0.834,1.137 1.058,1.666 1.11,1.811 0.08,1.309 1.167,2.345 2.495,2.345 1.381,0 2.5,-1.119 2.5,-2.5 v -11.543 h 11.189 c 1.381,0 2.5,-1.119 2.5,-2.5 0,-1.659 -0.62,-3.156 -1.793,-4.329 -1.171,-1.173 -2.668,-1.792 -4.328,-1.792 H 5 v -25.86 c 0.001,-10e-4 0.134,-0.321 1.006,-0.782 1.189,-0.629 2.683,-0.947 4.442,-0.947 1.824,0 3.368,0.321 4.59,0.955 0.813,0.422 1.791,0.366 2.551,-0.147 0.76,-0.513 1.177,-1.401 1.089,-2.313 -0.265,-2.735 -2.141,-4.983 -5.575,-6.681 -2.945,-1.455 -6.498,-2.225 -10.563,-2.29 z"
             style="fill:#1e130f;fill-opacity:1;fill-rule:nonzero;stroke:none"
             id="path162" /></g><g
           id="g164"
           transform="translate(458.7734,189.1293)"><path
             d="m 0,0 v 13.248 c 0,0.53 -0.192,0.941 -0.574,1.236 -0.384,0.294 -0.811,0.412 -1.28,0.354 -1.296,-0.236 -2.372,-0.457 -3.224,-0.662 -0.855,-0.207 -1.856,-0.546 -3.003,-1.017 -1.148,-0.471 -2.107,-1.147 -2.87,-2.031 -0.767,-0.883 -1.356,-1.942 -1.767,-3.179 -0.53,-1.826 -0.457,-3.475 0.221,-4.946 0.676,-1.473 1.736,-2.503 3.18,-3.091 1.441,-0.59 3.003,-0.942 4.68,-1.059 C -2.959,-1.267 -1.413,-0.883 0,0 m 17.84,-1.501 c 1.766,0 3.267,0.411 4.505,1.236 -0.119,-1.472 -0.928,-2.856 -2.429,-4.151 -1.502,-1.296 -3.343,-2.149 -5.52,-2.561 -1.002,-0.176 -1.974,-0.265 -2.915,-0.265 h -0.353 c -1.413,0 -2.769,0.148 -4.063,0.442 -1.413,0.353 -2.694,0.956 -3.841,1.811 -1.149,0.852 -2.018,1.751 -2.606,2.693 L 0.354,-2.561 C 0.177,-2.737 0.058,-2.886 0,-3.003 -1.119,-4.122 -2.548,-5.034 -4.283,-5.74 c -1.738,-0.707 -3.548,-1.149 -5.432,-1.325 -1.886,-0.177 -3.813,-0.162 -5.785,0.044 -1.974,0.207 -3.754,0.676 -5.343,1.413 -1.59,0.736 -2.989,1.648 -4.195,2.738 -1.208,1.089 -1.958,2.414 -2.252,3.974 -0.294,1.56 -0.118,3.282 0.529,5.167 0.707,1.943 1.855,3.59 3.445,4.946 1.589,1.353 3.429,2.369 5.52,3.047 2.089,0.675 4.076,1.192 5.961,1.546 1.884,0.352 3.9,0.662 6.05,0.926 2.148,0.266 3.694,0.515 4.637,0.751 C -0.384,17.664 0,18.163 0,18.988 v 9.716 c 0,1.471 -0.884,2.53 -2.649,3.179 -2.239,0.824 -4.152,0.294 -5.742,-1.59 -1.002,-1.178 -1.677,-2.797 -2.031,-4.857 -0.177,-1.12 -0.441,-2.106 -0.795,-2.958 -0.353,-0.855 -0.721,-1.577 -1.103,-2.165 -0.384,-0.588 -0.943,-1.059 -1.679,-1.413 -0.736,-0.353 -1.355,-0.633 -1.855,-0.838 -0.5,-0.208 -1.28,-0.354 -2.339,-0.442 -1.061,-0.089 -1.886,-0.133 -2.474,-0.133 -0.589,0 -1.545,0.014 -2.87,0.044 -1.324,0.03 -2.312,0.044 -2.958,0.044 0.293,3.062 0.676,5.328 1.147,6.801 0.707,1.943 1.796,3.635 3.268,5.078 1.472,1.442 3.209,2.562 5.211,3.357 2.001,0.794 4.062,1.369 6.182,1.721 2.12,0.354 4.357,0.531 6.712,0.531 3.121,0 5.991,-0.325 8.612,-0.972 2.619,-0.649 4.871,-1.767 6.756,-3.356 1.883,-1.589 2.884,-3.563 3.003,-5.918 V 24.729 24.376 1.59 c 0,-1.002 0.234,-1.767 0.707,-2.296 0.47,-0.53 1.382,-0.795 2.737,-0.795"
             style="fill:#1e130f;fill-opacity:1;fill-rule:nonzero;stroke:none"
             id="path166" /></g><g
           id="g168"
           transform="translate(435.0762,209.1645)"><path
             d="m 0,0 c 0.07,-0.001 0.142,-0.003 0.215,-0.005 1.3,-0.029 2.237,-0.043 2.814,-0.043 0.521,0 1.283,0.042 2.265,0.124 1.172,0.098 1.555,0.244 1.594,0.261 0.47,0.192 1.044,0.454 1.727,0.782 0.318,0.152 0.536,0.324 0.666,0.525 0.296,0.454 0.595,1.045 0.888,1.754 0.277,0.667 0.49,1.471 0.636,2.392 0.434,2.534 1.306,4.571 2.596,6.088 0.05,0.06 0.101,0.117 0.152,0.175 C 13.509,12.046 13.465,12.038 13.421,12.031 11.485,11.709 9.577,11.178 7.75,10.452 6.067,9.784 4.593,8.836 3.366,7.634 2.153,6.444 1.28,5.088 0.698,3.486 0.447,2.698 0.21,1.521 0,0 m 21.939,-0.123 c -0.004,-0.001 -0.01,-0.003 -0.016,-0.004 0.006,0.001 0.012,0.003 0.016,0.004 M 19.102,9.725 C 18.408,9.725 17.838,9.382 17.216,8.646 16.509,7.813 16.014,6.582 15.738,4.978 15.537,3.7 15.216,2.514 14.789,1.484 14.38,0.495 13.937,-0.369 13.473,-1.083 13.391,-1.208 13.305,-1.33 13.215,-1.448 c 1.406,0.232 2.876,0.444 4.39,0.631 1.533,0.189 2.736,0.368 3.591,0.533 v 8.953 c 0,0.161 0,0.461 -1.011,0.832 -0.401,0.147 -0.755,0.224 -1.083,0.224 m 2.094,-17.588 c -0.771,-0.151 -1.439,-0.293 -1.993,-0.427 -0.724,-0.176 -1.613,-0.479 -2.639,-0.898 -0.791,-0.326 -1.421,-0.768 -1.927,-1.354 -0.55,-0.633 -0.982,-1.416 -1.286,-2.333 -0.332,-1.149 -0.302,-2.197 0.119,-3.111 0.411,-0.897 1,-1.474 1.852,-1.822 1.19,-0.487 2.504,-0.783 3.911,-0.88 0.694,-0.049 1.344,0.023 1.963,0.222 z M 11.177,-6.916 C 9.745,-7.23 8.234,-7.644 6.67,-8.15 4.904,-8.723 3.332,-9.588 2.001,-10.722 c -1.266,-1.079 -2.154,-2.354 -2.716,-3.897 -0.486,-1.417 -0.634,-2.727 -0.422,-3.849 0.192,-1.018 0.672,-1.862 1.469,-2.58 1.014,-0.916 2.215,-1.698 3.572,-2.327 1.328,-0.615 2.861,-1.018 4.553,-1.195 1.802,-0.188 3.583,-0.201 5.291,-0.041 1.498,0.14 2.96,0.478 4.352,1.006 -1.649,0.182 -3.217,0.575 -4.668,1.168 -2.041,0.832 -3.559,2.3 -4.505,4.362 -0.932,2.022 -1.05,4.273 -0.349,6.686 0.542,1.637 1.299,2.993 2.279,4.12 0.104,0.121 0.21,0.239 0.32,0.353 m 14.952,-13.695 c 0.114,-0.12 0.217,-0.253 0.307,-0.397 0.418,-0.672 1.083,-1.347 1.974,-2.009 0.891,-0.663 1.857,-1.118 2.957,-1.392 1.06,-0.24 2.239,-0.368 3.457,-0.368 h 0.354 c 0.789,0 1.624,0.076 2.479,0.227 0.785,0.149 1.508,0.364 2.173,0.652 -1.253,0.223 -2.21,0.718 -2.901,1.498 -0.886,0.991 -1.337,2.324 -1.337,3.955 V 4.694 c -0.081,1.633 -0.754,2.947 -2.115,4.096 -1.58,1.331 -3.512,2.286 -5.745,2.839 -0.886,0.219 -1.811,0.398 -2.771,0.538 1.025,-1.232 1.235,-2.592 1.235,-3.498 v -9.716 c 0,-1.17 -0.409,-2.174 -1.134,-2.891 0.737,-0.749 1.134,-1.741 1.134,-2.849 v -13.248 c 0,-0.196 -0.023,-0.39 -0.067,-0.576 m 9.049,-9.166 h -0.354 c -1.59,0 -3.142,0.17 -4.616,0.505 -1.781,0.443 -3.373,1.194 -4.781,2.243 -0.464,0.343 -0.894,0.7 -1.289,1.065 -1.094,-0.836 -2.361,-1.549 -3.783,-2.127 -1.955,-0.796 -4.02,-1.3 -6.14,-1.499 -2.035,-0.19 -4.148,-0.175 -6.278,0.047 -2.243,0.235 -4.306,0.784 -6.134,1.631 -1.815,0.84 -3.437,1.9 -4.821,3.152 -1.615,1.455 -2.636,3.262 -3.033,5.366 -0.374,1.985 -0.165,4.152 0.622,6.442 0.868,2.387 2.272,4.403 4.187,6.036 0.83,0.707 1.723,1.336 2.675,1.886 -0.394,0.007 -0.837,0.015 -1.33,0.027 -1.298,0.028 -2.267,0.043 -2.902,0.043 -0.704,0 -1.376,0.297 -1.849,0.818 -0.475,0.522 -0.706,1.219 -0.639,1.92 0.312,3.269 0.723,5.664 1.255,7.326 0.863,2.378 2.164,4.4 3.897,6.1 1.705,1.67 3.737,2.981 6.039,3.895 2.158,0.857 4.41,1.484 6.696,1.864 2.243,0.375 4.64,0.564 7.122,0.564 3.305,0 6.404,-0.351 9.211,-1.045 2.983,-0.738 5.596,-2.041 7.767,-3.871 2.427,-2.048 3.735,-4.639 3.889,-7.704 0.002,-0.041 0.003,-0.083 0.003,-0.125 v -23.227 c 0,-0.25 0.023,-0.415 0.047,-0.518 0.16,-0.034 0.443,-0.073 0.897,-0.073 1.275,0 2.294,0.266 3.118,0.816 0.798,0.531 1.83,0.561 2.655,0.075 0.826,-0.486 1.301,-1.401 1.224,-2.356 -0.174,-2.145 -1.28,-4.11 -3.288,-5.843 -1.832,-1.581 -4.083,-2.633 -6.689,-3.125 -1.172,-0.206 -2.298,-0.308 -3.378,-0.308"
             style="fill:#1e130f;fill-opacity:1;fill-rule:nonzero;stroke:none"
             id="path170" /></g><g
           id="g172"
           transform="translate(145.8682,184.0043)"><path
             d="M 0,0 C 1.118,0.706 1.987,1.928 2.605,3.665 3.224,5.401 3.473,7.389 3.356,9.627 L 1.589,42.393 C 1.53,43.275 1.088,43.775 0.265,43.894 -0.561,44.012 -1.119,43.687 -1.413,42.923 L -14.661,9.627 c -0.295,-0.825 -0.56,-1.649 -0.795,-2.474 V 7.021 6.889 l 2.738,-6.271 c 0.235,-0.53 0.206,-1.031 -0.088,-1.501 -0.296,-0.472 -0.737,-0.707 -1.325,-0.707 H -26.23 c -0.649,0 -1.12,0.323 -1.414,0.972 l -0.088,0.177 -4.416,10.068 -13.601,30.822 c -0.295,0.765 -0.854,1.074 -1.678,0.928 -0.825,-0.148 -1.237,-0.634 -1.237,-1.457 L -49.812,9.627 c -0.118,-2.238 0.146,-4.226 0.795,-5.962 0.647,-1.737 1.531,-2.93 2.65,-3.577 0.588,-0.412 0.883,-0.971 0.883,-1.678 h -14.308 c 0,0.707 0.323,1.266 0.972,1.678 1.118,0.647 2.075,1.84 2.87,3.577 0.795,1.736 1.221,3.724 1.281,5.962 l 1.59,41.421 c 0.058,2.119 -0.207,4.032 -0.795,5.74 -1.532,1.884 -3.063,3.18 -4.593,3.887 -0.765,0.352 -1.296,0.883 -1.59,1.589 h 7.419 4.769 12.806 c 0.354,-0.706 0.294,-1.237 -0.176,-1.589 -0.825,-0.65 -1.223,-1.841 -1.192,-3.577 0.029,-1.738 0.514,-3.696 1.457,-5.873 L -18.9,14.661 c 0.176,-0.353 0.442,-0.53 0.795,-0.53 0.353,0 0.587,0.177 0.706,0.53 l 14.396,36.475 c 0.765,1.943 1.177,3.738 1.236,5.387 0.059,1.648 -0.235,2.884 -0.883,3.709 -0.236,0.177 -0.441,0.324 -0.618,0.443 -0.649,0.352 -1.002,0.883 -1.06,1.589 h 5.741 4.769 14.572 c 0,-0.706 -0.295,-1.237 -0.882,-1.589 -1.06,-0.707 -1.899,-1.93 -2.518,-3.666 -0.618,-1.738 -0.869,-3.696 -0.75,-5.873 L 18.9,9.538 C 19.017,7.359 19.474,5.401 20.269,3.665 21.063,1.928 22.049,0.706 23.228,0 c 0.647,-0.354 0.971,-0.883 0.971,-1.59 H -0.795 C -0.854,-0.883 -0.589,-0.354 0,0"
             style="fill:#009832;fill-opacity:1;fill-rule:nonzero;stroke:none"
             id="path174" /></g><g
           id="g176"
           transform="translate(196.8276,189.1264)"><path
             d="m 0,0 v 13.248 c 0,0.53 -0.192,0.941 -0.574,1.236 -0.384,0.294 -0.81,0.412 -1.281,0.354 -1.296,-0.236 -2.371,-0.457 -3.224,-0.662 -0.854,-0.207 -1.854,-0.546 -3.002,-1.017 -1.148,-0.471 -2.106,-1.147 -2.871,-2.031 -0.765,-0.883 -1.355,-1.942 -1.766,-3.179 -0.53,-1.826 -0.457,-3.475 0.221,-4.946 0.676,-1.473 1.736,-2.503 3.179,-3.091 1.443,-0.59 3.003,-0.942 4.681,-1.059 C -2.959,-1.267 -1.413,-0.883 0,0 m 17.84,-1.501 c 1.766,0 3.268,0.411 4.504,1.236 -0.118,-1.472 -0.927,-2.856 -2.428,-4.151 -1.502,-1.296 -3.343,-2.149 -5.52,-2.561 -1.002,-0.176 -1.974,-0.265 -2.915,-0.265 h -0.353 c -1.413,0 -2.768,0.148 -4.063,0.442 -1.413,0.353 -2.693,0.956 -3.841,1.811 -1.149,0.852 -2.018,1.751 -2.606,2.693 L 0.353,-2.561 C 0.176,-2.737 0.058,-2.886 0,-3.003 -1.119,-4.122 -2.548,-5.034 -4.284,-5.74 c -1.737,-0.707 -3.548,-1.149 -5.431,-1.325 -1.885,-0.177 -3.813,-0.162 -5.785,0.044 -1.973,0.207 -3.753,0.676 -5.343,1.413 -1.59,0.736 -2.989,1.648 -4.196,2.738 -1.207,1.089 -1.958,2.414 -2.252,3.974 -0.293,1.56 -0.117,3.282 0.53,5.167 0.707,1.943 1.855,3.59 3.445,4.946 1.589,1.353 3.429,2.369 5.52,3.047 2.089,0.675 4.076,1.192 5.961,1.546 1.884,0.352 3.9,0.662 6.05,0.926 2.149,0.266 3.694,0.515 4.637,0.751 C -0.384,17.664 0,18.163 0,18.988 v 9.716 c 0,1.471 -0.883,2.53 -2.65,3.179 -2.238,0.824 -4.151,0.294 -5.741,-1.59 -1.001,-1.178 -1.677,-2.797 -2.031,-4.857 -0.176,-1.12 -0.441,-2.106 -0.795,-2.958 -0.353,-0.855 -0.721,-1.577 -1.103,-2.165 -0.384,-0.588 -0.943,-1.059 -1.679,-1.413 -0.736,-0.353 -1.355,-0.633 -1.855,-0.838 -0.5,-0.208 -1.28,-0.354 -2.34,-0.442 -1.059,-0.089 -1.885,-0.133 -2.473,-0.133 -0.589,0 -1.545,0.014 -2.87,0.044 -1.325,0.03 -2.312,0.044 -2.959,0.044 0.294,3.062 0.677,5.328 1.148,6.801 0.707,1.943 1.796,3.635 3.268,5.078 1.471,1.442 3.209,2.562 5.211,3.357 2.001,0.794 4.063,1.369 6.182,1.721 2.12,0.354 4.357,0.531 6.712,0.531 3.121,0 5.991,-0.325 8.612,-0.972 2.619,-0.649 4.871,-1.767 6.756,-3.356 1.883,-1.589 2.884,-3.563 3.003,-5.918 V 24.729 24.376 1.59 c 0,-1.002 0.234,-1.767 0.706,-2.296 0.471,-0.53 1.383,-0.795 2.738,-0.795"
             style="fill:#009832;fill-opacity:1;fill-rule:nonzero;stroke:none"
             id="path178" /></g><g
           id="g180"
           transform="translate(256.2646,215.4457)"><path
             d="m 0,0 v -0.177 c 0,-1.472 -0.397,-2.812 -1.192,-4.018 -0.795,-1.208 -1.87,-2.047 -3.224,-2.518 -1.532,-0.472 -2.959,-0.501 -4.283,-0.088 -1.325,0.411 -2.429,1.149 -3.312,2.208 -0.825,1.06 -1.296,2.266 -1.413,3.621 v 0.618 c 0,1.471 0.411,2.796 1.236,3.975 0.235,0.353 0.5,0.647 0.795,0.883 l 0.088,0.088 c 0.117,0.118 0.206,0.206 0.265,0.265 0.765,0.588 1.59,1 2.473,1.237 0.058,0.057 0.117,0.088 0.177,0.088 -1.826,-0.236 -3.548,-0.883 -5.167,-1.943 -1.62,-1.06 -2.929,-2.252 -3.93,-3.577 -1.002,-1.325 -1.797,-2.516 -2.385,-3.577 -0.589,-1.06 -0.913,-1.855 -0.971,-2.385 v -16.603 c 0,-2.179 0.353,-4.137 1.06,-5.873 0.706,-1.738 1.618,-2.93 2.738,-3.578 0.647,-0.412 0.971,-0.97 0.971,-1.677 h -23.934 c 0,0.707 0.294,1.265 0.883,1.677 1.177,0.648 2.12,1.84 2.826,3.578 0.707,1.736 1.06,3.723 1.06,5.962 v 22.52 c 0,0.411 -0.148,0.78 -0.442,1.105 -0.295,0.322 -0.677,0.485 -1.148,0.485 h -3.179 c 0,0.647 0.236,1.222 0.706,1.723 0.471,0.499 1.06,0.779 1.767,0.838 2.296,0.177 4.665,0.455 7.109,0.839 2.443,0.382 4.651,0.928 6.624,1.634 1.972,0.707 2.959,1.413 2.959,2.12 V 6.182 c -0.825,-0.766 -1.561,-1.59 -2.208,-2.473 -0.353,-0.53 -0.649,-1.002 -0.883,-1.413 -0.236,-0.412 -0.442,-0.839 -0.618,-1.28 -0.177,-0.442 -0.309,-0.855 -0.398,-1.237 -0.088,-0.383 -0.176,-0.751 -0.265,-1.104 -0.088,-0.354 -0.132,-0.678 -0.132,-0.972 0,-0.295 -0.015,-0.545 -0.045,-0.75 -0.03,-0.207 -0.044,-0.369 -0.044,-0.486 V -3.71 c 0.53,1.53 1.619,3.297 3.268,5.3 0.294,0.352 0.588,0.706 0.883,1.059 0,0.058 0.029,0.088 0.089,0.088 0.234,0.235 0.353,0.383 0.353,0.442 2.767,3.003 5.799,4.975 9.096,5.918 3.121,0.882 5.859,0.47 8.214,-1.237 C -1.296,6.151 -0.119,3.532 0,0"
             style="fill:#009832;fill-opacity:1;fill-rule:nonzero;stroke:none"
             id="path182" /></g><g
           id="g184"
           transform="translate(256.3521,184.0043)"><path
             d="m 0,0 c 1.177,0.706 2.12,1.928 2.826,3.665 0.707,1.736 1.06,3.724 1.06,5.962 v 21.814 c 0,0.412 -0.148,0.78 -0.442,1.104 -0.295,0.323 -0.677,0.486 -1.148,0.486 h -3.179 c 0,0.647 0.236,1.237 0.707,1.766 0.47,0.53 1.059,0.795 1.766,0.795 3.767,0.294 7.492,0.868 11.172,1.722 3.679,0.853 5.519,1.811 5.519,2.871 V 9.627 c 0,-2.238 0.354,-4.226 1.061,-5.962 C 20.049,1.928 20.961,0.706 22.08,0 c 0.647,-0.354 0.971,-0.883 0.971,-1.59 H -0.883 c 0,0.707 0.295,1.236 0.883,1.59"
             style="fill:#009832;fill-opacity:1;fill-rule:nonzero;stroke:none"
             id="path186" /></g><g
           id="g188"
           transform="translate(272.0234,226.8969)"><path
             d="m 0,0 c 0,0 1.231,4.457 6.041,7.271 0,0 -2.463,1.467 -5.337,0.587 0,0 1.407,4.692 4.633,8.211 0,0 -6.099,-0.352 -8.328,-4.105 0,0 -0.41,5.102 -2.17,7.272 -1.759,-2.17 -2.17,-7.272 -2.17,-7.272 -2.229,3.753 -8.328,4.105 -8.328,4.105 3.226,-3.519 4.634,-8.211 4.634,-8.211 -2.874,0.88 -5.337,-0.587 -5.337,-0.587 4.809,-2.814 6.04,-7.271 6.04,-7.271 0,0 6.158,1.231 10.322,0"
             style="fill:#009832;fill-opacity:1;fill-rule:nonzero;stroke:none"
             id="path190" /></g><g
           id="g192"
           transform="translate(394.6934,226.8969)"><path
             d="m 0,0 c 0,0 1.231,4.457 6.041,7.271 0,0 -2.463,1.467 -5.337,0.587 0,0 1.407,4.692 4.633,8.211 0,0 -6.099,-0.352 -8.327,-4.105 0,0 -0.411,5.102 -2.17,7.272 -1.76,-2.17 -2.17,-7.272 -2.17,-7.272 -2.23,3.753 -8.328,4.105 -8.328,4.105 3.225,-3.519 4.633,-8.211 4.633,-8.211 -2.874,0.88 -5.337,-0.587 -5.337,-0.587 C -11.553,4.457 -10.321,0 -10.321,0 c 0,0 6.157,1.231 10.321,0"
             style="fill:#009832;fill-opacity:1;fill-rule:nonzero;stroke:none"
             id="path194" /></g><g
           id="g196"
           transform="translate(308.8125,196.1918)"><path
             d="m 0,0 v 16.339 c 0,2.473 -0.707,4.416 -2.12,5.829 -0.177,0.177 -0.324,0.294 -0.442,0.353 -0.648,0.531 -1.295,0.883 -1.943,1.06 -0.472,0.117 -0.942,0.177 -1.413,0.177 -1.59,0 -3.135,-0.81 -4.637,-2.429 -1.501,-1.62 -2.723,-3.739 -3.665,-6.359 -0.942,-2.62 -1.413,-5.255 -1.413,-7.905 0,-4.122 0.853,-7.625 2.562,-10.509 1.707,-2.886 3.766,-4.327 6.181,-4.327 2.061,0 3.887,1.059 5.476,3.179 C -0.473,-3.298 0,-1.766 0,0 m 18.281,-32.942 c 0.588,-0.354 0.883,-0.912 0.883,-1.678 H -4.682 c 0,0.766 0.294,1.324 0.884,1.678 1.117,0.648 2.031,1.84 2.737,3.577 C -0.354,-27.628 0,-25.67 0,-23.492 V -12.1 C 2.413,-9.568 4.65,-5.476 6.712,0.177 5.356,-3.298 3.119,-6.33 0,-8.92 c -0.649,-0.53 -1.355,-1.059 -2.12,-1.59 -3.945,-2.649 -7.979,-3.974 -12.1,-3.974 -5.064,0 -8.964,2.032 -11.702,6.094 -2.739,4.063 -4.107,9.214 -4.107,15.455 0,6.064 1.662,11.173 4.989,15.324 3.327,4.151 7.582,6.226 12.764,6.226 h 0.618 0.177 c 2.001,-0.118 3.355,-0.264 4.062,-0.441 h 0.088 c 0.765,-0.177 1.972,-0.487 3.621,-0.928 1.647,-0.441 2.884,-0.75 3.71,-0.927 2.943,-0.707 5.387,-1.06 7.33,-1.06 1.471,0 2.767,0.177 3.886,0.53 h 0.089 c 0.175,0.058 0.352,0.117 0.529,0.177 0.294,0.117 0.588,0.234 0.884,0.353 0.117,0.058 0.205,0.118 0.264,0.177 0.354,0.176 0.648,0.382 0.883,0.618 0.059,0 0.117,0.029 0.177,0.088 0.058,0.058 0.089,0.117 0.089,0.177 0.057,0.058 0.117,0.117 0.176,0.177 v 0.088 c 0.058,0 0.089,0.029 0.089,0.088 v 0.265 -51.401 c 0,-1.884 0.293,-3.621 0.882,-5.211 0.354,-1.06 0.765,-1.943 1.237,-2.65 0.53,-0.764 1.118,-1.324 1.766,-1.677"
             style="fill:#009832;fill-opacity:1;fill-rule:nonzero;stroke:none"
             id="path198" /></g><g
           id="g200"
           transform="translate(375.7568,189.6567)"><path
             d="m 0,0 h 3.179 c 0,-1.355 -0.368,-2.385 -1.104,-3.091 -0.737,-0.707 -2.075,-1.06 -4.018,-1.06 -2.592,0 -5.492,-0.339 -8.7,-1.016 -3.21,-0.678 -4.99,-1.545 -5.343,-2.605 v 4.063 c 0.353,0.411 0.735,0.853 1.148,1.324 0.471,0.471 0.942,1.03 1.413,1.678 1,1.413 1.824,2.811 2.473,4.195 0.647,1.383 1.029,2.458 1.148,3.224 l 0.265,1.059 C -9.774,7.006 -10.541,5.799 -11.835,4.15 -12.307,3.621 -12.837,3.031 -13.425,2.385 -14.131,1.618 -14.926,0.824 -15.81,0 l -0.087,-0.089 -0.089,-0.088 c -0.589,-0.589 -1.311,-1.236 -2.163,-1.943 -0.855,-0.706 -2.341,-1.605 -4.461,-2.693 -2.119,-1.09 -4.327,-1.811 -6.623,-2.165 -0.413,-0.058 -0.839,-0.103 -1.282,-0.131 -0.441,-0.031 -0.898,-0.076 -1.368,-0.133 h -0.177 -0.707 c -3.003,0 -5.563,0.852 -7.683,2.561 -2.119,1.707 -3.18,3.767 -3.18,6.182 v 0.133 0.088 0.221 21.02 c 0,2.178 -0.368,4.106 -1.103,5.784 -0.738,1.679 -1.664,2.871 -2.783,3.577 -0.588,0.354 -0.882,0.883 -0.882,1.59 h 17.575 c 0.411,0 0.779,-0.163 1.103,-0.485 0.324,-0.325 0.487,-0.694 0.487,-1.105 V 10.068 9.803 9.627 9.45 c 0,-0.296 0.028,-0.53 0.087,-0.707 0,-0.059 0.014,-0.207 0.044,-0.441 0.03,-0.237 0.045,-0.442 0.045,-0.618 0.058,-0.12 0.088,-0.265 0.088,-0.442 0.058,-0.177 0.117,-0.384 0.177,-0.618 l 0.088,-0.353 c 0.117,-0.354 0.221,-0.678 0.309,-0.972 0.088,-0.295 0.221,-0.618 0.398,-0.972 l 0.088,-0.265 c 0.117,-0.236 0.234,-0.441 0.353,-0.618 0.058,-0.059 0.118,-0.147 0.177,-0.264 0.117,-0.177 0.234,-0.354 0.354,-0.531 l 0.175,-0.264 c 0.236,-0.237 0.443,-0.473 0.62,-0.707 h 0.087 c 0.118,-0.177 0.265,-0.324 0.442,-0.442 0.234,-0.176 0.411,-0.309 0.53,-0.397 0.117,-0.088 0.205,-0.133 0.265,-0.133 0.117,-0.118 0.264,-0.207 0.441,-0.265 0.059,-0.059 0.117,-0.087 0.177,-0.087 0.177,-0.12 0.353,-0.208 0.53,-0.266 0.058,0 0.147,-0.015 0.265,-0.044 0.117,-0.03 0.264,-0.044 0.441,-0.044 0.117,-0.06 0.206,-0.089 0.266,-0.089 h 0.441 c 0,-0.058 0.058,-0.088 0.177,-0.088 1.942,-0.059 4.003,0.853 6.182,2.739 v 20.401 c 0,2.119 -0.353,4.032 -1.06,5.74 -0.706,1.707 -1.649,2.915 -2.826,3.621 -0.589,0.354 -0.883,0.883 -0.883,1.59 h 4.769 12.806 c 0.471,0 0.853,-0.163 1.148,-0.485 0.294,-0.325 0.442,-0.694 0.442,-1.105 V 1.501 c 0,-0.412 0.146,-0.766 0.442,-1.06 C -0.854,0.146 -0.473,0 0,0"
             style="fill:#009832;fill-opacity:1;fill-rule:nonzero;stroke:none"
             id="path202" /></g><g
           id="g204"
           transform="translate(379.0234,184.0043)"><path
             d="m 0,0 c 1.177,0.706 2.119,1.928 2.826,3.665 0.706,1.736 1.06,3.724 1.06,5.962 v 21.814 c 0,0.412 -0.148,0.78 -0.442,1.104 -0.296,0.323 -0.677,0.486 -1.148,0.486 h -3.18 c 0,0.647 0.237,1.237 0.707,1.766 0.471,0.53 1.06,0.795 1.767,0.795 3.766,0.294 7.491,0.868 11.172,1.722 3.678,0.853 5.519,1.811 5.519,2.871 V 9.627 c 0,-2.238 0.354,-4.226 1.06,-5.962 C 20.048,1.928 20.96,0.706 22.079,0 c 0.648,-0.354 0.972,-0.883 0.972,-1.59 H -0.884 c 0,0.707 0.296,1.236 0.884,1.59"
             style="fill:#009832;fill-opacity:1;fill-rule:nonzero;stroke:none"
             id="path206" /></g><g
           id="g208"
           transform="translate(420.6201,191.6)"><path
             d="m 0,0 c 0,-1.179 0.779,-2.18 2.34,-3.003 1.559,-0.825 3.43,-1.236 5.608,-1.236 2.238,0 4.152,0.411 5.741,1.236 C 13.513,-4.829 12.113,-6.39 9.494,-7.685 6.873,-8.979 3.709,-9.656 0,-9.716 h -0.354 c -1.826,0 -3.563,0.177 -5.21,0.53 -2.65,0.531 -4.785,1.383 -6.404,2.562 -1.62,1.177 -2.428,2.473 -2.428,3.886 V 26.76 c 0,0.47 -0.148,0.852 -0.442,1.148 -0.295,0.294 -0.678,0.442 -1.148,0.442 h -3.179 c 0,0.882 0.221,1.81 0.662,2.782 0.441,0.972 1.045,1.457 1.811,1.457 1.766,0 3.694,0.588 5.785,1.766 2.089,1.177 3.899,2.531 5.431,4.063 1.531,1.53 2.827,3.017 3.886,4.46 C -0.53,44.32 0,45.364 0,46.014 v -3.357 0.088 -9.273 C 0,33.06 0.146,32.706 0.441,32.412 0.735,32.117 1.117,31.971 1.59,31.971 h 12.099 c 0,-1.002 -0.353,-1.855 -1.06,-2.562 C 11.923,28.703 11.068,28.35 10.068,28.35 H -10.51 L 0,26.672 Z"
             style="fill:#009832;fill-opacity:1;fill-rule:nonzero;stroke:none"
             id="path210" /></g><g
           id="g212"
           transform="translate(458.7734,189.1264)"><path
             d="m 0,0 v 13.248 c 0,0.53 -0.192,0.941 -0.574,1.236 -0.384,0.294 -0.811,0.412 -1.28,0.354 -1.296,-0.236 -2.372,-0.457 -3.224,-0.662 -0.855,-0.207 -1.856,-0.546 -3.003,-1.017 -1.148,-0.471 -2.107,-1.147 -2.87,-2.031 -0.767,-0.883 -1.356,-1.942 -1.767,-3.179 -0.53,-1.826 -0.457,-3.475 0.221,-4.946 0.676,-1.473 1.736,-2.503 3.18,-3.091 1.441,-0.59 3.003,-0.942 4.68,-1.059 C -2.959,-1.267 -1.413,-0.883 0,0 m 17.84,-1.501 c 1.766,0 3.267,0.411 4.505,1.236 -0.119,-1.472 -0.928,-2.856 -2.429,-4.151 -1.502,-1.296 -3.343,-2.149 -5.52,-2.561 -1.002,-0.176 -1.974,-0.265 -2.915,-0.265 h -0.353 c -1.413,0 -2.769,0.148 -4.063,0.442 -1.413,0.353 -2.694,0.956 -3.841,1.811 -1.149,0.852 -2.018,1.751 -2.606,2.693 L 0.354,-2.561 C 0.177,-2.737 0.058,-2.886 0,-3.003 -1.119,-4.122 -2.548,-5.034 -4.283,-5.74 c -1.738,-0.707 -3.548,-1.149 -5.432,-1.325 -1.886,-0.177 -3.813,-0.162 -5.785,0.044 -1.974,0.207 -3.754,0.676 -5.343,1.413 -1.59,0.736 -2.989,1.648 -4.195,2.738 -1.208,1.089 -1.958,2.414 -2.252,3.974 -0.294,1.56 -0.118,3.282 0.529,5.167 0.707,1.943 1.855,3.59 3.445,4.946 1.589,1.353 3.429,2.369 5.52,3.047 2.089,0.675 4.076,1.192 5.961,1.546 1.884,0.352 3.9,0.662 6.05,0.926 2.148,0.266 3.694,0.515 4.637,0.751 C -0.384,17.664 0,18.163 0,18.988 v 9.716 c 0,1.471 -0.884,2.53 -2.649,3.179 -2.239,0.824 -4.152,0.294 -5.742,-1.59 -1.002,-1.178 -1.677,-2.797 -2.031,-4.857 -0.177,-1.12 -0.441,-2.106 -0.795,-2.958 -0.353,-0.855 -0.721,-1.577 -1.103,-2.165 -0.384,-0.588 -0.943,-1.059 -1.679,-1.413 -0.736,-0.353 -1.355,-0.633 -1.855,-0.838 -0.5,-0.208 -1.28,-0.354 -2.339,-0.442 -1.061,-0.089 -1.886,-0.133 -2.474,-0.133 -0.589,0 -1.545,0.014 -2.87,0.044 -1.324,0.03 -2.312,0.044 -2.958,0.044 0.293,3.062 0.676,5.328 1.147,6.801 0.707,1.943 1.796,3.635 3.268,5.078 1.472,1.442 3.209,2.562 5.211,3.357 2.001,0.794 4.062,1.369 6.182,1.721 2.12,0.354 4.357,0.531 6.712,0.531 3.121,0 5.991,-0.325 8.612,-0.972 2.619,-0.649 4.871,-1.767 6.756,-3.356 1.883,-1.589 2.884,-3.563 3.003,-5.918 V 24.729 24.376 1.59 c 0,-1.002 0.234,-1.767 0.707,-2.296 0.47,-0.53 1.382,-0.795 2.737,-0.795"
             style="fill:#009832;fill-opacity:1;fill-rule:nonzero;stroke:none"
             id="path214" /></g><g
           id="g216"
           transform="translate(274.5215,339.0458)"><path
             d="m 0,0 c 0,0 9.414,0.778 17.624,-8.848 0,0 2.123,-3.539 -5.804,-4.317 0,0 11.183,-9.414 5.238,-28.666 0,0 -7.495,-22.675 -20.401,-33.271 -20.573,-16.889 -38.92,18.175 -44.449,32.917 -7.219,19.252 5.663,29.02 5.663,29.02 -7.928,0.778 -5.805,4.317 -5.805,4.317 8.211,9.626 17.625,8.848 17.625,8.848 -2.548,8.564 -0.873,10.216 -0.873,10.216 13.401,0.377 16.043,-9.72 16.043,-9.72 0,0 8.871,8.776 15.761,5.756 0,0 1.587,-3.35 -0.622,-6.252"
             style="fill:#4da92c;fill-opacity:1;fill-rule:nonzero;stroke:none"
             id="path218" /></g><g
           id="g220"
           transform="translate(239.9419,326.4233)"><path
             d="m 0,0 c 0,0 -14.062,-6.04 -10.759,-22.649 0.452,-2.272 0.996,-4.385 1.874,-6.56 3.161,-7.838 7.284,-15.338 12.199,-22.212 4.311,-6.031 12.043,-12.827 20.117,-11.207 4.114,0.825 7.423,4.613 9.96,7.65 9.287,11.123 17.322,25.483 16.532,40.492 0,0 0.04,5.237 -7.152,8.729 -0.266,0.13 -1.539,-0.394 -1.829,-0.455 -1.587,-0.333 -3.202,-0.54 -4.821,-0.627 -4.698,-0.252 -9.537,0.552 -13.624,2.976 -1.714,1.017 -3.186,2.235 -4.5,3.726 -1.13,-2.179 -3.756,-4.211 -5.683,-5.695 C 9.642,-7.89 5.649,-10.037 2.195,-9.945 -3.066,-9.805 -1.414,-2.965 0,0"
             style="fill:#e0030a;fill-opacity:1;fill-rule:nonzero;stroke:none"
             id="path222" /></g><g
           id="g224"
           transform="translate(230.3159,329.4433)"><path
             d="M 0,0 C 0.014,0.016 6.616,7.642 16.421,5.379 15.745,4.955 15.095,4.479 14.478,3.973 13.497,3.169 12.827,2.078 11.813,1.313 9.808,-0.198 6.752,-0.458 4.325,-0.429 3.647,-0.421 2.97,-0.38 2.296,-0.315 2.016,-0.289 0.967,-0.189 0,0"
             style="fill:#009030;fill-opacity:1;fill-rule:nonzero;stroke:none"
             id="path226" /></g><g
           id="g228"
           transform="translate(248.7422,336.0024)"><path
             d="m 0,0 c 0,0 -3.563,5.285 -2.902,10.239 0,0 7.927,-1.132 10.947,-7.974 0,0 1.404,-3.077 2.395,-3.025 0,0 0.85,-0.09 2.831,2.034 0,0 5.309,5.202 9.662,4.565 v -7.467 l -6.335,1.663 c 0,0 -2.053,0.425 -2.973,-0.707 0,0 -0.708,-1.628 1.805,-2.16 0,0 8.14,-2.325 9.768,-4.069 l 1.911,-5.308 -0.531,-0.921 -1.136,-0.249 c 0,0 -10.224,-0.069 -13.763,7.433 0,0 -1.186,2.814 -1.841,2.761 -0.654,-0.053 -1.787,-2.318 -1.787,-2.318 0,0 -3.45,-9.267 -14.869,-10.305 0,0 1.006,10.558 9.82,13.145 0,0 1.74,0.469 3.51,0.61 0,0 1.698,0.248 1.522,1.699 0,0 0,1.946 -3.15,1.557 C 4.884,1.203 2.3,0.814 0,0"
             style="fill:#009030;fill-opacity:1;fill-rule:nonzero;stroke:none"
             id="path230" /></g><g
           id="g232"
           transform="translate(238.6206,310.663)"><path
             d="m 0,0 c 0,-1.876 -0.782,-3.397 -1.746,-3.397 -0.964,0 -1.746,1.521 -1.746,3.397 0,1.876 0.782,3.397 1.746,3.397 C -0.782,3.397 0,1.876 0,0"
             style="fill:#f19800;fill-opacity:1;fill-rule:nonzero;stroke:none"
             id="path234" /></g><g
           id="g236"
           transform="translate(241.5464,291.3393)"><path
             d="m 0,0 c 0,-1.876 -0.782,-3.397 -1.746,-3.397 -0.964,0 -1.746,1.521 -1.746,3.397 0,1.876 0.782,3.397 1.746,3.397 C -0.782,3.397 0,1.876 0,0"
             style="fill:#f19800;fill-opacity:1;fill-rule:nonzero;stroke:none"
             id="path238" /></g><g
           id="g240"
           transform="translate(249.5679,302.1279)"><path
             d="m 0,0 c 0,-1.876 -0.782,-3.397 -1.746,-3.397 -0.964,0 -1.746,1.521 -1.746,3.397 0,1.876 0.782,3.397 1.746,3.397 C -0.782,3.397 0,1.876 0,0"
             style="fill:#f19800;fill-opacity:1;fill-rule:nonzero;stroke:none"
             id="path242" /></g><g
           id="g244"
           transform="translate(259.3667,291.977)"><path
             d="m 0,0 c 0,-1.876 -0.782,-3.397 -1.746,-3.397 -0.964,0 -1.746,1.521 -1.746,3.397 0,1.876 0.782,3.397 1.746,3.397 C -0.782,3.397 0,1.876 0,0"
             style="fill:#f19800;fill-opacity:1;fill-rule:nonzero;stroke:none"
             id="path246" /></g><g
           id="g248"
           transform="translate(264.1797,273.6166)"><path
             d="m 0,0 c 0,-1.877 -0.782,-3.397 -1.746,-3.397 -0.964,0 -1.746,1.52 -1.746,3.397 0,1.876 0.782,3.397 1.746,3.397 C -0.782,3.397 0,1.876 0,0"
             style="fill:#f19800;fill-opacity:1;fill-rule:nonzero;stroke:none"
             id="path250" /></g><g
           id="g252"
           transform="translate(251.7441,279.5717)"><path
             d="m 0,0 c 0,-1.877 -0.782,-3.397 -1.746,-3.397 -0.964,0 -1.746,1.52 -1.746,3.397 0,1.876 0.782,3.397 1.746,3.397 C -0.782,3.397 0,1.876 0,0"
             style="fill:#f19800;fill-opacity:1;fill-rule:nonzero;stroke:none"
             id="path254" /></g><g
           id="g256"
           transform="translate(257.2178,314.0605)"><path
             d="m 0,0 c 0,-1.876 -0.782,-3.397 -1.746,-3.397 -0.964,0 -1.746,1.521 -1.746,3.397 0,1.876 0.782,3.397 1.746,3.397 C -0.782,3.397 0,1.876 0,0"
             style="fill:#f19800;fill-opacity:1;fill-rule:nonzero;stroke:none"
             id="path258" /></g><g
           id="g260"
           transform="translate(270.3193,304.4828)"><path
             d="m 0,0 c 0,-1.876 -0.781,-3.397 -1.746,-3.397 -0.964,0 -1.746,1.521 -1.746,3.397 0,1.876 0.782,3.397 1.746,3.397 C -0.781,3.397 0,1.876 0,0"
             style="fill:#f19800;fill-opacity:1;fill-rule:nonzero;stroke:none"
             id="path262" /></g><g
           id="g264"
           transform="translate(275.0786,313.0698)"><path
             d="m 0,0 c 0,-1.876 -0.782,-3.397 -1.746,-3.397 -0.964,0 -1.746,1.521 -1.746,3.397 0,1.876 0.782,3.397 1.746,3.397 C -0.782,3.397 0,1.876 0,0"
             style="fill:#f19800;fill-opacity:1;fill-rule:nonzero;stroke:none"
             id="path266" /></g><g
           id="g268"
           transform="translate(342.3975,278.895)"><path
             d="m 0,0 c 0,-20.868 -16.917,-37.785 -37.785,-37.785 -20.868,0 -37.785,16.917 -37.785,37.785 0,20.868 16.917,37.784 37.785,37.784 C -16.917,37.784 0,20.868 0,0"
             style="fill:#e76115;fill-opacity:1;fill-rule:nonzero;stroke:none"
             id="path270" /></g><g
           id="g272"
           transform="translate(330.1191,301.5839)"><path
             d="m 0,0 c -6.26,7.032 -15.353,11.486 -25.507,11.486 -8.336,0 -15.968,-2.992 -21.899,-7.95 C -42.349,-0.396 -23.404,-12.825 0,0"
             style="fill:#f6b40e;fill-opacity:1;fill-rule:nonzero;stroke:none"
             id="path274" /></g><g
           id="g276"
           transform="translate(330.1191,301.5839)"><path
             d="m 0,0 c -23.404,-12.825 -42.349,-0.396 -47.406,3.536 -7.499,-6.269 -12.276,-15.687 -12.276,-26.225 0,-18.875 15.301,-34.175 34.175,-34.175 18.874,0 34.175,15.3 34.175,34.175 C 8.668,-13.97 5.375,-6.038 0,0"
             style="fill:#f6b40e;fill-opacity:1;fill-rule:nonzero;stroke:none"
             id="path278" /></g><g
           id="g280"
           transform="translate(314.0869,280.4409)"><path
             d="m 0,0 c 0,-5.232 -4.242,-9.475 -9.475,-9.475 -5.232,0 -9.474,4.243 -9.474,9.475 0,5.232 4.242,9.474 9.474,9.474 C -4.242,9.474 0,5.232 0,0"
             style="fill:#f19800;fill-opacity:1;fill-rule:nonzero;stroke:none"
             id="path282" /></g><g
           id="g284"
           transform="translate(284.21,258.3676)"><path
             d="m 0,0 c -0.588,0.31 0.288,1.997 0.498,2.383 0.996,1.826 2.507,3.494 3.787,5.132 0.665,0.851 1.376,1.737 2.081,2.583 0.69,0.827 1.37,1.799 2.192,2.501 0.269,0.231 1.479,1.347 1.745,0.696 0.236,-0.58 -0.408,-1.451 -0.7,-1.91 C 7.537,8.135 5.114,5.069 2.87,1.939 2.749,1.77 2.627,1.601 2.506,1.431 1.961,0.671 1.136,0.059 0.184,-0.021 0.121,-0.026 0.056,-0.029 0,0"
             style="fill:#f19800;fill-opacity:1;fill-rule:nonzero;stroke:none"
             id="path286" /></g><g
           id="g288"
           transform="translate(303.8623,249.9106)"><path
             d="m 0,0 c -0.655,-0.115 -0.995,1.756 -1.064,2.189 -0.331,2.054 -0.158,4.298 -0.148,6.376 0.005,1.081 0.025,2.216 0.066,3.317 0.039,1.077 -0.019,2.262 0.201,3.319 0.072,0.348 0.345,1.972 0.954,1.619 C 0.552,16.506 0.574,15.423 0.625,14.881 0.98,11.046 0.941,7.14 1.082,3.291 1.09,3.082 1.098,2.874 1.105,2.665 1.14,1.731 0.862,0.742 0.158,0.096 0.112,0.054 0.062,0.011 0,0"
             style="fill:#f19800;fill-opacity:1;fill-rule:nonzero;stroke:none"
             id="path290" /></g><g
           id="g292"
           transform="translate(322.4336,255.9614)"><path
             d="m 0,0 c -0.443,-0.495 -1.866,0.768 -2.188,1.065 -1.528,1.414 -2.776,3.287 -4.05,4.927 -0.663,0.853 -1.348,1.759 -1.996,2.65 -0.634,0.872 -1.411,1.768 -1.89,2.736 -0.157,0.318 -0.944,1.765 -0.248,1.863 0.621,0.087 1.308,-0.751 1.682,-1.146 2.645,-2.798 5.025,-5.896 7.511,-8.837 0.135,-0.16 0.27,-0.32 0.405,-0.479 C -0.171,2.065 0.221,1.116 0.066,0.173 0.056,0.111 0.042,0.047 0,0"
             style="fill:#f19800;fill-opacity:1;fill-rule:nonzero;stroke:none"
             id="path294" /></g><g
           id="g296"
           transform="translate(330.7695,294.9496)"><path
             d="m 0,0 c 0.415,-0.519 -1.063,-1.715 -1.41,-1.984 -1.644,-1.276 -3.695,-2.201 -5.523,-3.19 -0.95,-0.514 -1.956,-1.042 -2.94,-1.535 -0.963,-0.483 -1.976,-1.103 -3.009,-1.417 -0.34,-0.103 -1.895,-0.644 -1.878,0.06 0.016,0.627 0.954,1.167 1.406,1.471 3.193,2.153 6.638,3.993 9.947,5.965 0.179,0.107 0.359,0.214 0.538,0.321 C -2.066,0.169 -1.065,0.4 -0.16,0.093 -0.101,0.073 -0.04,0.049 0,0"
             style="fill:#f19800;fill-opacity:1;fill-rule:nonzero;stroke:none"
             id="path298" /></g><g
           id="g300"
           transform="translate(278.6938,295.7695)"><path
             d="m 0,0 c 0.202,0.633 2.017,0.062 2.433,-0.078 1.971,-0.664 3.876,-1.862 5.711,-2.838 0.953,-0.507 1.949,-1.054 2.905,-1.602 0.935,-0.536 2.01,-1.037 2.843,-1.724 0.275,-0.226 1.584,-1.223 0.989,-1.598 -0.531,-0.333 -1.501,0.151 -2.004,0.359 -3.558,1.47 -6.997,3.323 -10.469,4.99 L 1.844,-2.22 C 1.001,-1.815 0.255,-1.109 0.01,-0.185 -0.005,-0.125 -0.019,-0.06 0,0"
             style="fill:#f19800;fill-opacity:1;fill-rule:nonzero;stroke:none"
             id="path302" /></g><g
           id="g304"
           transform="translate(273.9634,276.2778)"><path
             d="M 0,0 C 0,0 4.388,4.247 16.657,3.304 16.657,3.304 11.419,-0.755 0,0"
             style="fill:#f19800;fill-opacity:1;fill-rule:nonzero;stroke:none"
             id="path306" /></g><g
           id="g308"
           transform="translate(317.7383,275.8012)"><path
             d="m 0,0 c 0,0 5.574,2.496 16.785,-2.574 0,0 -6.307,-2.03 -16.785,2.574"
             style="fill:#f19800;fill-opacity:1;fill-rule:nonzero;stroke:none"
             id="path310" /></g><g
           id="g312"
           transform="translate(300.4355,292.6992)"><path
             d="m 0,0 c 0,0 -0.85,-0.283 -1.416,1.085 0,0 -2.029,5.568 -1.746,7.833 0,0 1.274,2.501 2.406,-1.321 0,0 1.416,-6.653 0.756,-7.597"
             style="fill:#f19800;fill-opacity:1;fill-rule:nonzero;stroke:none"
             id="path314" /></g><g
           id="g316"
           transform="translate(309.8965,292.4277)"><path
             d="m 0,0 c 0,0 0.583,0.23 0.849,0.655 0,0 2.297,4.949 2.199,8.865 0,0 -1.798,1.51 -2.27,0.236 0,0 0.047,-4.047 -0.778,-7.002 0,0 -0.634,-3.153 0,-2.754"
             style="fill:#f19800;fill-opacity:1;fill-rule:nonzero;stroke:none"
             id="path318" /></g><g
           id="g320"
           transform="translate(272.772,286.5883)"><path
             d="m 0,0 c 0,0 4.978,2.442 10.771,-0.92 0,0 1.037,-0.755 -1.251,-1.18 0,0 -6.677,-0.66 -9.272,0.519 0,0 -1.63,1.104 -0.248,1.581"
             style="fill:#f19800;fill-opacity:1;fill-rule:nonzero;stroke:none"
             id="path322" /></g><g
           id="g324"
           transform="translate(326.6875,283.4477)"><path
             d="m 0,0 c 0,0 4.978,2.442 10.77,-0.92 0,0 1.039,-0.755 -1.25,-1.18 0,0 -6.677,-0.661 -9.273,0.519 0,0 -1.63,1.104 -0.247,1.581"
             style="fill:#f19800;fill-opacity:1;fill-rule:nonzero;stroke:none"
             id="path326" /></g><g
           id="g328"
           transform="translate(330.2949,261.8676)"><path
             d="m 0,0 c 0,0 -5.532,0.382 -8.86,6.193 0,0 -0.52,1.174 1.673,0.395 0,0 6.11,-2.775 7.764,-5.096 0,0 0.858,-1.771 -0.577,-1.492"
             style="fill:#f19800;fill-opacity:1;fill-rule:nonzero;stroke:none"
             id="path330" /></g><g
           id="g332"
           transform="translate(313.5273,249.5102)"><path
             d="m 0,0 c 0,0 -3.743,4.09 -2.146,10.594 0,0 0.432,1.209 1.484,-0.868 0,0 2.512,-6.222 2.109,-9.044 0,0 -0.6,-1.875 -1.447,-0.682"
             style="fill:#f19800;fill-opacity:1;fill-rule:nonzero;stroke:none"
             id="path334" /></g><g
           id="g336"
           transform="translate(291.2197,250.6733)"><path
             d="m 0,0 c 0,0 -1.683,4.448 2.465,8.528 0,0 0.893,0.704 0.98,-1.217 0,0 -0.316,-5.504 -1.853,-7.39 0,0 -1.322,-1.12 -1.592,0.079"
             style="fill:#f19800;fill-opacity:1;fill-rule:nonzero;stroke:none"
             id="path338" /></g><g
           id="g340"
           transform="translate(275.9233,266.2787)"><path
             d="m 0,0 c 0,0 2.819,4.822 9.547,5.275 0,0 1.291,-0.045 -0.393,-1.681 0,0 -5.235,-4.294 -8.068,-4.769 0,0 -1.981,0.003 -1.086,1.175"
             style="fill:#f19800;fill-opacity:1;fill-rule:nonzero;stroke:none"
             id="path342" /></g><g
           id="g344"
           transform="translate(344.1318,337.6044)"><path
             d="m 0,0 c -2.743,17.152 -13.448,26.819 -14.643,27.849 -12.565,11.939 -26.929,12.523 -32.878,12.153 -1.709,3.733 -5.245,6.955 -7.421,8.695 3.728,9.403 -0.951,16.367 -4.382,19.056 -2.947,3.758 -6.764,3.205 -8.397,2.372 -2.488,-1.41 -3.524,-4.04 -2.638,-6.699 0.86,-2.583 3.176,-4.001 6.039,-3.699 0.182,0.019 0.338,0.051 0.622,0.128 2.435,-2.982 1.897,-5.857 1.205,-7.526 -2.765,0.777 -5.456,0.872 -7.39,0.787 -0.904,8.602 -8.633,12.668 -10.325,13.458 -2.621,1.905 -6.622,2.196 -9.33,0.676 -1.264,-0.711 -2.192,-1.957 -2.547,-3.417 -0.361,-1.478 -0.103,-3.033 0.707,-4.267 0.904,-1.378 2.357,-2.282 3.987,-2.481 1.508,-0.178 3.007,0.255 4.197,1.222 3.949,-2.161 4.876,-5.131 5.043,-6.927 -8.391,-3.712 -17.671,-12.23 -16.665,-24.301 0.23,-2.754 0.809,-5.253 1.722,-7.425 3.388,-8.06 12.081,-9.588 17.372,-9.729 -0.195,-0.94 -0.289,-1.618 -0.308,-1.757 -3.924,-25.355 12.433,-37.592 13.13,-38.1 10.397,-7.649 20.655,-11.527 30.492,-11.527 h 0.002 c 12.81,0 20.552,6.671 21.374,7.416 C 4.207,-21.547 0.493,-2.24 0,0"
             style="fill:#1e130f;fill-opacity:1;fill-rule:nonzero;stroke:none"
             id="path346" /></g><g
           id="g348"
           transform="translate(270.5762,345.4125)"><path
             d="m 0,0 c 0,0 0.301,2.356 1.13,4.721 0,0 -14.258,-1.674 -18.363,8.093 -0.879,2.092 -1.348,4.414 -1.536,6.665 -0.873,10.469 7.433,18.906 16.635,22.402 0,0 1.322,7.739 -8.021,11.632 -0.091,0.038 -0.826,-0.868 -0.92,-0.955 -1.394,-1.292 -3.607,-1.029 -4.657,0.572 -0.889,1.354 -0.437,3.338 0.976,4.132 1.992,1.12 5.069,0.747 6.819,-0.658 0,0 9.909,-4.153 9.154,-14.062 0,0 5.757,1.133 10.994,-1.062 0,0 5.238,6.866 -1.557,13.378 -0.027,0.026 -1.531,-0.437 -1.676,-0.452 -1.576,-0.165 -2.907,0.49 -3.41,2.002 -0.513,1.543 0.091,2.936 1.5,3.735 0,0 2.878,1.462 5.379,-1.982 0,0 8.918,-6.465 3.068,-18.073 0,0 7.502,-5.096 8.823,-10.569 0,0 18.025,2.831 32.89,-11.325 0,0 11.182,-9.485 13.872,-26.472 0,0 4.522,-19.639 -10.2,-31.671 0,0 -18.532,-18.018 -48.763,4.223 0,0 -15.886,11.571 -12.137,35.726"
             style="fill:#00662f;fill-opacity:1;fill-rule:nonzero;stroke:none"
             id="path350" /></g><g
           id="g352"
           transform="translate(338.9395,335.5776)"><path
             d="M 0,0 C -1.726,15.297 -13.307,25.009 -13.307,25.009 -28.029,38.504 -43.789,35.956 -43.789,35.956 L -52.33,29.869 C -13.023,20.385 -8.966,-26.613 -8.966,-26.613 3.02,-16.515 0,0 0,0"
             style="fill:#e0030a;fill-opacity:1;fill-rule:nonzero;stroke:none"
             id="path354" /></g><g
           id="g356"
           transform="translate(312.2617,358.2753)"><path
             d="M 0,0 C -1.639,-1.639 -4.652,-1.282 -6.731,0.796 -8.81,2.875 -9.166,5.888 -7.527,7.527 -5.889,9.166 -2.875,8.81 -0.796,6.731 1.282,4.652 1.639,1.639 0,0"
             style="fill:#98bf13;fill-opacity:1;fill-rule:nonzero;stroke:none"
             id="path358" /></g><g
           id="g360"
           transform="translate(322.5703,344.8066)"><path
             d="M 0,0 C -1.785,3.092 -1.257,6.739 1.182,8.147 3.619,9.554 7.043,8.189 8.828,5.097 10.613,2.005 10.084,-1.643 7.646,-3.05 5.208,-4.458 1.785,-3.092 0,0"
             style="fill:#98bf13;fill-opacity:1;fill-rule:nonzero;stroke:none"
             id="path362" /></g><g
           id="g364"
           transform="translate(333.125,321.2607)"><path
             d="M 0,0 C -1.844,-0.096 -3.438,1.722 -3.56,4.061 -3.682,6.399 -2.286,8.374 -0.442,8.47 1.402,8.566 2.996,6.749 3.118,4.41 3.24,2.071 1.845,0.097 0,0"
             style="fill:#98bf13;fill-opacity:1;fill-rule:nonzero;stroke:none"
             id="path366" /></g><g
           id="g368"
           transform="translate(308.7402,348.9785)"><path
             d="m 0,0 c -12.552,14.817 -23.499,15.572 -23.499,15.572 -7.545,-6.475 -12.392,-16.771 -11.87,-26.73 0.987,-18.859 17.289,-34.081 35.725,-35.594 4.56,-0.374 10.36,0.247 14.142,3.128 l 0.13,3.61 C 15.76,-18.025 0,0 0,0"
             style="fill:#e0030a;fill-opacity:1;fill-rule:nonzero;stroke:none"
             id="path370" /></g><g
           id="g372"
           transform="translate(287.8887,334.3212)"><path
             d="m 0,0 c -2.633,-0.998 -5.792,0.9 -7.057,4.239 -1.265,3.339 -0.156,6.854 2.476,7.851 2.633,0.998 5.792,-0.9 7.057,-4.239 C 3.74,4.512 2.632,0.998 0,0"
             style="fill:#98bf13;fill-opacity:1;fill-rule:nonzero;stroke:none"
             id="path374" /></g><g
           id="g376"
           transform="translate(304.7383,310.1313)"><path
             d="m 0,0 c -2.547,-1.97 -6.591,-1.007 -9.032,2.149 -2.441,3.157 -2.355,7.312 0.192,9.282 2.548,1.97 6.591,1.007 9.032,-2.149 C 2.633,6.125 2.547,1.97 0,0"
             style="fill:#98bf13;fill-opacity:1;fill-rule:nonzero;stroke:none"
             id="path378" /></g><g
           id="g380"
           transform="translate(305.959,331.7929)"><path
             d="m 0,0 c -2.632,-0.998 -5.792,0.9 -7.057,4.239 -1.264,3.339 -0.156,6.854 2.476,7.851 2.633,0.998 5.792,-0.901 7.058,-4.239 C 3.741,4.512 2.633,0.997 0,0"
             style="fill:#98bf13;fill-opacity:1;fill-rule:nonzero;stroke:none"
             id="path382" /></g><g
           id="g384"
           transform="translate(261.437,371.2441)"><path
             d="m 0,0 c -0.283,-2 -1.578,-3.471 -2.894,-3.285 -1.315,0.186 -2.152,1.958 -1.87,3.958 0.283,1.999 1.578,3.47 2.893,3.284 C -0.555,3.771 0.282,2 0,0"
             style="fill:#00862c;fill-opacity:1;fill-rule:nonzero;stroke:none"
             id="path386" /></g><g
           id="g388"
           transform="translate(273.6021,369.0766)"><path
             d="m 0,0 c -0.282,-2 -1.578,-3.47 -2.894,-3.285 -1.315,0.186 -2.152,1.958 -1.87,3.958 0.283,2 1.578,3.471 2.893,3.285 C -0.555,3.772 0.283,2 0,0"
             style="fill:#00862c;fill-opacity:1;fill-rule:nonzero;stroke:none"
             id="path390" /></g><g
           id="g392"
           transform="translate(267.4146,363.3871)"><path
             d="M 0,0 C -0.102,-0.456 -0.646,-0.949 -0.929,-1.175 -1.5,-1.633 -2.207,-1.906 -2.917,-2.059 -4.69,-2.44 -6.412,-1.894 -7.336,-0.258 -7.647,0.293 -8.174,1.22 -7.779,1.849 c 0.03,0.048 0.069,0.095 0.123,0.113 0.087,0.028 0.178,-0.028 0.24,-0.095 1.045,-1.137 2.749,-1.659 4.258,-1.658 0.764,0 1.524,0.134 2.251,0.364 0.265,0.084 0.769,0.062 0.889,-0.242 C 0.023,0.226 0.025,0.114 0,0"
             style="fill:#00862c;fill-opacity:1;fill-rule:nonzero;stroke:none"
             id="path394" /></g></g></g></g></svg>
