<?xml version="1.0" encoding="UTF-8"?>
<svg id="Capa_1" xmlns="http://www.w3.org/2000/svg" version="1.1" viewBox="0 0 325.8 73">
  <!-- Generator: Adobe Illustrator 29.5.1, SVG Export Plug-In . SVG Version: 2.1.0 Build 141)  -->
  <defs>
    <style>
      .st0 {
        fill: #fff;
      }

      .st1 {
        fill: none;
      }

      .st2 {
        fill: #049839;
      }

      .st3 {
        fill: #1f1310;
      }
    </style>
  </defs>
  <rect class="st1" x="15.3" width="312" height="73"/>
  <g>
    <g id="g10">
      <path id="path12" class="st0" d="M132.8,59.6h6.4v1.3h-5.2v4h5.2v1.3h-5.2v6.3h-1.3v-12.9Z"/>
    </g>
    <g id="g22">
      <path id="path24" class="st0" d="M140.8,62.9h1.3v1.4c.4-.5.8-1,1.2-1.2.4-.3.8-.4,1.3-.4s.7.1,1.1.3l-.6,1c-.3-.1-.5-.2-.6-.2-.4,0-.8.2-1.2.5-.4.3-.7.9-.9,1.6-.2.5-.2,1.6-.2,3.3v3.2h-1.3v-9.5Z"/>
    </g>
    <g id="g26">
      <path id="path28" class="st0" d="M146.5,62.9h1.2v4.4c0,1.1,0,1.8.2,2.2.2.6.5,1,1,1.4.5.3,1.1.5,1.8.5s1.3-.2,1.7-.5c.5-.3.8-.8,1-1.3.1-.4.2-1.1.2-2.3v-4.4h1.3v4.7c0,1.3-.2,2.3-.5,3-.3.7-.8,1.2-1.4,1.6-.6.4-1.4.6-2.3.6s-1.7-.2-2.3-.6c-.6-.4-1.1-.9-1.4-1.6-.3-.7-.5-1.7-.5-3v-4.6Z"/>
    </g>
    <g id="g30">
      <path id="path32" class="st0" d="M158.6,59.4h1.2v3.5h1.9v1.1h-1.9v8.5h-1.2v-8.5h-1.7v-1.1h1.7v-3.5Z"/>
    </g>
    <g id="g34">
      <path id="path36" class="st0" d="M168.2,63.9c-.7,0-1.3.2-1.9.5-.6.3-1,.8-1.4,1.4s-.5,1.2-.5,1.9.2,1.3.5,1.9c.3.6.8,1.1,1.4,1.4.6.3,1.2.5,1.9.5s1.3-.2,1.9-.5c.6-.3,1.1-.8,1.4-1.4.3-.6.5-1.2.5-1.9,0-1.1-.4-2-1.1-2.8-.7-.7-1.6-1.1-2.7-1.1M173.1,62.9v9.5h-1.2v-1.6c-.5.6-1.1,1.1-1.7,1.4-.6.3-1.3.5-2.1.5-1.3,0-2.5-.5-3.4-1.5-1-1-1.4-2.2-1.4-3.6s.5-2.5,1.4-3.5c1-1,2.1-1.5,3.5-1.5s1.5.2,2.1.5c.6.3,1.2.8,1.7,1.5v-1.7h1.2Z"/>
    </g>
  </g>
  <g>
    <g id="g38">
      <path id="path40" class="st0" d="M207.5,71.2h1.5c1.8,0,3-.1,3.7-.3,1-.3,1.7-.9,2.3-1.7.6-.8.8-1.8.8-3s-.3-2.3-.9-3.2c-.6-.9-1.4-1.5-2.5-1.8-.8-.2-2.1-.4-4-.4h-.9v10.4ZM206.3,72.4v-12.9h2.7c1.9,0,3.3.2,4.2.5,1.2.4,2.2,1.2,2.9,2.3.7,1.1,1.1,2.4,1.1,3.9s-.3,2.4-.8,3.4c-.6,1-1.3,1.7-2.2,2.2-.9.5-2.1.7-3.7.7h-4.1Z"/>
    </g>
    <g id="g42">
      <path id="path44" class="st0" d="M227.4,66.7c-.2-.7-.4-1.2-.7-1.6-.3-.4-.7-.7-1.2-.9-.5-.2-1.1-.4-1.6-.4-.9,0-1.7.3-2.4.9-.5.4-.9,1.1-1.1,2h7.1ZM227.4,69.3l1,.5c-.3.7-.7,1.2-1.2,1.6-.4.4-.9.7-1.5.9-.6.2-1.2.3-1.9.3-1.6,0-2.8-.5-3.6-1.5-.9-1-1.3-2.2-1.3-3.4s.4-2.3,1.1-3.2c.9-1.2,2.2-1.8,3.8-1.8s2.9.6,3.9,1.8c.7.9,1,2,1,3.3h-8.6c0,1.1.4,2,1.1,2.7.7.7,1.5,1.1,2.5,1.1s1,0,1.4-.3c.5-.2.8-.4,1.2-.7.3-.3.7-.7,1-1.4"/>
    </g>
    <g id="g46">
      <path id="path48" class="st0" d="M235.8,64l-.8.8c-.7-.6-1.3-1-1.9-1s-.7.1-1,.4c-.3.3-.4.6-.4.9s.1.6.3.9c.2.3.7.6,1.5,1,.9.5,1.5.9,1.9,1.4.3.4.5.9.5,1.5s-.3,1.4-.8,2c-.5.5-1.2.8-2.1.8s-1.1-.1-1.6-.4c-.5-.2-.9-.6-1.2-1l.8-.9c.6.7,1.3,1.1,2,1.1s.9-.2,1.3-.5c.3-.3.5-.7.5-1.1s-.1-.7-.3-.9c-.2-.3-.7-.6-1.5-1-.9-.4-1.4-.9-1.8-1.3-.3-.4-.5-.9-.5-1.5s.2-1.3.7-1.8c.5-.5,1.1-.7,1.9-.7s1.8.4,2.6,1.3"/>
    </g>
    <g id="g50">
      <path id="path52" class="st0" d="M238,59.2h1.2v5.4c.5-.7,1-1.1,1.6-1.5.6-.3,1.2-.5,1.9-.5s1.3.2,1.9.5c.6.4,1,.8,1.2,1.5.3.6.4,1.6.4,2.9v4.9h-1.2v-4.5c0-1.1,0-1.8-.1-2.2-.2-.6-.4-1.1-.8-1.4-.4-.3-.9-.5-1.6-.5s-1.4.2-2,.7c-.6.5-1,1.1-1.2,1.8-.1.5-.2,1.3-.2,2.6v3.5h-1.2v-13.2Z"/>
    </g>
    <path id="path54" class="st0" d="M248.7,62.9h1.2v9.5h-1.2v-9.5ZM249.3,59c.3,0,.5,0,.7.3.2.2.3.4.3.7s0,.5-.3.7c-.2.2-.4.3-.7.3s-.5,0-.7-.3c-.2-.2-.3-.4-.3-.7s0-.5.3-.7c.2-.2.4-.3.7-.3"/>
    <g id="g56">
      <path id="path58" class="st0" d="M257.1,63.9c-.7,0-1.3.2-1.9.5-.6.3-1,.8-1.4,1.4s-.5,1.2-.5,1.9.2,1.3.5,1.9c.3.6.8,1.1,1.4,1.4.6.3,1.2.5,1.9.5s1.3-.2,1.9-.5c.6-.3,1.1-.8,1.4-1.4.3-.6.5-1.2.5-1.9,0-1.1-.4-2-1.1-2.8-.7-.7-1.6-1.1-2.7-1.1M262,59.2v13.2h-1.2v-1.6c-.5.6-1.1,1.1-1.7,1.4-.6.3-1.3.5-2.1.5-1.3,0-2.5-.5-3.4-1.5-1-1-1.4-2.2-1.4-3.6s.5-2.5,1.4-3.5c1-1,2.1-1.5,3.5-1.5s1.5.2,2.1.5c.6.3,1.2.8,1.7,1.5v-5.4h1.2Z"/>
    </g>
    <g id="g60">
      <path id="path62" class="st0" d="M264.3,62.9h1.3v1.4c.4-.5.8-1,1.2-1.2.4-.3.8-.4,1.3-.4s.7.1,1.1.3l-.6,1c-.3-.1-.5-.2-.6-.2-.4,0-.8.2-1.2.5-.4.3-.7.9-.9,1.6-.2.5-.2,1.6-.2,3.3v3.2h-1.3v-9.5Z"/>
    </g>
    <g id="g64">
      <path id="path66" class="st0" d="M274.7,63.9c-.7,0-1.3.2-1.9.5-.6.3-1,.8-1.4,1.4-.3.6-.5,1.2-.5,1.9s.2,1.3.5,1.9c.3.6.8,1.1,1.4,1.4.6.3,1.2.5,1.9.5s1.3-.2,1.9-.5c.6-.3,1.1-.8,1.4-1.4.3-.6.5-1.2.5-1.9,0-1.1-.4-2-1.1-2.8-.7-.7-1.6-1.1-2.7-1.1M279.6,62.9v9.5h-1.2v-1.6c-.5.6-1.1,1.1-1.7,1.4-.6.3-1.3.5-2.1.5-1.3,0-2.5-.5-3.4-1.5-1-1-1.4-2.2-1.4-3.6s.5-2.5,1.4-3.5c1-1,2.1-1.5,3.5-1.5s1.5.2,2.1.5c.6.3,1.2.8,1.7,1.5v-1.7h1.2Z"/>
    </g>
    <g id="g68">
      <path id="path70" class="st0" d="M283.5,59.4h1.2v3.5h1.9v1.1h-1.9v8.5h-1.2v-8.5h-1.7v-1.1h1.7v-3.5Z"/>
    </g>
    <g id="g72">
      <path id="path74" class="st0" d="M293,63.9c-.7,0-1.3.2-1.9.5-.6.3-1,.8-1.4,1.4-.3.6-.5,1.2-.5,1.9s.2,1.3.5,1.9c.3.6.8,1.1,1.4,1.4.6.3,1.2.5,1.9.5s1.3-.2,1.9-.5c.6-.3,1.1-.8,1.4-1.4.3-.6.5-1.2.5-1.9,0-1.1-.4-2-1.1-2.8-.7-.7-1.6-1.1-2.7-1.1M297.9,62.9v9.5h-1.2v-1.6c-.5.6-1.1,1.1-1.7,1.4-.6.3-1.3.5-2.1.5-1.3,0-2.5-.5-3.4-1.5-1-1-1.4-2.2-1.4-3.6s.5-2.5,1.4-3.5c1-1,2.1-1.5,3.5-1.5s1.5.2,2.1.5c.6.3,1.2.8,1.7,1.5v-1.7h1.2Z"/>
    </g>
    <g id="g76">
      <path id="path78" class="st0" d="M305.3,63.9c-.7,0-1.3.2-1.9.5-.6.3-1,.8-1.4,1.4-.3.6-.5,1.2-.5,1.9s.2,1.3.5,1.9c.3.6.8,1.1,1.4,1.4.6.3,1.2.5,1.9.5s1.3-.2,1.9-.5c.6-.3,1.1-.8,1.4-1.4.3-.6.5-1.2.5-1.9,0-1.1-.4-2-1.1-2.8-.7-.7-1.6-1.1-2.7-1.1M310.2,59.2v13.2h-1.2v-1.6c-.5.6-1.1,1.1-1.7,1.4-.6.3-1.3.5-2.1.5-1.3,0-2.5-.5-3.4-1.5-1-1-1.4-2.2-1.4-3.6s.5-2.5,1.4-3.5c1-1,2.1-1.5,3.5-1.5s1.5.2,2.1.5c.6.3,1.2.8,1.7,1.5v-5.4h1.2Z"/>
    </g>
    <g id="g80">
      <path id="path82" class="st0" d="M317.5,63.9c-.7,0-1.3.2-1.9.5-.6.3-1,.8-1.4,1.4-.3.6-.5,1.2-.5,1.9s.2,1.3.5,1.9c.3.6.8,1.1,1.4,1.4.6.3,1.2.5,1.9.5s1.3-.2,1.9-.5c.6-.3,1.1-.8,1.4-1.4.3-.6.5-1.2.5-1.9,0-1.1-.4-2-1.1-2.8-.7-.7-1.6-1.1-2.7-1.1M322.4,62.9v9.5h-1.2v-1.6c-.5.6-1.1,1.1-1.7,1.4-.6.3-1.3.5-2.1.5-1.3,0-2.5-.5-3.4-1.5-1-1-1.4-2.2-1.4-3.6s.5-2.5,1.4-3.5c1-1,2.1-1.5,3.5-1.5s1.5.2,2.1.5c.6.3,1.2.8,1.7,1.5v-1.7h1.2Z"/>
    </g>
  </g>
  <g>
    <g id="g84">
      <path id="path86" class="st3" d="M50.9,52.7c.9-.6,1.6-1.6,2.1-3,.5-1.4.7-3,.6-4.9l-1.4-26.7c0-.7-.4-1.1-1.1-1.2-.7,0-1.1.2-1.4.8l-10.8,27.1c-.2.7-.5,1.3-.6,2h0v.2l2.2,5.1c.2.4.2.8,0,1.2-.2.4-.6.6-1.1.6h-9.8c-.5,0-.9-.3-1.2-.8h0c0-.1-3.6-8.3-3.6-8.3l-11.1-25.1c-.2-.6-.7-.9-1.4-.8-.7.1-1,.5-1,1.2l-.9,24.7c0,1.8.1,3.4.6,4.9.5,1.4,1.2,2.4,2.2,2.9.5.3.7.8.7,1.4H2.3c0-.6.3-1,.8-1.4.9-.5,1.7-1.5,2.3-2.9.6-1.4,1-3,1-4.9l1.3-33.7c0-1.7-.2-3.3-.6-4.7-1.2-1.5-2.5-2.6-3.7-3.2-.6-.3-1.1-.7-1.3-1.3h20.3c.3.6.2,1-.1,1.3-.7.5-1,1.5-1,2.9,0,1.4.4,3,1.2,4.8l13.1,29.8c.1.3.4.4.6.4s.5-.1.6-.4l11.7-29.7c.6-1.6,1-3,1-4.4,0-1.3-.2-2.3-.7-3-.2-.1-.4-.3-.5-.4-.5-.3-.8-.7-.9-1.3h20.4c0,.6-.2,1-.7,1.3-.9.6-1.5,1.6-2,3-.5,1.4-.7,3-.6,4.8l1.9,33.9c0,1.8.5,3.4,1.1,4.8.6,1.4,1.4,2.4,2.4,3,.5.3.8.7.8,1.3h-20.3c0-.6.2-1,.6-1.3"/>
    </g>
    <g id="g88">
      <path id="path90" class="st3" d="M21,1.7s0,0,0,0c0,0,0,0,0,0M51.7,18.5h0s0,0,0,0M13.3,20.2h0s0,0,0,0M6.5,52h3.3c-.3-.5-.5-1-.7-1.5-.4-1.2-.7-2.5-.8-3.9-.2,1.5-.6,2.8-1.1,4-.2.5-.5,1-.8,1.4M30.1,52h8.2l-1.8-4.1c-.1-.3-.2-.5-.2-.8v-.2c0-.2,0-.4,0-.6.2-.7.4-1.4.7-2.1l.5-1.3c-.4.3-.9.4-1.4.4-1.1,0-2-.6-2.5-1.6,0,0,0,0,0,0l-13.1-29.8c-.9-2-1.3-3.9-1.4-5.6,0-.8,0-1.6.2-2.2H7.6c.3.3.7.7,1,1.1.2.2.3.4.3.6.6,1.6.8,3.4.8,5.4l-.3,7.9c.4-1.1,1.3-1.8,2.5-2.1,1.6-.3,3,.5,3.6,2l14.5,33ZM54.2,52h12.1c-.3-.4-.5-.9-.8-1.4-.8-1.6-1.2-3.5-1.3-5.5l-1.9-33.9c-.1-2,.1-3.9.7-5.6.2-.6.4-1.1.7-1.6h-12.6c.2.8.3,1.7.3,2.7,0,1.6-.4,3.3-1.1,5.1l-1.5,3.8c.7-.5,1.6-.8,2.5-.6,1.6.2,2.7,1.4,2.8,3.1l1.4,26.7c.1,2.1-.1,4-.7,5.6-.2.6-.4,1.1-.7,1.6M30.2,52.3h0s0,0,0,0M38.7,53s0,0,0,0h0ZM70.6,56h-20.3c-1.1,0-1.9-.8-2-1.9-.1-1.3.5-2.5,1.6-3.2.5-.3.9-1,1.3-1.9.4-1.2.6-2.5.5-4.1l-1.3-23.2-9.5,23.9c-.1.4-.3.8-.4,1.3l2,4.5c.5,1,.4,2.2-.2,3.1-.6,1-1.6,1.5-2.8,1.5h-9.8c-1.3,0-2.4-.7-3-2h0c0-.1,0-.1,0-.2l-3.6-8.2-9.7-21.9-.8,21.2c0,1.6,0,2.9.5,4.1.4.9.8,1.6,1.3,1.9,0,0,.1,0,.1,0,1,.7,1.6,1.8,1.6,3s-.9,2-2,2H2.3c-1.1,0-2-.9-2-2s.6-2.4,1.7-3.1c0,0,0,0,0,0,.5-.3,1-1,1.5-2,.5-1.2.8-2.5.9-4.1l1.3-33.7c0-1.3-.1-2.5-.4-3.6-1-1.1-1.9-1.9-2.8-2.3-1.1-.5-1.9-1.3-2.3-2.4C-.1,2.2,0,1.5.3.9c.4-.6,1-.9,1.7-.9h20.3c.8,0,1.5.4,1.8,1.1.9,1.8.2,3.2-.7,3.8,0,0,0,0,0,0,0,0-.2.3-.2,1.2,0,1.1.4,2.5,1,4l11.8,26.7,10.5-26.6c.5-1.4.8-2.6.9-3.7,0-.9,0-1.3-.2-1.5,0,0,0,0,0,0-1.1-.6-1.7-1.6-1.8-2.9,0-.6.1-1.1.5-1.5C46.3.2,46.8,0,47.4,0h20.4C68.9,0,69.8.9,69.8,2s-.6,2.3-1.6,3c-.5.3-.9,1-1.2,2-.4,1.2-.6,2.5-.5,4l1.9,33.9c0,1.5.4,2.9.9,4,.5,1,1,1.7,1.6,2.1,1.1.6,1.8,1.7,1.8,3s-.9,2-2,2"/>
    </g>
    <g id="g92">
      <path id="path94" class="st3" d="M92.4,48.5v-10.8c0-.4-.2-.8-.5-1-.3-.2-.7-.3-1-.3-1.1.2-1.9.4-2.6.5-.7.2-1.5.4-2.4.8-.9.4-1.7.9-2.3,1.7-.6.7-1.1,1.6-1.4,2.6-.4,1.5-.4,2.8.2,4,.6,1.2,1.4,2,2.6,2.5,1.2.5,2.4.8,3.8.9,1.4,0,2.6-.2,3.8-.9M106.9,49.8c1.4,0,2.7-.3,3.7-1,0,1.2-.8,2.3-2,3.4-1.2,1.1-2.7,1.7-4.5,2.1-.8.1-1.6.2-2.4.2h-.3c-1.1,0-2.3-.1-3.3-.4-1.1-.3-2.2-.8-3.1-1.5-.9-.7-1.6-1.4-2.1-2.2l-.2.2c-.1.1-.2.3-.3.4-.9.9-2.1,1.7-3.5,2.2-1.4.6-2.9.9-4.4,1.1-1.5.1-3.1.1-4.7,0-1.6-.2-3.1-.6-4.3-1.1-1.3-.6-2.4-1.3-3.4-2.2-1-.9-1.6-2-1.8-3.2-.2-1.3,0-2.7.4-4.2.6-1.6,1.5-2.9,2.8-4,1.3-1.1,2.8-1.9,4.5-2.5,1.7-.5,3.3-1,4.9-1.3,1.5-.3,3.2-.5,4.9-.8,1.7-.2,3-.4,3.8-.6.6-.1.9-.6.9-1.2v-7.9c0-1.2-.7-2.1-2.2-2.6-1.8-.7-3.4-.2-4.7,1.3-.8,1-1.4,2.3-1.7,4-.1.9-.4,1.7-.6,2.4-.3.7-.6,1.3-.9,1.8-.3.5-.8.9-1.4,1.1-.6.3-1.1.5-1.5.7-.4.2-1,.3-1.9.4-.9,0-1.5.1-2,.1s-1.3,0-2.3,0c-1.1,0-1.9,0-2.4,0,.2-2.5.6-4.3.9-5.5.6-1.6,1.5-3,2.7-4.1,1.2-1.2,2.6-2.1,4.2-2.7,1.6-.6,3.3-1.1,5-1.4,1.7-.3,3.5-.4,5.5-.4s4.9.3,7,.8c2.1.5,4,1.4,5.5,2.7,1.5,1.3,2.3,2.9,2.4,4.8h0v18.9c0,.8.2,1.4.6,1.9.4.4,1.1.6,2.2.6"/>
    </g>
    <g id="g96">
      <path id="path98" class="st3" d="M73.1,32.2c0,0,.1,0,.2,0,1.1,0,1.8,0,2.3,0s1,0,1.8-.1c1,0,1.3-.2,1.3-.2.4-.2.9-.4,1.4-.6.3-.1.4-.3.5-.4.2-.4.5-.9.7-1.4.2-.5.4-1.2.5-1.9.4-2.1,1.1-3.7,2.1-5,0,0,0,0,.1-.1,0,0,0,0-.1,0-1.6.3-3.1.7-4.6,1.3-1.4.5-2.6,1.3-3.6,2.3-1,1-1.7,2.1-2.2,3.4-.2.6-.4,1.6-.6,2.8M91,32.3s0,0,0,0c0,0,0,0,0,0M88.6,24.3c-.6,0-1,.3-1.5.9-.6.7-1,1.7-1.2,3-.2,1-.4,2-.8,2.8-.3.8-.7,1.5-1.1,2.1,0,.1-.1.2-.2.3,1.1-.2,2.3-.4,3.6-.5,1.2-.2,2.2-.3,2.9-.4v-7.3c0-.1,0-.4-.8-.7-.3-.1-.6-.2-.9-.2M90.4,38.6c-.6.1-1.2.2-1.6.3-.6.1-1.3.4-2.1.7-.6.3-1.2.6-1.6,1.1-.4.5-.8,1.2-1,1.9-.3.9-.2,1.8,0,2.5.3.7.8,1.2,1.5,1.5,1,.4,2,.6,3.2.7.6,0,1.1,0,1.6-.2v-8.6ZM82.2,37.9c-1.2.3-2.4.6-3.7,1-1.4.5-2.7,1.2-3.8,2.1-1,.9-1.8,1.9-2.2,3.2-.4,1.2-.5,2.2-.3,3.1.2.8.5,1.5,1.2,2.1.8.7,1.8,1.4,2.9,1.9,1.1.5,2.3.8,3.7,1,1.5.2,2.9.2,4.3,0,1.2-.1,2.4-.4,3.5-.8-1.3-.1-2.6-.5-3.8-1-1.7-.7-2.9-1.9-3.7-3.6-.8-1.6-.9-3.5-.3-5.4.4-1.3,1.1-2.4,1.9-3.4,0,0,.2-.2.3-.3M94.4,49c0,0,.2.2.2.3.3.5.9,1.1,1.6,1.6.7.5,1.5.9,2.4,1.1.9.2,1.8.3,2.8.3h.3c.6,0,1.3,0,2-.2.6-.1,1.2-.3,1.8-.5-1-.2-1.8-.6-2.4-1.2-.7-.8-1.1-1.9-1.1-3.2v-18.8c0-1.3-.6-2.4-1.7-3.3-1.3-1.1-2.9-1.9-4.7-2.3-.7-.2-1.5-.3-2.3-.4.8,1,1,2.1,1,2.8v7.9c0,1-.3,1.8-.9,2.4.6.6.9,1.4.9,2.3v10.8c0,.2,0,.3,0,.5M101.7,56.5h-.3c-1.3,0-2.6-.1-3.8-.4-1.4-.4-2.7-1-3.9-1.8-.4-.3-.7-.6-1-.9-.9.7-1.9,1.3-3.1,1.7-1.6.6-3.3,1.1-5,1.2-1.7.2-3.4.1-5.1,0-1.8-.2-3.5-.6-5-1.3-1.5-.7-2.8-1.5-3.9-2.6-1.3-1.2-2.1-2.7-2.5-4.4-.3-1.6-.1-3.4.5-5.2.7-1.9,1.8-3.6,3.4-4.9.7-.6,1.4-1.1,2.2-1.5-.3,0-.7,0-1.1,0-1.1,0-1.8,0-2.4,0s-1.1-.2-1.5-.7c-.4-.4-.6-1-.5-1.6.3-2.7.6-4.6,1-6,.7-1.9,1.8-3.6,3.2-5,1.4-1.4,3-2.4,4.9-3.2,1.8-.7,3.6-1.2,5.4-1.5,1.8-.3,3.8-.5,5.8-.5s5.2.3,7.5.9c2.4.6,4.6,1.7,6.3,3.1,2,1.7,3,3.8,3.2,6.3,0,0,0,0,0,.1v18.9c0,.2,0,.3,0,.4.1,0,.4,0,.7,0,1,0,1.9-.2,2.5-.7.6-.4,1.5-.5,2.2,0,.7.4,1.1,1.1,1,1.9-.1,1.7-1,3.3-2.7,4.8-1.5,1.3-3.3,2.1-5.4,2.5-1,.2-1.9.3-2.8.3"/>
    </g>
    <g id="g100">
      <path id="path102" class="st3" d="M140.8,27.1h0c0,1.3-.3,2.4-1,3.4-.6,1-1.5,1.7-2.6,2-1.2.4-2.4.4-3.5,0-1.1-.3-2-.9-2.7-1.8-.7-.9-1.1-1.8-1.1-2.9v-.5c0-1.2.3-2.3,1-3.2.2-.3.4-.5.6-.7h0c0-.2.2-.2.2-.3.6-.5,1.3-.8,2-1,0,0,0,0,.1,0-1.5.2-2.9.7-4.2,1.6-1.3.9-2.4,1.8-3.2,2.9-.8,1.1-1.5,2-1.9,2.9-.5.9-.7,1.5-.8,1.9v13.5c0,1.8.3,3.4.9,4.8.6,1.4,1.3,2.4,2.2,2.9.5.3.8.8.8,1.4h-19.5c0-.6.2-1,.7-1.4,1-.5,1.7-1.5,2.3-2.9.6-1.4.9-3,.9-4.9v-18.3c0-.3-.1-.6-.4-.9-.2-.3-.6-.4-.9-.4h-2.6c0-.5.2-1,.6-1.4.4-.4.9-.6,1.4-.7,1.9-.1,3.8-.4,5.8-.7,2-.3,3.8-.8,5.4-1.3,1.6-.6,2.4-1.1,2.4-1.7v2.7c-.7.6-1.3,1.3-1.8,2-.3.4-.5.8-.7,1.1-.2.3-.4.7-.5,1-.1.4-.3.7-.3,1,0,.3-.1.6-.2.9,0,.3-.1.6-.1.8s0,.4,0,.6c0,.2,0,.3,0,.4h0c.4-1.1,1.3-2.5,2.7-4.2.2-.3.5-.6.7-.9,0,0,0,0,0,0,.2-.2.3-.3.3-.4,2.3-2.4,4.7-4,7.4-4.8,2.5-.7,4.8-.4,6.7,1,1.8,1.4,2.8,3.5,2.9,6.4"/>
    </g>
    <g id="g104">
      <path id="path106" class="st3" d="M135.2,23.6h0s0,0,0,0ZM131.9,27.8c0,.7.3,1.3.7,1.8.4.5,1,.9,1.7,1.1.7.2,1.4.2,2.3,0,.6-.2,1.1-.6,1.5-1.2.4-.6.6-1.4.6-2.2h0c0-2.3-.8-3.9-2.1-4.9-.2-.2-.5-.3-.7-.4,0,0,0,0,0,0,0,.9-.4,1.7-1.2,2-.1,0-.3.1-.4.2-.4.1-.8.3-1.2.6l-.2.2c0,0-.1.1-.2.1,0,0-.2.1-.2.3-.5.7-.7,1.3-.7,2.1v.4ZM112.4,52h11.1c-.3-.4-.5-.9-.7-1.5-.7-1.7-1-3.5-1-5.5v-13.5c0,0,0-.1,0-.2-.4.7-1.2,1-2,.9-1-.2-1.7-1-1.7-2h0c0-.3,0-.5,0-.8,0,0,0-.2,0-.3,0-.4,0-.8.2-1.3,0-.3.1-.6.2-.9,0-.4.2-.9.4-1.3.2-.4.4-.9.6-1.3,0-.1.2-.3.3-.5-1.1.3-2.3.5-3.5.7-.9.1-1.8.3-2.7.4.3.5.5,1.1.5,1.7v18.3c0,2.1-.3,4-1,5.6-.2.5-.5,1-.7,1.5M127.7,56h-19.5c-1.1,0-2-.9-2-2s.6-2.3,1.6-3c0,0,.1,0,.2-.1.5-.3,1-.9,1.4-1.9.5-1.2.7-2.5.7-4.1v-17.6h-1.8c-1.1,0-2-.9-2-2s.4-2,1.1-2.8c.7-.8,1.7-1.2,2.8-1.3,1.8-.1,3.7-.4,5.6-.7,1.8-.3,3.5-.7,5-1.2.7-.2,1-.4,1.2-.5.3-.8,1-1.3,1.9-1.3s2,.9,2,2v.6c1.5-1,3.1-1.8,4.8-2.3,3.2-.9,6-.5,8.4,1.3,2.4,1.8,3.6,4.5,3.7,8,0,0,0,0,0,0h0c0,1.7-.4,3.2-1.3,4.5-.9,1.4-2.1,2.3-3.7,2.9-1.7.5-3.3.6-4.8,0-1.5-.5-2.7-1.3-3.7-2.4-.9-1.2-1.4-2.5-1.6-3.9-.6.8-1.1,1.6-1.5,2.2-.4.7-.5,1-.5,1.1v13.3c0,1.5.2,2.9.7,4,.4,1,.9,1.6,1.4,1.9,0,0,0,0,0,0,1.1.7,1.7,1.8,1.7,3.1s-.9,2-2,2"/>
    </g>
    <g id="g108">
      <path id="path110" class="st3" d="M140.8,52.7c1-.6,1.7-1.6,2.3-3,.6-1.4.9-3,.9-4.9v-17.8c0-.3-.1-.6-.4-.9-.2-.3-.6-.4-.9-.4h-2.6c0-.5.2-1,.6-1.4.4-.4.9-.6,1.4-.6,3.1-.2,6.1-.7,9.1-1.4,3-.7,4.5-1.5,4.5-2.3v24.9c0,1.8.3,3.4.9,4.9.6,1.4,1.3,2.4,2.2,3,.5.3.8.7.8,1.3h-19.5c0-.6.2-1,.7-1.3"/>
    </g>
    <g id="g112">
      <path id="path114" class="st3" d="M144.3,52h11.1c-.3-.4-.5-.9-.7-1.5-.7-1.7-1-3.5-1-5.6v-21.1c-.6.2-1.3.4-2,.5-2,.5-4.1.8-6.1,1.1.3.5.5,1.1.5,1.7v17.8c0,2.1-.3,4-1,5.6-.2.5-.5,1-.7,1.5M159.6,56h-19.5c-1.1,0-2-.9-2-2s.6-2.4,1.7-3c0,0,0,0,0,0,.6-.3,1.1-1,1.5-2,.5-1.2.7-2.5.7-4.1v-17h-1.8c-1.1,0-2-.9-2-2s.4-2,1.1-2.8c.8-.8,1.7-1.3,2.9-1.3,2.9-.2,5.9-.7,8.7-1.4,1.9-.4,2.7-.8,3-1,.3-.8,1-1.4,1.9-1.4s2,.9,2,2v24.9c0,1.5.2,2.9.7,4.1.4,1,.9,1.7,1.4,2,1.1.6,1.8,1.8,1.8,3s-.9,2-2,2"/>
    </g>
    <g id="g116">
      <path id="path118" class="st3" d="M153.6,17.8s1-3.6,4.9-5.9c0,0-2-1.2-4.3-.5,0,0,1.1-3.8,3.8-6.7,0,0-5,.3-6.8,3.3,0,0-.3-4.2-1.8-5.9-1.4,1.8-1.8,5.9-1.8,5.9-1.8-3.1-6.8-3.3-6.8-3.3,2.6,2.9,3.8,6.7,3.8,6.7-2.3-.7-4.3.5-4.3.5,3.9,2.3,4.9,5.9,4.9,5.9,0,0,5-1,8.4,0"/>
    </g>
    <g id="g120">
      <path id="path122" class="st3" d="M145.1,13.4c.6.8,1.1,1.5,1.4,2.2,1.5-.2,3.8-.4,5.9,0,.3-.6.8-1.3,1.4-2.1-.4,0-.7-.3-1-.5-.5-.5-.7-1.3-.5-2,0,0,.2-.6.6-1.5-.5.6-1.3.9-2.1.7-.6-.1-1-.5-1.3-1-.3.5-.7.8-1.3,1-.8.2-1.6-.1-2.1-.7.4.9.5,1.5.6,1.5.2.7,0,1.5-.5,2-.3.3-.6.5-1,.5M145.2,19.8c-.9,0-1.7-.6-2-1.5,0-.1-.9-2.9-4-4.7-.6-.4-1-1-1-1.7,0-.7.4-1.4,1-1.8.2,0,1-.6,2.3-.8-.5-1-1.3-2.2-2.2-3.2-.6-.6-.7-1.5-.3-2.2.4-.7,1.1-1.2,2-1.2.4,0,3,.2,5.3,1.5.3-1.2.8-2.4,1.5-3.3.4-.5,1-.8,1.6-.8s1.2.3,1.6.8c.7.9,1.2,2.1,1.5,3.3,2.3-1.3,4.9-1.4,5.3-1.5.8,0,1.6.4,2,1.2.4.7.2,1.6-.3,2.2-.9,1-1.6,2.2-2.2,3.2,1.3.3,2.1.7,2.3.8.6.4,1,1,1,1.8,0,.7-.4,1.4-1,1.7-3.1,1.8-4,4.6-4,4.7-.2.5-.5,1-1,1.2-.5.3-1,.3-1.6.2-2.4-.7-6.2-.2-7.4,0-.1,0-.3,0-.4,0"/>
    </g>
    <g id="g124">
      <path id="path126" class="st3" d="M253.4,17.8s1-3.6,4.9-5.9c0,0-2-1.2-4.3-.5,0,0,1.1-3.8,3.8-6.7,0,0-5,.3-6.8,3.3,0,0-.3-4.2-1.8-5.9-1.4,1.8-1.8,5.9-1.8,5.9-1.8-3.1-6.8-3.3-6.8-3.3,2.6,2.9,3.8,6.7,3.8,6.7-2.3-.7-4.3.5-4.3.5,3.9,2.3,4.9,5.9,4.9,5.9,0,0,5-1,8.4,0"/>
    </g>
    <g id="g128">
      <path id="path130" class="st3" d="M244.9,13.4c.6.8,1.1,1.5,1.4,2.2,1.5-.2,3.8-.4,5.9,0,.3-.6.8-1.3,1.4-2.1-.4,0-.7-.3-1-.5-.5-.5-.7-1.3-.5-2,0,0,.2-.6.6-1.5-.5.6-1.3.9-2.1.7-.6-.1-1-.5-1.3-1-.3.5-.7.8-1.3,1-.8.2-1.6-.1-2.1-.7.4.9.5,1.5.6,1.5.2.7,0,1.5-.5,2-.3.3-.6.5-1,.5M245,19.8c-.9,0-1.7-.6-2-1.5,0-.1-.9-2.9-4-4.7-.6-.4-1-1-1-1.7,0-.7.4-1.4,1-1.8.2,0,1-.6,2.3-.8-.5-1-1.3-2.2-2.2-3.2-.6-.6-.7-1.5-.3-2.2.4-.7,1.1-1.2,2-1.2.4,0,3,.2,5.3,1.5.3-1.2.8-2.4,1.5-3.3.4-.5,1-.8,1.6-.8s1.2.3,1.6.8c.7.9,1.2,2.1,1.5,3.3,2.3-1.3,4.9-1.4,5.3-1.5.8,0,1.6.4,2,1.2.4.7.2,1.6-.3,2.2-.9,1-1.6,2.2-2.2,3.2,1.3.3,2.1.7,2.3.8.6.4,1,1,1,1.8,0,.7-.4,1.4-1,1.7-3.1,1.8-4,4.6-4,4.7-.2.5-.5,1-1,1.2-.5.3-1,.3-1.6.2-2.4-.7-6.2-.2-7.4,0-.1,0-.3,0-.4,0"/>
    </g>
    <g id="g132">
      <path id="path134" class="st3" d="M183.5,42.8v-13.3c0-2-.6-3.6-1.7-4.7-.1-.1-.3-.2-.4-.3-.5-.4-1.1-.7-1.6-.9-.4,0-.8-.1-1.1-.1-1.3,0-2.6.7-3.8,2-1.2,1.3-2.2,3-3,5.2s-1.1,4.3-1.1,6.4c0,3.4.7,6.2,2.1,8.6,1.4,2.3,3.1,3.5,5,3.5s3.2-.9,4.5-2.6c.8-1.1,1.2-2.3,1.2-3.7M198.4,69.6c.5.3.7.7.7,1.4h-19.4c0-.6.2-1.1.7-1.4.9-.5,1.7-1.5,2.2-2.9.6-1.4.9-3,.9-4.8v-9.3c2-2.1,3.8-5.4,5.5-10-1.1,2.8-2.9,5.3-5.5,7.4-.5.4-1.1.9-1.7,1.3-3.2,2.2-6.5,3.2-9.8,3.2s-7.3-1.7-9.5-5c-2.2-3.3-3.3-7.5-3.3-12.6s1.4-9.1,4.1-12.5,6.2-5.1,10.4-5.1h.6c1.6,0,2.7.2,3.3.4h0c.6.1,1.6.4,2.9.8,1.3.4,2.3.6,3,.8,2.4.6,4.4.9,6,.9s2.3-.1,3.2-.4h0c.1,0,.3,0,.4-.1.2,0,.5-.2.7-.3,0,0,.2,0,.2-.1.3-.1.5-.3.7-.5,0,0,0,0,.1,0,0,0,0,0,0-.1,0,0,0,0,.1-.1h0c0,0,0,0,0-.1v-.2,41.8c0,1.5.2,2.9.7,4.2.3.9.6,1.6,1,2.2.4.6.9,1.1,1.4,1.4"/>
    </g>
    <g id="g136">
      <path id="path138" class="st3" d="M192.7,19.8h0s0,0,0,0c0,0,0,0,0,0M193,20.5h0s0,0,0,0ZM180.5,26.3s0,0,0,0c0,0,0,0,0,0M178.7,25.5c-.7,0-1.5.4-2.3,1.3-1,1.1-1.9,2.6-2.6,4.5-.7,1.9-1,3.8-1,5.7,0,3,.6,5.5,1.8,7.5,1.5,2.5,2.8,2.5,3.3,2.5s1.5,0,2.8-1.8c.5-.7.7-1.5.7-2.5v-13.3c0-1.5-.4-2.5-1.1-3.3,0,0,0,0,0,0,0,0-.1,0-.2-.1-.3-.2-.6-.4-.8-.5-.2,0-.4,0-.6,0M173.5,21.5c-3.6,0-6.5,1.4-8.8,4.3-2.4,3-3.6,6.7-3.6,11.2s1,8.5,3,11.4c1.8,2.7,4.4,4.1,7.8,4.1s4.1-.5,6.1-1.4c-1.9,0-4.6-.7-6.9-4.5-1.6-2.7-2.4-5.9-2.4-9.6s.4-4.8,1.3-7.1c.9-2.4,2-4.4,3.4-5.9,1-1.1,2.1-1.9,3.2-2.3-.4,0-1.1-.2-2.6-.2h-.6ZM183.8,68.9h11.2c-.4-.6-.7-1.4-1-2.2-.5-1.5-.8-3.1-.8-4.9V23.8c0,0-.1,0-.2,0-2.4.7-5.4.6-9.7-.4,1.5,1.5,2.2,3.6,2.2,6.1v13.3c0,.9-.1,1.8-.4,2.6.8-1.1,1.4-2.2,1.9-3.4.4-1,1.6-1.6,2.6-1.2,1,.4,1.6,1.6,1.2,2.6-1.6,4.5-3.4,7.8-5.3,10.1v8.5c0,2-.3,3.9-1,5.5-.2.5-.5,1-.7,1.5M199.1,73h-19.4c-1.1,0-2-.9-2-2s.6-2.5,1.7-3.1c.5-.3,1-1,1.4-1.9.5-1.2.7-2.5.7-4v-8c-3.1,1.8-6.3,2.7-9.5,2.7-4.8,0-8.6-2-11.2-5.9-2.4-3.6-3.7-8.2-3.7-13.7s1.5-10,4.5-13.7c3.1-3.9,7.1-5.8,12-5.8h.6s0,0,.1,0c2.1.1,3,.3,3.5.4,0,0,.2,0,.2,0,.6.1,1.6.4,3,.8,1.3.3,2.3.6,2.9.7,2.3.5,4.1.8,5.5.8s1.8-.1,2.5-.3c0,0,.2,0,.3,0l.6-.2c0,0,.2-.1.3-.2,0,0,.1,0,.1,0,.3-.8,1-1.4,1.9-1.4s2,.9,2,2v41.8c0,1.3.2,2.5.6,3.5.3.8.5,1.3.8,1.7.2.3.5.6.7.7,0,0,0,0,0,0,1.1.7,1.7,1.8,1.7,3.1s-.9,2-2,2"/>
    </g>
    <g id="g140">
      <path id="path142" class="st3" d="M238,48.1h2.6c0,1.1-.3,1.9-.9,2.5-.6.6-1.7.9-3.3.9s-4.5.3-7.1.8c-2.6.6-4.1,1.3-4.3,2.1v-3.3c.3-.3.6-.7.9-1.1.4-.4.8-.8,1.1-1.4.8-1.1,1.5-2.3,2-3.4.5-1.1.8-2,.9-2.6l.2-.9c-.2.6-.8,1.6-1.9,2.9-.4.4-.8.9-1.3,1.4-.6.6-1.2,1.3-1.9,1.9h0c0,0,0,.1,0,.1-.5.5-1.1,1-1.8,1.6-.7.6-1.9,1.3-3.6,2.2-1.7.9-3.5,1.5-5.4,1.8-.3,0-.7,0-1,.1-.4,0-.7,0-1.1.1h-.7c-2.4,0-4.5-.7-6.3-2.1-1.7-1.4-2.6-3.1-2.6-5h0v-17.5c0-1.8-.3-3.3-.9-4.7-.6-1.4-1.4-2.3-2.3-2.9-.5-.3-.7-.7-.7-1.3h14.3c.3,0,.6.1.9.4.3.3.4.6.4.9v18.3h0v.3c0,.2,0,.4,0,.6,0,0,0,.2,0,.4,0,.2,0,.4,0,.5,0,0,0,.2,0,.4,0,.1,0,.3.1.5v.3c.2.3.3.6.3.8,0,.2.2.5.3.8v.2c.2.2.3.4.4.5,0,0,0,.1.1.2,0,.1.2.3.3.4v.2c.3.2.5.4.6.6h0c0,.1.2.3.4.4.2.1.3.3.4.3,0,0,.2.1.2.1,0,0,.2.2.4.2,0,0,0,0,.1,0,.1,0,.3.2.4.2,0,0,.1,0,.2,0,0,0,.2,0,.4,0,0,0,.2,0,.2,0h.4s0,0,.1,0c1.6,0,3.3-.7,5-2.2v-16.6c0-1.7-.3-3.3-.9-4.7-.6-1.4-1.3-2.4-2.3-2.9-.5-.3-.7-.7-.7-1.3h14.3c.4,0,.7.1.9.4.2.3.4.6.4.9v25.1c0,.3.1.6.4.9.2.2.5.4.9.4"/>
    </g>
    <g id="g144">
      <path id="path146" class="st3" d="M200.4,20.1s0,0,0,0c0,0,0,0,0,0M216.2,40.3h0s0,0,0,0ZM212.4,42.2h0s0,0,0,0ZM212.5,42.7s0,0,0,0c0,0,0,0,0,0ZM218.7,45.8h0s0,0,0,0M219.4,46.1s0,0,0,0c0,0,0,0,0,0M220,46.2h0,0ZM220,46.2h0s0,0,0,0c0,0,0,0,0,0M220.2,46.3s0,0,0,0c0,0,0,0,0,0M219.5,46.3h0s0,0,0,0ZM213.9,46.4h0s0,0,0,0ZM221.8,47.8c0,.1,0,.2,0,.4,0-.1,0-.3,0-.4M221.9,48.2h0s0,0,0,0ZM232,43.1c-.1.8-.5,1.8-1.1,3.1-.6,1.2-1.3,2.5-2.2,3.7-.2.2-.3.4-.5.6.2,0,.4,0,.6-.1,2.5-.5,4.9-.8,7-.9-.1,0-.2-.2-.3-.3-.6-.6-1-1.4-1-2.3v-24.3h-9.4c.3.4.5.9.7,1.4.7,1.6,1,3.5,1,5.4v13.7c1.1-1.4,1.3-1.9,1.3-2,.3-1.1,1.4-1.7,2.5-1.4,1.1.3,1.7,1.4,1.4,2.5l-.2.8ZM202.8,22.5c.3.4.5.9.7,1.4.7,1.6,1.1,3.5,1.1,5.5v17.5c0,1.3.6,2.4,1.8,3.4,1.4,1.1,3,1.6,5,1.6h.6c.4,0,.7,0,1.1-.1.3,0,.6,0,.9,0,1.6-.2,3.2-.8,4.7-1.6,0,0,.1,0,.2,0,0,0,0,0,0,0-.1,0-.3,0-.4,0-.1,0-.3,0-.4,0-.2,0-.4-.2-.6-.3,0,0-.2,0-.3-.1-.1,0-.3-.1-.4-.2-.2-.1-.3-.2-.4-.3l-.4-.3c-.2-.1-.3-.3-.5-.4-.1-.1-.3-.2-.4-.4,0-.1-.2-.2-.3-.4,0,0-.2-.2-.3-.3l-.4-.6s0,0,0-.1c0,0,0,0,0,0-.1-.2-.3-.5-.4-.7,0,0,0-.2-.1-.3h0c-.2-.4-.3-.8-.4-1.1,0-.2-.1-.5-.2-.7,0,0,0,0,0-.1v-.3c-.1-.1-.1-.3-.2-.4,0-.1,0-.3,0-.4,0-.2,0-.4,0-.6s0-.2,0-.3c0-.1,0-.2,0-.3,0-.3,0-.6,0-.9v-17.9h-9.4ZM225,56.5c-.1,0-.2,0-.3,0-1-.2-1.7-1-1.7-2v-1.9c-.7.4-1.5.9-2.4,1.3-1.9,1-3.9,1.6-6,2-.4,0-.8.1-1.2.1-.3,0-.7,0-1,0,0,0-.2,0-.2,0h-.7c-2.9,0-5.4-.9-7.5-2.5-2.2-1.8-3.3-4-3.3-6.6v-17.5c0-1.5-.2-2.8-.7-3.9-.4-1-.9-1.7-1.5-2-1.1-.6-1.7-1.7-1.7-3s.9-2,2-2h14.3c.9,0,1.7.3,2.3,1,.7.7,1,1.5,1,2.3v18.6s0,0,0,0c0,0,0,0,0,0,0,.2,0,.3,0,.5,0,0,0,0,0,.2,0,.1,0,.3,0,.4,0,.1,0,.2,0,.3,0,.1,0,.2.1.4v.2c.1.3.2.5.3.8,0,0,0,.2.2.5,0,0,0,.2.1.3h0c0,0,0,.1,0,.2,0,.1.2.2.2.4l.3.4c0,0,.2.2.3.3.1,0,.2.2.3.3l.3.2c.1,0,.2.1.4.2,0,0,0,0,.1,0,0,0,.1,0,.2.1.2,0,.3,0,.5,0h0c.2,0,.3,0,.5,0,.8,0,1.7-.5,2.6-1.2v-15.6c0-1.4-.2-2.8-.7-3.9-.4-1-.9-1.6-1.5-2-1.1-.7-1.7-1.7-1.7-3s.9-2,2-2h14.3c.9,0,1.8.4,2.4,1.1.6.6.9,1.4.9,2.3v24.3h1.8c1.1,0,2,.9,2,2,0,1.7-.5,3-1.5,4-1,1-2.5,1.4-4.7,1.4s-4.2.3-6.7.8c-2,.4-2.7.8-2.9,1-.3.7-1.1,1.2-1.8,1.2"/>
    </g>
    <g id="g148">
      <path id="path150" class="st3" d="M240.7,52.7c1-.6,1.7-1.6,2.3-3,.6-1.4.9-3,.9-4.9v-17.8c0-.3-.1-.6-.4-.9-.2-.3-.6-.4-.9-.4h-2.6c0-.5.2-1,.6-1.4.4-.4.9-.6,1.4-.6,3.1-.2,6.1-.7,9.1-1.4,3-.7,4.5-1.5,4.5-2.3v24.9c0,1.8.3,3.4.9,4.9.6,1.4,1.3,2.4,2.2,3,.5.3.8.7.8,1.3h-19.5c0-.6.2-1,.7-1.3"/>
    </g>
    <g id="g152">
      <path id="path154" class="st3" d="M244.1,52h11.1c-.3-.4-.5-.9-.7-1.5-.7-1.7-1-3.5-1-5.6v-21.1c-.6.2-1.3.4-2,.5-2,.5-4.1.8-6.1,1.1.3.5.5,1.1.5,1.7v17.8c0,2.1-.3,4-1,5.6-.2.5-.5,1-.7,1.5M259.4,56h-19.5c-1.1,0-2-.9-2-2s.6-2.4,1.7-3c0,0,0,0,0,0,.6-.3,1.1-1,1.5-2,.5-1.2.7-2.5.7-4.1v-17h-1.8c-1.1,0-2-.9-2-2s.4-2,1.1-2.8c.8-.8,1.7-1.3,2.9-1.3,2.9-.2,5.9-.7,8.7-1.4,1.9-.4,2.7-.8,3-1,.3-.8,1-1.4,1.9-1.4s2,.9,2,2v24.9c0,1.5.2,2.9.7,4.1.4,1,.9,1.7,1.4,2,1.1.6,1.8,1.8,1.8,3s-.9,2-2,2"/>
    </g>
    <g id="g156">
      <path id="path158" class="st3" d="M274.5,46.5c0,1,.6,1.8,1.9,2.4,1.3.7,2.8,1,4.6,1s3.4-.3,4.7-1c-.1,1.5-1.3,2.8-3.4,3.8-2.1,1.1-4.7,1.6-7.7,1.7h-.3c-1.5,0-2.9-.1-4.2-.4-2.2-.4-3.9-1.1-5.2-2.1-1.3-1-2-2-2-3.2v-24c0-.4-.1-.7-.4-.9-.2-.2-.6-.4-.9-.4h-2.6c0-.7.2-1.5.5-2.3s.9-1.2,1.5-1.2c1.4,0,3-.5,4.7-1.4,1.7-1,3.2-2.1,4.4-3.3,1.2-1.2,2.3-2.5,3.2-3.6.9-1.2,1.3-2,1.3-2.6v2.7h0c0,0,0,7.5,0,7.5,0,.3.1.6.4.9.2.2.6.4.9.4h9.8c0,.8-.3,1.5-.9,2.1-.6.6-1.3.9-2.1.9h-16.7l8.6,1.4v21.7Z"/>
    </g>
    <g id="g160">
      <path id="path162" class="st3" d="M272.5,9.1h0s0,0,0,0ZM263.1,21.8c.3.2.6.3.8.6,0,0,.2.2.2.3.3-.7,1-1.2,1.9-1.2h7.3c-.5-.6-.8-1.3-.8-2.1v-3.6c-.3.3-.6.7-1,1-1.4,1.4-3,2.6-4.9,3.6-1.2.7-2.4,1.2-3.6,1.4M264.8,25.1v23.6c0,.6.6,1.1,1.1,1.5,1.1.8,2.6,1.4,4.4,1.7,1.2.3,2.5.4,3.8.4h.3c1.6,0,3-.2,4.4-.5-1.2-.2-2.4-.6-3.4-1.1-2.5-1.3-3-3-3-4.2v-20l-6.8-1.1c-.3,0-.6-.2-.8-.3M274.2,56.5c-1.6,0-3.2-.2-4.7-.5-2.4-.5-4.4-1.3-6-2.4-2.3-1.7-2.8-3.5-2.8-4.8v-23.3h-1.8c-1.1,0-2-.9-2-2s.2-2.1.7-3.1c.9-2.1,2.5-2.4,3.3-2.4s2.3-.4,3.7-1.2c1.5-.9,2.9-1.9,4-3,1.2-1.2,2.2-2.3,3-3.4.7-.9.9-1.4.9-1.5,0-1.1.9-1.9,2-1.9s2,.9,2,2v9.4h9.1c1.1,0,2,.9,2,2s-.5,2.6-1.5,3.5c-1,1-2.2,1.5-3.5,1.5h-6.2v21s.1.3.8.6c1,.5,2.2.8,3.6.8s2.7-.3,3.7-.8c.7-.3,1.5-.3,2.1.1s1,1.1.9,1.9c-.2,2.2-1.7,4.1-4.5,5.4-2.4,1.2-5.3,1.8-8.6,1.9h-.3Z"/>
    </g>
    <g id="g164">
      <path id="path166" class="st3" d="M305.6,48.5v-10.8c0-.4-.2-.8-.5-1-.3-.2-.7-.3-1-.3-1.1.2-1.9.4-2.6.5-.7.2-1.5.4-2.4.8-.9.4-1.7.9-2.3,1.7-.6.7-1.1,1.6-1.4,2.6-.4,1.5-.4,2.8.2,4,.6,1.2,1.4,2,2.6,2.5,1.2.5,2.4.8,3.8.9,1.4,0,2.6-.2,3.8-.9M320.1,49.8c1.4,0,2.7-.3,3.7-1,0,1.2-.8,2.3-2,3.4-1.2,1.1-2.7,1.7-4.5,2.1-.8.1-1.6.2-2.4.2h-.3c-1.1,0-2.3-.1-3.3-.4-1.1-.3-2.2-.8-3.1-1.5-.9-.7-1.6-1.4-2.1-2.2l-.2.2c-.1.1-.2.3-.3.4-.9.9-2.1,1.7-3.5,2.2-1.4.6-2.9.9-4.4,1.1-1.5.1-3.1.1-4.7,0-1.6-.2-3.1-.6-4.3-1.1-1.3-.6-2.4-1.3-3.4-2.2-1-.9-1.6-2-1.8-3.2s0-2.7.4-4.2c.6-1.6,1.5-2.9,2.8-4,1.3-1.1,2.8-1.9,4.5-2.5,1.7-.5,3.3-1,4.9-1.3,1.5-.3,3.2-.5,4.9-.8,1.7-.2,3-.4,3.8-.6.6-.1.9-.6.9-1.2v-7.9c0-1.2-.7-2.1-2.2-2.6-1.8-.7-3.4-.2-4.7,1.3-.8,1-1.4,2.3-1.7,4-.1.9-.4,1.7-.6,2.4-.3.7-.6,1.3-.9,1.8-.3.5-.8.9-1.4,1.1-.6.3-1.1.5-1.5.7-.4.2-1,.3-1.9.4-.9,0-1.5.1-2,.1s-1.3,0-2.3,0c-1.1,0-1.9,0-2.4,0,.2-2.5.6-4.3.9-5.5.6-1.6,1.5-3,2.7-4.1,1.2-1.2,2.6-2.1,4.2-2.7,1.6-.6,3.3-1.1,5-1.4,1.7-.3,3.5-.4,5.5-.4s4.9.3,7,.8c2.1.5,4,1.4,5.5,2.7,1.5,1.3,2.3,2.9,2.4,4.8h0v18.9c0,.8.2,1.4.6,1.9.4.4,1.1.6,2.2.6"/>
    </g>
    <g id="g168">
      <path id="path170" class="st3" d="M286.3,32.2c0,0,.1,0,.2,0,1.1,0,1.8,0,2.3,0s1,0,1.8-.1c1,0,1.3-.2,1.3-.2.4-.2.8-.4,1.4-.6.3-.1.4-.3.5-.4.2-.4.5-.9.7-1.4.2-.5.4-1.2.5-1.9.4-2.1,1.1-3.7,2.1-5,0,0,0,0,.1-.1,0,0,0,0-.1,0-1.6.3-3.1.7-4.6,1.3-1.4.5-2.6,1.3-3.6,2.3-1,1-1.7,2.1-2.2,3.4-.2.6-.4,1.6-.6,2.8M304.1,32.3s0,0,0,0c0,0,0,0,0,0M301.8,24.3c-.6,0-1,.3-1.5.9-.6.7-1,1.7-1.2,3-.2,1-.4,2-.8,2.8-.3.8-.7,1.5-1.1,2.1,0,.1-.1.2-.2.3,1.1-.2,2.3-.4,3.6-.5,1.2-.2,2.2-.3,2.9-.4v-7.3c0-.1,0-.4-.8-.7-.3-.1-.6-.2-.9-.2M303.5,38.6c-.6.1-1.2.2-1.6.3-.6.1-1.3.4-2.1.7-.6.3-1.2.6-1.6,1.1-.4.5-.8,1.2-1,1.9-.3.9-.2,1.8,0,2.5.3.7.8,1.2,1.5,1.5,1,.4,2,.6,3.2.7.6,0,1.1,0,1.6-.2v-8.6ZM295.4,37.9c-1.2.3-2.4.6-3.7,1-1.4.5-2.7,1.2-3.8,2.1-1,.9-1.8,1.9-2.2,3.2-.4,1.2-.5,2.2-.3,3.1.2.8.5,1.5,1.2,2.1.8.7,1.8,1.4,2.9,1.9,1.1.5,2.3.8,3.7,1,1.5.2,2.9.2,4.3,0,1.2-.1,2.4-.4,3.5-.8-1.3-.1-2.6-.5-3.8-1-1.7-.7-2.9-1.9-3.7-3.6-.8-1.6-.9-3.5-.3-5.4.4-1.3,1.1-2.4,1.9-3.4,0,0,.2-.2.3-.3M307.6,49c0,0,.2.2.2.3.3.5.9,1.1,1.6,1.6.7.5,1.5.9,2.4,1.1.9.2,1.8.3,2.8.3h.3c.6,0,1.3,0,2-.2.6-.1,1.2-.3,1.8-.5-1-.2-1.8-.6-2.4-1.2-.7-.8-1.1-1.9-1.1-3.2v-18.8c0-1.3-.6-2.4-1.7-3.3-1.3-1.1-2.9-1.9-4.7-2.3-.7-.2-1.5-.3-2.3-.4.8,1,1,2.1,1,2.8v7.9c0,1-.3,1.8-.9,2.4.6.6.9,1.4.9,2.3v10.8c0,.2,0,.3,0,.5M314.9,56.5h-.3c-1.3,0-2.6-.1-3.8-.4-1.4-.4-2.7-1-3.9-1.8-.4-.3-.7-.6-1-.9-.9.7-1.9,1.3-3.1,1.7-1.6.6-3.3,1.1-5,1.2-1.7.2-3.4.1-5.1,0-1.8-.2-3.5-.6-5-1.3-1.5-.7-2.8-1.5-3.9-2.6-1.3-1.2-2.1-2.7-2.5-4.4-.3-1.6-.1-3.4.5-5.2.7-1.9,1.8-3.6,3.4-4.9.7-.6,1.4-1.1,2.2-1.5-.3,0-.7,0-1.1,0-1.1,0-1.8,0-2.4,0s-1.1-.2-1.5-.7c-.4-.4-.6-1-.5-1.6.3-2.7.6-4.6,1-6,.7-1.9,1.8-3.6,3.2-5,1.4-1.4,3-2.4,4.9-3.2,1.8-.7,3.6-1.2,5.4-1.5,1.8-.3,3.8-.5,5.8-.5s5.2.3,7.5.9c2.4.6,4.6,1.7,6.3,3.2,2,1.7,3,3.8,3.2,6.3,0,0,0,0,0,.1v18.9c0,.2,0,.3,0,.4.1,0,.4,0,.7,0,1,0,1.9-.2,2.5-.7.6-.4,1.5-.5,2.2,0,.7.4,1.1,1.1,1,1.9-.1,1.7-1,3.3-2.7,4.8-1.5,1.3-3.3,2.1-5.4,2.5-1,.2-1.9.3-2.7.3"/>
    </g>
    <g id="g172">
      <path id="path174" class="st2" d="M50.9,52.7c.9-.6,1.6-1.6,2.1-3,.5-1.4.7-3,.6-4.9l-1.4-26.7c0-.7-.4-1.1-1.1-1.2-.7,0-1.1.2-1.4.8l-10.8,27.1c-.2.7-.5,1.3-.6,2h0v.2l2.2,5.1c.2.4.2.8,0,1.2-.2.4-.6.6-1.1.6h-9.8c-.5,0-.9-.3-1.2-.8h0c0-.1-3.6-8.3-3.6-8.3l-11.1-25.1c-.2-.6-.7-.9-1.4-.8-.7.1-1,.5-1,1.2l-.9,24.7c0,1.8.1,3.4.6,4.9.5,1.4,1.2,2.4,2.2,2.9.5.3.7.8.7,1.4H2.3c0-.6.3-1,.8-1.4.9-.5,1.7-1.5,2.3-2.9.6-1.4,1-3,1-4.9l1.3-33.7c0-1.7-.2-3.3-.6-4.7-1.2-1.5-2.5-2.6-3.7-3.2-.6-.3-1.1-.7-1.3-1.3h20.3c.3.6.2,1-.1,1.3-.7.5-1,1.5-1,2.9,0,1.4.4,3,1.2,4.8l13.1,29.8c.1.3.4.4.6.4s.5-.1.6-.4l11.7-29.7c.6-1.6,1-3,1-4.4,0-1.3-.2-2.3-.7-3-.2-.1-.4-.3-.5-.4-.5-.3-.8-.7-.9-1.3h20.4c0,.6-.2,1-.7,1.3-.9.6-1.5,1.6-2,3-.5,1.4-.7,3-.6,4.8l1.9,33.9c0,1.8.5,3.4,1.1,4.8.6,1.4,1.4,2.4,2.4,3,.5.3.8.7.8,1.3h-20.3c0-.6.2-1,.6-1.3"/>
    </g>
    <g id="g176">
      <path id="path178" class="st2" d="M92.4,48.5v-10.8c0-.4-.2-.8-.5-1-.3-.2-.7-.3-1-.3-1.1.2-1.9.4-2.6.5-.7.2-1.5.4-2.4.8-.9.4-1.7.9-2.3,1.7-.6.7-1.1,1.6-1.4,2.6-.4,1.5-.4,2.8.2,4,.6,1.2,1.4,2,2.6,2.5,1.2.5,2.4.8,3.8.9,1.4,0,2.6-.2,3.8-.9M106.9,49.8c1.4,0,2.7-.3,3.7-1,0,1.2-.8,2.3-2,3.4-1.2,1.1-2.7,1.7-4.5,2.1-.8.1-1.6.2-2.4.2h-.3c-1.1,0-2.3-.1-3.3-.4-1.1-.3-2.2-.8-3.1-1.5-.9-.7-1.6-1.4-2.1-2.2l-.2.2c-.1.1-.2.3-.3.4-.9.9-2.1,1.7-3.5,2.2-1.4.6-2.9.9-4.4,1.1-1.5.1-3.1.1-4.7,0-1.6-.2-3.1-.6-4.3-1.1-1.3-.6-2.4-1.3-3.4-2.2-1-.9-1.6-2-1.8-3.2-.2-1.3,0-2.7.4-4.2.6-1.6,1.5-2.9,2.8-4,1.3-1.1,2.8-1.9,4.5-2.5,1.7-.5,3.3-1,4.9-1.3,1.5-.3,3.2-.5,4.9-.8,1.7-.2,3-.4,3.8-.6.6-.1.9-.6.9-1.2v-7.9c0-1.2-.7-2.1-2.2-2.6-1.8-.7-3.4-.2-4.7,1.3-.8,1-1.4,2.3-1.7,4-.1.9-.4,1.7-.6,2.4-.3.7-.6,1.3-.9,1.8-.3.5-.8.9-1.4,1.1-.6.3-1.1.5-1.5.7-.4.2-1,.3-1.9.4-.9,0-1.5.1-2,.1s-1.3,0-2.3,0c-1.1,0-1.9,0-2.4,0,.2-2.5.6-4.3.9-5.5.6-1.6,1.5-3,2.7-4.1,1.2-1.2,2.6-2.1,4.2-2.7,1.6-.6,3.3-1.1,5-1.4,1.7-.3,3.5-.4,5.5-.4s4.9.3,7,.8c2.1.5,4,1.4,5.5,2.7,1.5,1.3,2.3,2.9,2.4,4.8h0v18.9c0,.8.2,1.4.6,1.9.4.4,1.1.6,2.2.6"/>
    </g>
    <g id="g180">
      <path id="path182" class="st2" d="M140.8,27.1h0c0,1.3-.3,2.4-1,3.4-.6,1-1.5,1.7-2.6,2-1.2.4-2.4.4-3.5,0-1.1-.3-2-.9-2.7-1.8-.7-.9-1.1-1.8-1.1-2.9v-.5c0-1.2.3-2.3,1-3.2.2-.3.4-.5.6-.7h0c0-.2.2-.2.2-.3.6-.5,1.3-.8,2-1,0,0,0,0,.1,0-1.5.2-2.9.7-4.2,1.6-1.3.9-2.4,1.8-3.2,2.9-.8,1.1-1.5,2-1.9,2.9-.5.9-.7,1.5-.8,1.9v13.5c0,1.8.3,3.4.9,4.8.6,1.4,1.3,2.4,2.2,2.9.5.3.8.8.8,1.4h-19.5c0-.6.2-1,.7-1.4,1-.5,1.7-1.5,2.3-2.9.6-1.4.9-3,.9-4.9v-18.3c0-.3-.1-.6-.4-.9-.2-.3-.6-.4-.9-.4h-2.6c0-.5.2-1,.6-1.4.4-.4.9-.6,1.4-.7,1.9-.1,3.8-.4,5.8-.7,2-.3,3.8-.8,5.4-1.3,1.6-.6,2.4-1.1,2.4-1.7v2.7c-.7.6-1.3,1.3-1.8,2-.3.4-.5.8-.7,1.1-.2.3-.4.7-.5,1-.1.4-.3.7-.3,1,0,.3-.1.6-.2.9,0,.3-.1.6-.1.8s0,.4,0,.6c0,.2,0,.3,0,.4h0c.4-1.1,1.3-2.5,2.7-4.2.2-.3.5-.6.7-.9,0,0,0,0,0,0,.2-.2.3-.3.3-.4,2.3-2.4,4.7-4,7.4-4.8,2.5-.7,4.8-.4,6.7,1,1.8,1.4,2.8,3.5,2.9,6.4"/>
    </g>
    <g id="g184">
      <path id="path186" class="st2" d="M140.8,52.7c1-.6,1.7-1.6,2.3-3,.6-1.4.9-3,.9-4.9v-17.8c0-.3-.1-.6-.4-.9-.2-.3-.6-.4-.9-.4h-2.6c0-.5.2-1,.6-1.4.4-.4.9-.6,1.4-.6,3.1-.2,6.1-.7,9.1-1.4,3-.7,4.5-1.5,4.5-2.3v24.9c0,1.8.3,3.4.9,4.9.6,1.4,1.3,2.4,2.2,3,.5.3.8.7.8,1.3h-19.5c0-.6.2-1,.7-1.3"/>
    </g>
    <g id="g188">
      <path id="path190" class="st2" d="M153.6,17.8s1-3.6,4.9-5.9c0,0-2-1.2-4.3-.5,0,0,1.1-3.8,3.8-6.7,0,0-5,.3-6.8,3.3,0,0-.3-4.2-1.8-5.9-1.4,1.8-1.8,5.9-1.8,5.9-1.8-3.1-6.8-3.3-6.8-3.3,2.6,2.9,3.8,6.7,3.8,6.7-2.3-.7-4.3.5-4.3.5,3.9,2.3,4.9,5.9,4.9,5.9,0,0,5-1,8.4,0"/>
    </g>
    <g id="g192">
      <path id="path194" class="st2" d="M253.4,17.8s1-3.6,4.9-5.9c0,0-2-1.2-4.3-.5,0,0,1.1-3.8,3.8-6.7,0,0-5,.3-6.8,3.3,0,0-.3-4.2-1.8-5.9-1.4,1.8-1.8,5.9-1.8,5.9-1.8-3.1-6.8-3.3-6.8-3.3,2.6,2.9,3.8,6.7,3.8,6.7-2.3-.7-4.3.5-4.3.5,3.9,2.3,4.9,5.9,4.9,5.9,0,0,5-1,8.4,0"/>
    </g>
    <g id="g196">
      <path id="path198" class="st2" d="M183.5,42.8v-13.3c0-2-.6-3.6-1.7-4.7-.1-.1-.3-.2-.4-.3-.5-.4-1.1-.7-1.6-.9-.4,0-.8-.1-1.1-.1-1.3,0-2.6.7-3.8,2-1.2,1.3-2.2,3-3,5.2s-1.1,4.3-1.1,6.4c0,3.4.7,6.2,2.1,8.6,1.4,2.3,3.1,3.5,5,3.5s3.2-.9,4.5-2.6c.8-1.1,1.2-2.3,1.2-3.7M198.4,69.6c.5.3.7.7.7,1.4h-19.4c0-.6.2-1.1.7-1.4.9-.5,1.7-1.5,2.2-2.9.6-1.4.9-3,.9-4.8v-9.3c2-2.1,3.8-5.4,5.5-10-1.1,2.8-2.9,5.3-5.5,7.4-.5.4-1.1.9-1.7,1.3-3.2,2.2-6.5,3.2-9.8,3.2s-7.3-1.7-9.5-5c-2.2-3.3-3.3-7.5-3.3-12.6s1.4-9.1,4.1-12.5,6.2-5.1,10.4-5.1h.6c1.6,0,2.7.2,3.3.4h0c.6.1,1.6.4,2.9.8,1.3.4,2.3.6,3,.8,2.4.6,4.4.9,6,.9s2.3-.1,3.2-.4h0c.1,0,.3,0,.4-.1.2,0,.5-.2.7-.3,0,0,.2,0,.2-.1.3-.1.5-.3.7-.5,0,0,0,0,.1,0,0,0,0,0,0-.1,0,0,0,0,.1-.1h0c0,0,0,0,0-.1v-.2,41.8c0,1.5.2,2.9.7,4.2.3.9.6,1.6,1,2.2.4.6.9,1.1,1.4,1.4"/>
    </g>
    <g id="g200">
      <path id="path202" class="st2" d="M238,48.1h2.6c0,1.1-.3,1.9-.9,2.5-.6.6-1.7.9-3.3.9s-4.5.3-7.1.8c-2.6.6-4.1,1.3-4.3,2.1v-3.3c.3-.3.6-.7.9-1.1.4-.4.8-.8,1.1-1.4.8-1.1,1.5-2.3,2-3.4.5-1.1.8-2,.9-2.6l.2-.9c-.2.6-.8,1.6-1.9,2.9-.4.4-.8.9-1.3,1.4-.6.6-1.2,1.3-1.9,1.9h0c0,0,0,.1,0,.1-.5.5-1.1,1-1.8,1.6-.7.6-1.9,1.3-3.6,2.2-1.7.9-3.5,1.5-5.4,1.8-.3,0-.7,0-1,.1-.4,0-.7,0-1.1.1h-.7c-2.4,0-4.5-.7-6.3-2.1-1.7-1.4-2.6-3.1-2.6-5h0v-17.5c0-1.8-.3-3.3-.9-4.7-.6-1.4-1.4-2.3-2.3-2.9-.5-.3-.7-.7-.7-1.3h14.3c.3,0,.6.1.9.4.3.3.4.6.4.9v18.3h0v.3c0,.2,0,.4,0,.6,0,0,0,.2,0,.4,0,.2,0,.4,0,.5,0,0,0,.2,0,.4,0,.1,0,.3.1.5v.3c.2.3.3.6.3.8,0,.2.2.5.3.8v.2c.2.2.3.4.4.5,0,0,0,.1.1.2,0,.1.2.3.3.4v.2c.3.2.5.4.6.6h0c0,.1.2.3.4.4.2.1.3.3.4.3,0,0,.2.1.2.1,0,0,.2.2.4.2,0,0,0,0,.1,0,.1,0,.3.2.4.2,0,0,.1,0,.2,0,0,0,.2,0,.4,0,0,0,.2,0,.2,0h.4s0,0,.1,0c1.6,0,3.3-.7,5-2.2v-16.6c0-1.7-.3-3.3-.9-4.7-.6-1.4-1.3-2.4-2.3-2.9-.5-.3-.7-.7-.7-1.3h14.3c.4,0,.7.1.9.4.2.3.4.6.4.9v25.1c0,.3.1.6.4.9.2.2.5.4.9.4"/>
    </g>
    <g id="g204">
      <path id="path206" class="st2" d="M240.7,52.7c1-.6,1.7-1.6,2.3-3,.6-1.4.9-3,.9-4.9v-17.8c0-.3-.1-.6-.4-.9-.2-.3-.6-.4-.9-.4h-2.6c0-.5.2-1,.6-1.4.4-.4.9-.6,1.4-.6,3.1-.2,6.1-.7,9.1-1.4,3-.7,4.5-1.5,4.5-2.3v24.9c0,1.8.3,3.4.9,4.9.6,1.4,1.3,2.4,2.2,3,.5.3.8.7.8,1.3h-19.5c0-.6.2-1,.7-1.3"/>
    </g>
    <g id="g208">
      <path id="path210" class="st2" d="M274.5,46.5c0,1,.6,1.8,1.9,2.4,1.3.7,2.8,1,4.6,1s3.4-.3,4.7-1c-.1,1.5-1.3,2.8-3.4,3.8-2.1,1.1-4.7,1.6-7.7,1.7h-.3c-1.5,0-2.9-.1-4.2-.4-2.2-.4-3.9-1.1-5.2-2.1-1.3-1-2-2-2-3.2v-24c0-.4-.1-.7-.4-.9-.2-.2-.6-.4-.9-.4h-2.6c0-.7.2-1.5.5-2.3s.9-1.2,1.5-1.2c1.4,0,3-.5,4.7-1.4,1.7-1,3.2-2.1,4.4-3.3,1.2-1.2,2.3-2.5,3.2-3.6.9-1.2,1.3-2,1.3-2.6v2.7h0c0,0,0,7.5,0,7.5,0,.3.1.6.4.9.2.2.6.4.9.4h9.8c0,.8-.3,1.5-.9,2.1-.6.6-1.3.9-2.1.9h-16.7l8.6,1.4v21.7Z"/>
    </g>
    <g id="g212">
      <path id="path214" class="st2" d="M305.6,48.5v-10.8c0-.4-.2-.8-.5-1-.3-.2-.7-.3-1-.3-1.1.2-1.9.4-2.6.5-.7.2-1.5.4-2.4.8-.9.4-1.7.9-2.3,1.7-.6.7-1.1,1.6-1.4,2.6-.4,1.5-.4,2.8.2,4,.6,1.2,1.4,2,2.6,2.5,1.2.5,2.4.8,3.8.9,1.4,0,2.6-.2,3.8-.9M320.1,49.8c1.4,0,2.7-.3,3.7-1,0,1.2-.8,2.3-2,3.4-1.2,1.1-2.7,1.7-4.5,2.1-.8.1-1.6.2-2.4.2h-.3c-1.1,0-2.3-.1-3.3-.4-1.1-.3-2.2-.8-3.1-1.5-.9-.7-1.6-1.4-2.1-2.2l-.2.2c-.1.1-.2.3-.3.4-.9.9-2.1,1.7-3.5,2.2-1.4.6-2.9.9-4.4,1.1-1.5.1-3.1.1-4.7,0-1.6-.2-3.1-.6-4.3-1.1-1.3-.6-2.4-1.3-3.4-2.2-1-.9-1.6-2-1.8-3.2s0-2.7.4-4.2c.6-1.6,1.5-2.9,2.8-4,1.3-1.1,2.8-1.9,4.5-2.5,1.7-.5,3.3-1,4.9-1.3,1.5-.3,3.2-.5,4.9-.8,1.7-.2,3-.4,3.8-.6.6-.1.9-.6.9-1.2v-7.9c0-1.2-.7-2.1-2.2-2.6-1.8-.7-3.4-.2-4.7,1.3-.8,1-1.4,2.3-1.7,4-.1.9-.4,1.7-.6,2.4-.3.7-.6,1.3-.9,1.8-.3.5-.8.9-1.4,1.1-.6.3-1.1.5-1.5.7-.4.2-1,.3-1.9.4-.9,0-1.5.1-2,.1s-1.3,0-2.3,0c-1.1,0-1.9,0-2.4,0,.2-2.5.6-4.3.9-5.5.6-1.6,1.5-3,2.7-4.1,1.2-1.2,2.6-2.1,4.2-2.7,1.6-.6,3.3-1.1,5-1.4,1.7-.3,3.5-.4,5.5-.4s4.9.3,7,.8c2.1.5,4,1.4,5.5,2.7,1.5,1.3,2.3,2.9,2.4,4.8h0v18.9c0,.8.2,1.4.6,1.9.4.4,1.1.6,2.2.6"/>
    </g>
  </g>
</svg>