<?xml version="1.0" encoding="UTF-8"?>
<svg id="svg2" xmlns="http://www.w3.org/2000/svg" version="1.1" xmlns:inkscape="http://www.inkscape.org/namespaces/inkscape" xmlns:sodipodi="http://sodipodi.sourceforge.net/DTD/sodipodi-0.dtd" xmlns:svg="http://www.w3.org/2000/svg" viewBox="0 0 533.7 332.4">
  <!-- Generator: Adobe Illustrator 29.5.1, SVG Export Plug-In . SVG Version: 2.1.0 Build 141)  -->
  <defs>
    <style>
      .st0 {
        fill: #4da92c;
      }

      .st1 {
        fill: #98bf13;
      }

      .st2 {
        fill: #00662f;
      }

      .st3 {
        fill: #1e130f;
      }

      .st4 {
        fill: #f6b40e;
      }

      .st5 {
        fill: #e0030a;
      }

      .st6 {
        fill: #00862c;
      }

      .st7 {
        fill: #f19800;
      }

      .st8 {
        fill: #009030;
      }

      .st9 {
        fill: #009832;
      }

      .st10 {
        fill: #e76115;
      }
    </style>
  </defs>
  <sodipodi:namedview id="namedview4" bordercolor="#666666" borderopacity="1.0" inkscape:pagecheckerboard="0" inkscape:pageopacity="0.0" inkscape:pageshadow="2" pagecolor="#ffffff"/>
  <g>
    <g id="g10">
      <path id="path12" class="st1" d="M217.5,310.4h10.6v2.1h-8.5v6.6h8.5v2.1h-8.5v10.3h-2.1v-21.1Z"/>
    </g>
    <g id="g22">
      <path id="path24" class="st1" d="M230.7,315.8h2v2.3c.6-.9,1.3-1.6,1.9-2,.7-.4,1.4-.7,2.1-.7s1.1.2,1.8.5l-1,1.7c-.4-.2-.8-.3-1.1-.3-.7,0-1.3.3-1.9.8-.6.5-1.1,1.4-1.4,2.6-.2.9-.4,2.7-.4,5.4v5.3h-2v-15.6Z"/>
    </g>
    <g id="g26">
      <path id="path28" class="st1" d="M240,315.8h2v7.3c0,1.8,0,3,.3,3.7.3,1,.8,1.7,1.6,2.3.8.6,1.8.8,2.9.8s2.1-.3,2.8-.8c.8-.5,1.3-1.2,1.6-2.1.2-.6.3-1.9.3-3.8v-7.3h2v7.7c0,2.2-.3,3.8-.8,4.9-.5,1.1-1.3,1.9-2.3,2.6-1,.6-2.3.9-3.8.9s-2.8-.3-3.8-.9c-1-.6-1.8-1.5-2.3-2.6-.5-1.1-.8-2.8-.8-5v-7.5Z"/>
    </g>
    <g id="g30">
      <path id="path32" class="st1" d="M259.9,310.1h2v5.8h3.2v1.7h-3.2v13.9h-2v-13.9h-2.7v-1.7h2.7v-5.8Z"/>
    </g>
    <g id="g34">
      <path id="path36" class="st1" d="M275.6,317.4c-1.1,0-2.1.3-3.1.8-.9.5-1.7,1.3-2.3,2.3s-.8,2-.8,3.1.3,2.1.8,3.1c.6,1,1.3,1.8,2.3,2.3.9.6,2,.8,3.1.8s2.1-.3,3.1-.8c1-.6,1.7-1.3,2.3-2.2.5-.9.8-2,.8-3.2,0-1.8-.6-3.3-1.8-4.5-1.2-1.2-2.6-1.8-4.4-1.8M283.6,315.8v15.6h-2v-2.7c-.8,1-1.8,1.8-2.8,2.3-1,.5-2.2.8-3.4.8-2.2,0-4.1-.8-5.7-2.4-1.6-1.6-2.3-3.5-2.3-5.8s.8-4.2,2.4-5.8c1.6-1.6,3.5-2.4,5.7-2.4s2.4.3,3.5.8c1,.5,1.9,1.4,2.7,2.5v-2.9h2Z"/>
    </g>
  </g>
  <g>
    <g id="g38">
      <path id="path40" class="st1" d="M339.9,329.4h2.4c2.9,0,4.9-.2,6.1-.5,1.6-.5,2.8-1.4,3.7-2.8.9-1.3,1.4-3,1.4-4.9s-.5-3.8-1.5-5.2c-1-1.4-2.4-2.4-4.1-3-1.3-.4-3.5-.6-6.5-.6h-1.5v17ZM337.9,331.4v-21.1h4.4c3.2,0,5.4.3,6.9.8,2,.7,3.6,2,4.8,3.7,1.2,1.8,1.7,3.9,1.7,6.3s-.5,4-1.4,5.6c-.9,1.6-2.1,2.8-3.6,3.6-1.5.8-3.5,1.1-6.1,1.1h-6.7Z"/>
    </g>
    <g id="g42">
      <path id="path44" class="st1" d="M372.5,322.1c-.3-1.1-.7-1.9-1.2-2.6-.5-.6-1.2-1.2-2-1.5-.8-.4-1.7-.6-2.7-.6-1.5,0-2.8.5-3.9,1.5-.8.7-1.4,1.8-1.8,3.2h11.6ZM372.5,326.3l1.7.9c-.6,1.1-1.2,2-1.9,2.6-.7.7-1.5,1.2-2.5,1.5-.9.3-1.9.5-3.1.5-2.5,0-4.5-.8-6-2.5-1.4-1.7-2.2-3.6-2.2-5.7s.6-3.7,1.8-5.3c1.5-2,3.6-3,6.2-3s4.8,1,6.4,3c1.1,1.4,1.7,3.2,1.7,5.3h-14c0,1.8.6,3.3,1.7,4.5,1.1,1.2,2.5,1.7,4.1,1.7s1.6-.1,2.3-.4c.8-.3,1.4-.6,1.9-1.1.5-.5,1.1-1.2,1.7-2.2"/>
    </g>
    <g id="g46">
      <path id="path48" class="st1" d="M386.3,317.5l-1.3,1.3c-1.1-1-2.1-1.6-3.1-1.6s-1.2.2-1.7.6c-.5.4-.7.9-.7,1.5s.2,1,.6,1.4c.4.5,1.2,1,2.4,1.6,1.5.8,2.5,1.5,3,2.2.5.7.8,1.5.8,2.5s-.4,2.4-1.3,3.3c-.9.9-2,1.3-3.4,1.3s-1.8-.2-2.6-.6c-.8-.4-1.5-.9-2-1.6l1.3-1.4c1,1.2,2.1,1.7,3.3,1.7s1.5-.3,2.1-.8c.6-.5.8-1.1.8-1.8s-.2-1.1-.6-1.5c-.4-.4-1.2-1-2.5-1.7-1.4-.7-2.4-1.4-2.9-2.1-.5-.7-.8-1.5-.8-2.4s.4-2.2,1.2-3c.8-.8,1.8-1.2,3.1-1.2s2.9.7,4.3,2.1"/>
    </g>
    <g id="g50">
      <path id="path52" class="st1" d="M389.9,309.8h2v8.8c.8-1.1,1.7-1.9,2.7-2.4,1-.5,2-.8,3.2-.8s2.2.3,3.1.9c.9.6,1.6,1.4,2,2.4.4,1,.6,2.6.6,4.7v8h-2v-7.4c0-1.8,0-3-.2-3.6-.2-1-.7-1.8-1.4-2.3-.7-.5-1.5-.8-2.6-.8s-2.3.4-3.3,1.2c-1,.8-1.6,1.8-1.9,3-.2.8-.3,2.2-.3,4.2v5.7h-2v-21.6Z"/>
    </g>
    <path id="path54" class="st1" d="M407.5,315.8h2v15.6h-2v-15.6ZM408.5,309.4c.5,0,.8.2,1.2.5.3.3.5.7.5,1.2s-.2.8-.5,1.2c-.3.3-.7.5-1.2.5s-.8-.2-1.2-.5c-.3-.3-.5-.7-.5-1.2s.2-.8.5-1.2c.3-.3.7-.5,1.2-.5"/>
    <g id="g56">
      <path id="path58" class="st1" d="M421.2,317.4c-1.1,0-2.1.3-3.1.8-.9.5-1.7,1.3-2.3,2.3s-.8,2-.8,3.1.3,2.1.8,3.1c.6,1,1.3,1.8,2.3,2.3,1,.6,2,.8,3.1.8s2.1-.3,3.1-.8c1-.6,1.7-1.3,2.3-2.2.5-.9.8-2,.8-3.2,0-1.8-.6-3.3-1.8-4.5-1.2-1.2-2.6-1.8-4.4-1.8M429.2,309.8v21.6h-2v-2.7c-.8,1-1.8,1.8-2.8,2.3-1,.5-2.2.8-3.4.8-2.2,0-4.1-.8-5.7-2.4-1.6-1.6-2.3-3.5-2.3-5.8s.8-4.2,2.4-5.8c1.6-1.6,3.5-2.4,5.7-2.4s2.4.3,3.5.8c1,.5,1.9,1.4,2.7,2.5v-8.9h2Z"/>
    </g>
    <g id="g60">
      <path id="path62" class="st1" d="M433,315.8h2v2.3c.6-.9,1.3-1.6,1.9-2,.7-.4,1.4-.7,2.1-.7s1.1.2,1.8.5l-1,1.7c-.4-.2-.8-.3-1.1-.3-.7,0-1.3.3-1.9.8-.6.5-1.1,1.4-1.4,2.6-.2.9-.4,2.7-.4,5.4v5.3h-2v-15.6Z"/>
    </g>
    <g id="g64">
      <path id="path66" class="st1" d="M450.1,317.4c-1.1,0-2.1.3-3.1.8-.9.5-1.7,1.3-2.3,2.3-.6,1-.8,2-.8,3.1s.3,2.1.8,3.1c.6,1,1.3,1.8,2.3,2.3.9.6,2,.8,3.1.8s2.1-.3,3.1-.8c1-.6,1.7-1.3,2.3-2.2.5-.9.8-2,.8-3.2,0-1.8-.6-3.3-1.8-4.5-1.2-1.2-2.6-1.8-4.4-1.8M458.1,315.8v15.6h-2v-2.7c-.8,1-1.8,1.8-2.8,2.3-1,.5-2.2.8-3.4.8-2.2,0-4.1-.8-5.7-2.4-1.6-1.6-2.3-3.5-2.3-5.8s.8-4.2,2.4-5.8c1.6-1.6,3.5-2.4,5.7-2.4s2.4.3,3.5.8c1,.5,1.9,1.4,2.7,2.5v-2.9h2Z"/>
    </g>
    <g id="g68">
      <path id="path70" class="st1" d="M464.4,310.1h2v5.8h3.2v1.7h-3.2v13.9h-2v-13.9h-2.7v-1.7h2.7v-5.8Z"/>
    </g>
    <g id="g72">
      <path id="path74" class="st1" d="M480.1,317.4c-1.1,0-2.1.3-3.1.8-.9.5-1.7,1.3-2.3,2.3-.6,1-.8,2-.8,3.1s.3,2.1.8,3.1c.6,1,1.3,1.8,2.3,2.3.9.6,2,.8,3.1.8s2.1-.3,3.1-.8c1-.6,1.7-1.3,2.3-2.2.5-.9.8-2,.8-3.2,0-1.8-.6-3.3-1.8-4.5-1.2-1.2-2.6-1.8-4.4-1.8M488.1,315.8v15.6h-2v-2.7c-.8,1-1.8,1.8-2.8,2.3-1,.5-2.2.8-3.4.8-2.2,0-4.1-.8-5.7-2.4-1.6-1.6-2.3-3.5-2.3-5.8s.8-4.2,2.4-5.8c1.6-1.6,3.5-2.4,5.7-2.4s2.4.3,3.5.8c1,.5,1.9,1.4,2.7,2.5v-2.9h2Z"/>
    </g>
    <g id="g76">
      <path id="path78" class="st1" d="M500.2,317.4c-1.1,0-2.1.3-3.1.8-.9.5-1.7,1.3-2.3,2.3-.6,1-.8,2-.8,3.1s.3,2.1.8,3.1c.6,1,1.3,1.8,2.3,2.3,1,.6,2,.8,3.1.8s2.1-.3,3.1-.8c1-.6,1.7-1.3,2.3-2.2.5-.9.8-2,.8-3.2,0-1.8-.6-3.3-1.8-4.5-1.2-1.2-2.6-1.8-4.4-1.8M508.2,309.8v21.6h-2v-2.7c-.8,1-1.8,1.8-2.8,2.3-1,.5-2.2.8-3.4.8-2.2,0-4.1-.8-5.7-2.4-1.6-1.6-2.3-3.5-2.3-5.8s.8-4.2,2.4-5.8c1.6-1.6,3.5-2.4,5.7-2.4s2.4.3,3.5.8c1,.5,1.9,1.4,2.7,2.5v-8.9h2Z"/>
    </g>
    <g id="g80">
      <path id="path82" class="st1" d="M520.2,317.4c-1.1,0-2.1.3-3.1.8-.9.5-1.7,1.3-2.3,2.3-.6,1-.8,2-.8,3.1s.3,2.1.8,3.1c.6,1,1.3,1.8,2.3,2.3,1,.6,2,.8,3.1.8s2.1-.3,3.1-.8c1-.6,1.7-1.3,2.3-2.2.5-.9.8-2,.8-3.2,0-1.8-.6-3.3-1.8-4.5-1.2-1.2-2.6-1.8-4.4-1.8M528.3,315.8v15.6h-2v-2.7c-.8,1-1.8,1.8-2.8,2.3-1,.5-2.2.8-3.4.8-2.2,0-4.1-.8-5.7-2.4-1.6-1.6-2.3-3.5-2.3-5.8s.8-4.2,2.4-5.8c1.6-1.6,3.5-2.4,5.7-2.4s2.4.3,3.5.8c1,.5,1.9,1.4,2.7,2.5v-2.9h2Z"/>
    </g>
  </g>
  <g>
    <g id="g84">
      <path id="path86" class="st3" d="M83.4,299.1c1.5-.9,2.6-2.6,3.5-4.9.8-2.3,1.2-5,1-7.9l-2.4-43.7c0-1.2-.7-1.8-1.8-2-1.1-.2-1.8.3-2.2,1.3l-17.7,44.4c-.4,1.1-.7,2.2-1.1,3.3v.4l3.7,8.4c.3.7.3,1.4-.1,2-.4.6-1,.9-1.8.9h-16.1c-.9,0-1.5-.4-1.9-1.3v-.2c-.1,0-6-13.4-6-13.4l-18.1-41.1c-.4-1-1.1-1.4-2.2-1.2-1.1.2-1.6.8-1.6,1.9l-1.5,40.4c-.2,3,.2,5.6,1.1,7.9.9,2.3,2,3.9,3.5,4.8.8.5,1.2,1.3,1.2,2.2H3.7c0-.9.4-1.7,1.3-2.2,1.5-.9,2.8-2.5,3.8-4.8,1.1-2.3,1.6-5,1.7-7.9l2.1-55.2c0-2.8-.3-5.4-1.1-7.7-2-2.5-4.1-4.2-6.1-5.2-1-.5-1.7-1.2-2.1-2.1h33.3c.5.9.4,1.6-.2,2.1-1.1.9-1.6,2.5-1.6,4.8,0,2.3.7,4.9,1.9,7.8l21.4,48.8c.2.5.6.7,1.1.7s.8-.2.9-.7l19.2-48.6c1-2.6,1.6-5,1.6-7.2,0-2.2-.3-3.8-1.2-4.9-.3-.2-.6-.4-.8-.6-.9-.5-1.3-1.2-1.4-2.1h33.4c0,.9-.4,1.6-1.2,2.1-1.4.9-2.5,2.6-3.4,4.9-.8,2.3-1.2,4.9-1,7.8l3.1,55.5c.2,2.9.8,5.5,1.8,7.8,1.1,2.3,2.4,3.9,3.9,4.9.9.5,1.3,1.2,1.3,2.1h-33.3c0-.9.3-1.6,1.1-2.1"/>
    </g>
    <g id="g88">
      <path id="path90" class="st3" d="M34.4,215.6s0,0,0,0c0,0,0,0,0,0M84.6,243.1h0s0,0,0,0M21.9,245.9h0s0,0,0,0M10.6,297.9h5.5c-.4-.8-.8-1.6-1.2-2.5-.7-1.9-1.2-4.1-1.3-6.4-.3,2.4-.9,4.6-1.8,6.6-.4.8-.8,1.6-1.2,2.3M49.3,297.9h13.4l-2.9-6.6c-.2-.4-.3-.9-.3-1.3v-.4c0-.3,0-.6.1-.9.3-1.2.7-2.3,1.1-3.5l.9-2.2c-.7.4-1.5.7-2.3.7-1.7,0-3.2-1-4-2.5,0,0,0-.1,0-.2l-21.4-48.8c-1.4-3.3-2.2-6.4-2.2-9.1,0-1.3.1-2.5.4-3.6H12.5c.5.6,1.1,1.2,1.6,1.9.2.3.4.6.6,1,.9,2.6,1.3,5.6,1.2,8.8l-.5,12.9c.6-1.7,2.1-3,4.1-3.4,2.7-.5,4.9.8,5.9,3.2l23.8,54ZM88.9,297.9h19.8c-.4-.7-.9-1.5-1.2-2.3-1.2-2.7-1.9-5.7-2.1-9l-3.1-55.5c-.2-3.3.2-6.4,1.2-9.1.3-.9.7-1.8,1.1-2.6h-20.7c.4,1.3.6,2.8.5,4.4,0,2.6-.7,5.4-1.9,8.3l-2.4,6.2c1.1-.9,2.6-1.3,4.2-1.1,2.7.4,4.4,2.3,4.6,5.1l2.4,43.7c.2,3.4-.2,6.5-1.2,9.2-.3.9-.7,1.8-1.1,2.6M49.5,298.4h0s0,0,0,0M63.4,299.6s0,0,0,0h0ZM115.7,304.6h-33.3c-1.7,0-3.2-1.3-3.3-3.1-.2-2.2.8-4.1,2.6-5.2.8-.5,1.5-1.6,2.1-3.2.7-1.9.9-4.1.8-6.7l-2.1-38-15.5,39.1c-.2.6-.5,1.3-.7,2.1l3.2,7.4c.8,1.7.6,3.5-.3,5.1-1,1.6-2.7,2.5-4.6,2.5h-16.1c-2.2,0-4-1.2-4.9-3.3h0c0-.2,0-.2,0-.3l-5.9-13.4-15.9-35.9-1.3,34.7c-.1,2.6.2,4.8.9,6.7.6,1.5,1.3,2.6,2.1,3.1,0,0,.2.1.2.2,1.7,1.2,2.6,2.9,2.6,5s-1.5,3.3-3.3,3.3H3.7c-1.8,0-3.3-1.5-3.3-3.3s1-3.9,2.8-5.1c0,0,0,0,.1,0,.9-.5,1.7-1.6,2.5-3.3.9-1.9,1.3-4.1,1.4-6.7l2.1-55.3c0-2.1-.2-4.1-.7-5.9-1.6-1.8-3.1-3.1-4.5-3.8-1.8-.8-3.1-2.2-3.8-3.9-.4-1-.3-2.2.3-3.1.6-.9,1.7-1.5,2.8-1.5h33.3c1.3,0,2.4.7,3,1.8,1.4,2.9.2,5.2-1.2,6.3,0,0,0,0,0,0,0,0-.3.5-.3,2,0,1.9.6,4.1,1.7,6.6l19.3,43.8,17.2-43.6c.9-2.2,1.4-4.3,1.4-6.1,0-1.4-.2-2.1-.3-2.5,0,0,0,0-.1,0-1.8-1-2.8-2.7-3-4.7,0-.9.2-1.8.9-2.5.6-.7,1.5-1.1,2.5-1.1h33.4c1.8,0,3.3,1.5,3.3,3.3s-1,3.8-2.7,4.9c-.8.5-1.5,1.6-2,3.2-.7,1.9-.9,4.1-.8,6.5l3.1,55.5c.1,2.5.6,4.7,1.5,6.6.8,1.7,1.7,2.8,2.6,3.4,1.8,1,2.9,2.8,2.9,5s-1.5,3.3-3.3,3.3"/>
    </g>
    <g id="g92">
      <path id="path94" class="st3" d="M151.4,292.3v-17.7c0-.7-.3-1.3-.8-1.6-.5-.4-1.1-.5-1.7-.5-1.7.3-3.2.6-4.3.9-1.1.3-2.5.7-4,1.4-1.5.6-2.8,1.5-3.8,2.7-1,1.2-1.8,2.6-2.4,4.2-.7,2.4-.6,4.6.3,6.6.9,2,2.3,3.3,4.2,4.1,1.9.8,4,1.3,6.2,1.4,2.2.2,4.3-.4,6.2-1.5M175.1,294.3c2.4,0,4.4-.5,6-1.6-.2,2-1.2,3.8-3.2,5.5-2,1.7-4.5,2.9-7.4,3.4-1.3.2-2.6.4-3.9.4h-.5c-1.9,0-3.7-.2-5.4-.6-1.9-.5-3.6-1.3-5.1-2.4-1.5-1.1-2.7-2.3-3.5-3.6l-.4.4c-.2.2-.4.4-.5.6-1.5,1.5-3.4,2.7-5.7,3.6-2.3.9-4.7,1.5-7.2,1.8-2.5.2-5.1.2-7.7,0-2.6-.3-5-.9-7.1-1.9-2.1-1-4-2.2-5.6-3.7-1.6-1.5-2.6-3.2-3-5.3-.4-2.1-.2-4.4.7-6.9.9-2.6,2.5-4.8,4.6-6.6,2.1-1.8,4.6-3.2,7.4-4.1,2.8-.9,5.4-1.6,7.9-2.1,2.5-.5,5.2-.9,8.1-1.2,2.9-.4,4.9-.7,6.2-1,1-.2,1.5-.9,1.5-2v-13c0-2-1.2-3.4-3.5-4.2-3-1.1-5.5-.4-7.7,2.1-1.3,1.6-2.2,3.7-2.7,6.5-.2,1.5-.6,2.8-1.1,3.9-.5,1.1-1,2.1-1.5,2.9-.5.8-1.3,1.4-2.2,1.9-1,.5-1.8.8-2.5,1.1-.7.3-1.7.5-3.1.6-1.4.1-2.5.2-3.3.2s-2.1,0-3.8,0c-1.8,0-3.1,0-3.9,0,.4-4.1.9-7.1,1.5-9.1.9-2.6,2.4-4.8,4.4-6.8,2-1.9,4.3-3.4,6.9-4.5,2.7-1.1,5.4-1.8,8.2-2.3,2.8-.5,5.8-.7,8.9-.7s8,.4,11.5,1.3c3.5.9,6.5,2.4,9,4.5,2.5,2.1,3.8,4.8,4,7.9h0v31c0,1.3.3,2.4.9,3.1.6.7,1.8,1.1,3.7,1.1"/>
    </g>
    <g id="g96">
      <path id="path98" class="st3" d="M119.8,265.6c0,0,.2,0,.3,0,1.7,0,3,0,3.8,0s1.7,0,3-.2c1.6-.1,2.1-.3,2.1-.3.6-.3,1.4-.6,2.3-1,.4-.2.7-.4.9-.7.4-.6.8-1.4,1.2-2.3.4-.9.7-2,.8-3.2.6-3.4,1.7-6.1,3.5-8.1,0,0,.1-.2.2-.2,0,0-.1,0-.2,0-2.6.4-5.1,1.1-7.6,2.1-2.2.9-4.2,2.2-5.8,3.8-1.6,1.6-2.8,3.4-3.6,5.5-.3,1-.6,2.6-.9,4.6M149,265.7s0,0,0,0c0,0,0,0,0,0M145.2,252.6c-.9,0-1.7.5-2.5,1.4-.9,1.1-1.6,2.8-2,4.9-.3,1.7-.7,3.3-1.3,4.7-.5,1.3-1.1,2.5-1.8,3.4-.1.2-.2.3-.3.5,1.9-.3,3.8-.6,5.9-.8,2-.3,3.6-.5,4.8-.7v-11.9c0-.2,0-.6-1.3-1.1-.5-.2-1-.3-1.4-.3M148,276c-1,.2-1.9.4-2.7.6-1,.2-2.1.6-3.5,1.2-1.1.4-1.9,1-2.6,1.8-.7.8-1.3,1.9-1.7,3.1-.4,1.5-.4,2.9.2,4.1.5,1.2,1.3,2,2.5,2.4,1.6.6,3.3,1,5.2,1.2.9,0,1.8,0,2.6-.3v-14.1ZM134.7,274.8c-1.9.4-3.9,1-6,1.6-2.4.8-4.4,1.9-6.2,3.4-1.7,1.4-2.9,3.1-3.6,5.2-.6,1.9-.8,3.6-.6,5.1.3,1.4.9,2.5,2,3.4,1.4,1.2,3,2.3,4.8,3.1,1.8.8,3.8,1.4,6.1,1.6,2.4.3,4.8.3,7.1,0,2-.2,3.9-.6,5.8-1.3-2.2-.2-4.3-.8-6.2-1.6-2.7-1.1-4.7-3.1-6-5.8-1.2-2.7-1.4-5.7-.5-8.9.7-2.2,1.7-4,3-5.5.1-.2.3-.3.4-.5M154.6,293c.2.2.3.3.4.5.6.9,1.4,1.8,2.6,2.7,1.2.9,2.5,1.5,3.9,1.9,1.4.3,3,.5,4.6.5h.5c1.1,0,2.2-.1,3.3-.3,1-.2,2-.5,2.9-.9-1.7-.3-2.9-1-3.9-2-1.2-1.3-1.8-3.1-1.8-5.3v-30.9c-.1-2.2-1-3.9-2.8-5.5-2.1-1.8-4.7-3-7.7-3.8-1.2-.3-2.4-.5-3.7-.7,1.4,1.6,1.6,3.5,1.6,4.7v13c0,1.6-.5,2.9-1.5,3.9,1,1,1.5,2.3,1.5,3.8v17.7c0,.3,0,.5,0,.8M166.7,305.3h-.5c-2.1,0-4.2-.2-6.2-.7-2.4-.6-4.5-1.6-6.4-3-.6-.5-1.2-.9-1.7-1.4-1.5,1.1-3.1,2.1-5,2.8-2.6,1.1-5.4,1.7-8.2,2-2.7.3-5.5.2-8.4,0-3-.3-5.7-1-8.2-2.2-2.4-1.1-4.6-2.5-6.4-4.2-2.2-1.9-3.5-4.4-4-7.2-.5-2.6-.2-5.5.8-8.6,1.2-3.2,3-5.9,5.6-8,1.1-.9,2.3-1.8,3.6-2.5-.5,0-1.1,0-1.8,0-1.7,0-3,0-3.9,0s-1.8-.4-2.5-1.1c-.6-.7-.9-1.6-.9-2.6.4-4.4,1-7.6,1.7-9.8,1.2-3.2,2.9-5.9,5.2-8.1,2.3-2.2,5-4,8-5.2,2.9-1.1,5.9-2,8.9-2.5,3-.5,6.2-.8,9.5-.8s8.5.5,12.3,1.4c4,1,7.5,2.7,10.4,5.2,3.2,2.7,5,6.2,5.2,10.3,0,0,0,.1,0,.2v31c0,.3,0,.6,0,.7.2,0,.6,0,1.2,0,1.7,0,3.1-.4,4.2-1.1,1.1-.7,2.4-.8,3.5-.1,1.1.6,1.7,1.9,1.6,3.1-.2,2.9-1.7,5.5-4.4,7.8-2.4,2.1-5.4,3.5-8.9,4.2-1.6.3-3.1.4-4.5.4"/>
    </g>
    <g id="g100">
      <path id="path102" class="st3" d="M230.6,257.2v.2c0,2-.5,3.7-1.6,5.4-1.1,1.6-2.5,2.7-4.3,3.4-2,.6-3.9.7-5.7.1-1.8-.5-3.2-1.5-4.4-2.9-1.1-1.4-1.7-3-1.9-4.8v-.8c0-2,.5-3.7,1.6-5.3.3-.5.7-.9,1.1-1.2h.1c.2-.3.3-.4.4-.5,1-.8,2.1-1.3,3.3-1.6,0,0,.2-.1.2-.1-2.4.3-4.7,1.2-6.9,2.6-2.2,1.4-3.9,3-5.2,4.8-1.3,1.8-2.4,3.4-3.2,4.8-.8,1.4-1.2,2.5-1.3,3.2v22.1c0,2.9.5,5.5,1.4,7.8.9,2.3,2.2,3.9,3.7,4.8.9.5,1.3,1.3,1.3,2.2h-31.9c0-.9.4-1.7,1.2-2.2,1.6-.9,2.8-2.5,3.8-4.8.9-2.3,1.4-5,1.4-7.9v-30c0-.5-.2-1-.6-1.5-.4-.4-.9-.6-1.5-.6h-4.2c0-.9.3-1.6.9-2.3.6-.7,1.4-1,2.4-1.1,3.1-.2,6.2-.6,9.5-1.1,3.3-.5,6.2-1.2,8.8-2.2,2.6-.9,3.9-1.9,3.9-2.8v4.4c-1.1,1-2.1,2.1-2.9,3.3-.5.7-.9,1.3-1.2,1.9-.3.5-.6,1.1-.8,1.7-.2.6-.4,1.1-.5,1.6-.1.5-.2,1-.4,1.5-.1.5-.2.9-.2,1.3s0,.7,0,1c0,.3,0,.5,0,.6v.2c.7-2,2.2-4.4,4.4-7.1.4-.5.8-.9,1.2-1.4,0,0,0-.1.1-.1.3-.3.5-.5.5-.6,3.7-4,7.7-6.6,12.1-7.9,4.2-1.2,7.8-.6,11,1.6,3,2.3,4.6,5.8,4.7,10.5"/>
    </g>
    <g id="g104">
      <path id="path106" class="st3" d="M221.5,251.4h0s0,0,0,0ZM216,258.3c.1,1.1.5,2.1,1.2,2.9.7.8,1.6,1.5,2.8,1.8,1.1.4,2.3.3,3.7-.1,1-.4,1.8-1,2.5-2,.7-1.1,1-2.2,1-3.5v-.2c-.1-3.7-1.2-6.2-3.4-7.9-.4-.3-.7-.5-1.1-.7,0,0,0,0,0,0,0,1.4-.7,2.7-2,3.3-.2.1-.5.2-.7.3-.7.2-1.3.5-2,1l-.3.3c0,0-.2.2-.3.2-.1,0-.2.2-.4.4-.7,1.1-1.1,2.2-1.1,3.5v.7ZM184.1,297.9h18.2c-.4-.7-.8-1.5-1.2-2.4-1.1-2.7-1.7-5.8-1.7-9.1v-22.1c0-.1,0-.2,0-.3-.7,1.1-2,1.7-3.4,1.5-1.6-.3-2.8-1.7-2.8-3.3v-.2c0-.3,0-.7,0-1.1,0-.1,0-.3,0-.5,0-.7,0-1.4.3-2.1.1-.5.2-.9.3-1.4.2-.7.4-1.4.7-2.1.3-.7.6-1.4,1-2.1.1-.2.3-.5.5-.8-1.8.5-3.7.9-5.7,1.2-1.5.2-2.9.4-4.3.6.5.8.7,1.8.7,2.8v30c0,3.4-.6,6.5-1.7,9.2-.4.9-.8,1.7-1.2,2.4M209.2,304.6h-31.9c-1.8,0-3.3-1.5-3.3-3.3s.9-3.8,2.6-5c0,0,.2-.1.3-.2.9-.5,1.6-1.5,2.3-3.1.8-1.9,1.2-4.2,1.2-6.7v-28.8h-3c-1.8,0-3.3-1.5-3.3-3.3s.6-3.3,1.8-4.6c1.2-1.3,2.8-2,4.5-2.2,3-.2,6.1-.6,9.2-1.1,3-.5,5.8-1.2,8.2-2,1.1-.4,1.6-.7,1.9-.9.5-1.3,1.7-2.2,3.1-2.2s3.3,1.5,3.3,3.3v1c2.5-1.7,5.1-3,7.9-3.8,5.2-1.5,9.8-.7,13.8,2.2,3.9,3,5.9,7.3,6.1,13.1,0,0,0,0,0,.1v.2c0,2.6-.7,5-2.1,7.2-1.5,2.2-3.5,3.8-6,4.7-2.8.9-5.4.9-7.8.2-2.4-.7-4.4-2.1-6-4-1.5-1.9-2.4-4.1-2.6-6.4-1,1.4-1.8,2.6-2.4,3.7-.6,1.1-.8,1.7-.9,1.9v21.8c0,2.5.4,4.7,1.2,6.6.6,1.6,1.4,2.7,2.2,3.1,0,0,0,0,.1,0,1.8,1.2,2.8,3,2.8,5s-1.5,3.3-3.3,3.3"/>
    </g>
    <g id="g108">
      <path id="path110" class="st3" d="M230.7,299.1c1.6-.9,2.8-2.6,3.8-4.9.9-2.3,1.4-5,1.4-7.9v-29.1c0-.5-.2-1-.6-1.5-.4-.4-.9-.6-1.5-.6h-4.2c0-.9.3-1.6.9-2.4.6-.7,1.4-1.1,2.4-1.1,5-.4,10-1.2,14.9-2.3,4.9-1.1,7.4-2.4,7.4-3.8v40.7c0,3,.5,5.6,1.4,7.9.9,2.3,2.2,3.9,3.7,4.9.9.5,1.3,1.2,1.3,2.1h-31.9c0-.9.4-1.6,1.2-2.1"/>
    </g>
    <g id="g112">
      <path id="path114" class="st3" d="M236.4,297.9h18.2c-.4-.7-.8-1.5-1.2-2.4-1.1-2.7-1.7-5.8-1.7-9.2v-34.5c-1.1.3-2.2.6-3.3.9-3.3.8-6.6,1.4-10,1.8.5.8.8,1.8.8,2.8v29.1c0,3.4-.6,6.5-1.7,9.2-.4.9-.8,1.7-1.2,2.4M261.5,304.6h-31.9c-1.8,0-3.3-1.5-3.3-3.3s1-3.9,2.8-5c0,0,0,0,0,0,.9-.6,1.7-1.7,2.4-3.3.8-1.9,1.2-4.2,1.2-6.7v-27.9h-3c-1.8,0-3.3-1.5-3.3-3.3s.6-3.3,1.8-4.6c1.2-1.4,2.9-2.1,4.7-2.2,4.8-.4,9.6-1.1,14.3-2.2,3.1-.7,4.5-1.3,5-1.6.4-1.3,1.7-2.3,3.2-2.3s3.3,1.5,3.3,3.3v40.7c0,2.5.4,4.8,1.2,6.7.6,1.6,1.4,2.7,2.3,3.3,1.8,1.1,2.9,2.9,2.9,5s-1.5,3.3-3.3,3.3"/>
    </g>
    <g id="g116">
      <path id="path118" class="st3" d="M251.6,241.9s1.6-5.9,8.1-9.7c0,0-3.3-2-7.1-.8,0,0,1.9-6.3,6.2-10.9,0,0-8.1.5-11.1,5.5,0,0-.5-6.8-2.9-9.7-2.3,2.9-2.9,9.7-2.9,9.7-3-5-11.1-5.5-11.1-5.5,4.3,4.7,6.2,10.9,6.2,10.9-3.8-1.2-7.1.8-7.1.8,6.4,3.8,8.1,9.7,8.1,9.7,0,0,8.2-1.6,13.8,0"/>
    </g>
    <g id="g120">
      <path id="path122" class="st3" d="M237.6,234.7c1,1.3,1.7,2.5,2.3,3.5,2.5-.3,6.2-.6,9.7-.1.5-1,1.2-2.2,2.2-3.4-.6-.1-1.2-.4-1.6-.9-.9-.9-1.2-2.1-.8-3.3,0-.1.3-1.1.9-2.5-.8,1-2.1,1.5-3.4,1.2-.9-.2-1.7-.8-2.1-1.6-.5.8-1.2,1.4-2.1,1.6-1.3.3-2.6-.2-3.4-1.2.6,1.4.9,2.4.9,2.5.4,1.2,0,2.5-.8,3.3-.5.5-1,.8-1.6.9M237.9,245.2c-1.5,0-2.8-1-3.2-2.4,0-.2-1.4-4.7-6.5-7.7-1-.6-1.6-1.7-1.6-2.9,0-1.2.6-2.3,1.6-2.9.3-.2,1.7-1,3.8-1.4-.9-1.7-2.1-3.6-3.6-5.2-.9-1-1.1-2.5-.6-3.7.6-1.2,1.8-2,3.2-1.9.7,0,4.8.4,8.7,2.4.5-1.9,1.4-3.9,2.5-5.4.6-.8,1.6-1.2,2.6-1.2s2,.5,2.6,1.2c1.2,1.5,2,3.5,2.5,5.4,3.8-2.1,8-2.4,8.7-2.4,1.4,0,2.6.7,3.2,1.9.6,1.2.4,2.7-.6,3.7-1.5,1.6-2.7,3.6-3.6,5.2,2.1.4,3.5,1.2,3.8,1.4,1,.6,1.6,1.7,1.6,2.9,0,1.2-.6,2.3-1.6,2.9-5.1,3-6.5,7.5-6.5,7.7-.2.8-.8,1.6-1.6,2-.8.4-1.7.5-2.5.3-3.9-1.2-10.1-.3-12.2,0-.2,0-.4,0-.7,0"/>
    </g>
    <g id="g124">
      <path id="path126" class="st3" d="M415.2,241.9s1.6-5.9,8.1-9.7c0,0-3.3-2-7.1-.8,0,0,1.9-6.3,6.2-10.9,0,0-8.1.5-11.1,5.5,0,0-.5-6.8-2.9-9.7-2.3,2.9-2.9,9.7-2.9,9.7-3-5-11.1-5.5-11.1-5.5,4.3,4.7,6.2,10.9,6.2,10.9-3.8-1.2-7.1.8-7.1.8,6.4,3.8,8.1,9.7,8.1,9.7,0,0,8.2-1.6,13.8,0"/>
    </g>
    <g id="g128">
      <path id="path130" class="st3" d="M401.2,234.7c1,1.3,1.7,2.5,2.3,3.5,2.4-.3,6.2-.6,9.7-.1.5-1,1.2-2.2,2.2-3.4-.6-.1-1.2-.4-1.6-.9-.9-.9-1.2-2.1-.8-3.3,0-.1.3-1.1.9-2.5-.8,1-2.1,1.5-3.4,1.2-.9-.2-1.7-.8-2.1-1.6-.5.8-1.2,1.4-2.1,1.6-1.3.3-2.6-.2-3.4-1.2.6,1.4.9,2.4.9,2.5.4,1.2,0,2.5-.8,3.3-.5.5-1,.8-1.6.9M401.4,245.2c-1.5,0-2.8-1-3.2-2.4,0-.2-1.4-4.7-6.5-7.7-1-.6-1.6-1.7-1.6-2.9,0-1.2.6-2.3,1.6-2.9.3-.2,1.7-1,3.8-1.4-.9-1.7-2.1-3.6-3.6-5.2-.9-1-1.1-2.5-.6-3.7.6-1.2,1.9-2,3.2-1.9.7,0,4.8.4,8.7,2.4.5-1.9,1.4-3.9,2.5-5.4.6-.8,1.6-1.2,2.6-1.2s2,.5,2.6,1.2c1.2,1.5,2,3.5,2.5,5.4,3.8-2.1,8-2.4,8.7-2.4,1.3,0,2.6.7,3.2,1.9.6,1.2.4,2.7-.6,3.7-1.5,1.6-2.7,3.6-3.6,5.2,2.1.4,3.5,1.2,3.8,1.4,1,.6,1.6,1.7,1.6,2.9,0,1.2-.6,2.3-1.6,2.9-5.1,3-6.5,7.5-6.5,7.7-.3.8-.8,1.6-1.6,2-.8.4-1.7.5-2.5.3-3.9-1.1-10.1-.3-12.2,0-.2,0-.4,0-.7,0"/>
    </g>
    <g id="g132">
      <path id="path134" class="st3" d="M300.7,282.9v-21.8c0-3.3-.9-5.9-2.8-7.8-.2-.2-.4-.4-.6-.5-.9-.7-1.7-1.2-2.6-1.4-.6-.2-1.3-.2-1.9-.2-2.1,0-4.2,1.1-6.2,3.2-2,2.2-3.6,5-4.9,8.5s-1.9,7-1.9,10.5c0,5.5,1.1,10.2,3.4,14,2.3,3.8,5,5.8,8.2,5.8s5.2-1.4,7.3-4.2c1.3-1.7,1.9-3.8,1.9-6.1M325,326.8c.8.5,1.2,1.2,1.2,2.2h-31.8c0-1,.4-1.8,1.2-2.2,1.5-.9,2.7-2.5,3.6-4.8.9-2.3,1.4-4.9,1.4-7.8v-15.2c3.2-3.4,6.2-8.8,8.9-16.4-1.8,4.6-4.8,8.7-8.9,12.1-.9.7-1.8,1.4-2.8,2.1-5.3,3.5-10.6,5.3-16.1,5.3s-12-2.7-15.6-8.1c-3.7-5.4-5.5-12.3-5.5-20.6s2.2-14.9,6.7-20.4,10.1-8.3,17-8.3h1.1c2.7.2,4.5.4,5.4.6h.1c1,.2,2.6.6,4.8,1.2,2.2.6,3.8,1,4.9,1.2,3.9.9,7.2,1.4,9.8,1.4s3.7-.2,5.2-.7h.1c.2,0,.5-.2.7-.2.4-.2.8-.3,1.2-.5.2,0,.3-.2.4-.2.5-.2.9-.5,1.2-.8,0,0,.2,0,.2-.1,0,0,.1-.2.1-.2,0,0,.2-.2.2-.2h0c0-.1.1-.2.1-.2v-.4,68.5c0,2.5.4,4.8,1.2,6.9.5,1.4,1,2.6,1.6,3.5.7,1,1.5,1.8,2.4,2.2"/>
    </g>
    <g id="g136">
      <path id="path138" class="st3" d="M315.6,245.2h0s0,0,0,0c0,0,0,0,0,0M316.2,246.3h0s0,0,0,0ZM295.7,255.8s0,0,0,0c0,0,0,0,0,0M292.8,254.5c-1.1,0-2.4.7-3.7,2.2-1.7,1.8-3.1,4.3-4.2,7.3-1.1,3.1-1.7,6.3-1.7,9.4,0,4.9,1,9,3,12.3,2.4,4.1,4.7,4.1,5.4,4.1s2.5,0,4.6-2.9c.8-1.1,1.2-2.5,1.2-4.1v-21.8c0-2.4-.6-4.2-1.8-5.4,0,0,0,0,0,0-.1,0-.2-.2-.3-.2-.5-.4-1-.7-1.4-.8-.3,0-.7-.1-1-.1M284.3,248c-5.9,0-10.6,2.3-14.4,7.1-4,5-5.9,11-5.9,18.3s1.7,13.9,4.9,18.7c3,4.5,7.2,6.7,12.8,6.7s6.7-.8,9.9-2.3c-3.1,0-7.6-1.2-11.3-7.4-2.6-4.3-3.9-9.6-3.9-15.7s.7-7.8,2.1-11.7c1.4-3.9,3.3-7.1,5.6-9.6,1.7-1.8,3.5-3.1,5.3-3.7-.6-.1-1.9-.3-4.2-.4h-1ZM301.1,325.7h18.3c-.6-1.1-1.1-2.2-1.6-3.6-.9-2.4-1.3-5.1-1.3-8v-62.4c0,0-.2,0-.3,0-4,1.1-8.8,1-15.9-.6,2.4,2.5,3.6,5.9,3.6,10v21.8c0,1.5-.2,2.9-.6,4.2,1.3-1.8,2.3-3.6,3.1-5.6.7-1.7,2.6-2.5,4.3-1.9,1.7.6,2.6,2.5,2,4.3-2.7,7.4-5.6,12.8-8.7,16.5v13.9c0,3.3-.6,6.4-1.7,9.1-.4.9-.8,1.7-1.2,2.4M326.2,332.4h-31.8c-1.8,0-3.3-1.5-3.3-3.3s1-4,2.8-5.1c.9-.5,1.6-1.6,2.3-3.2.8-1.9,1.2-4.1,1.2-6.6v-13.1c-5.1,2.9-10.3,4.4-15.6,4.4-7.9,0-14.1-3.2-18.4-9.6-4-6-6-13.5-6-22.5s2.5-16.4,7.4-22.5c5.1-6.3,11.7-9.6,19.6-9.6h1.1c0,0,.1,0,.2,0,3.4.2,4.9.4,5.7.6.1,0,.3,0,.4,0,1,.2,2.7.7,4.9,1.3,2.1.6,3.7,1,4.8,1.2,3.7.9,6.8,1.3,9.1,1.3s3-.2,4.2-.6c.1,0,.3,0,.4-.1l1-.4c.1,0,.3-.2.4-.3.1,0,.2,0,.2-.1.5-1.3,1.7-2.2,3.1-2.2s3.3,1.5,3.3,3.3v68.5c0,2.1.3,4.1,1,5.8.4,1.2.8,2.2,1.3,2.8.4.5.8.9,1.2,1.2,0,0,0,0,.1,0,1.8,1.1,2.8,2.9,2.8,5.1s-1.5,3.3-3.3,3.3"/>
    </g>
    <g id="g140">
      <path id="path142" class="st3" d="M389.9,291.6h4.2c0,1.8-.5,3.2-1.5,4.1-1,.9-2.8,1.4-5.4,1.4s-7.3.5-11.6,1.4c-4.3.9-6.7,2.1-7.1,3.5v-5.4c.5-.5,1-1.1,1.5-1.8.6-.6,1.3-1.4,1.9-2.2,1.3-1.9,2.4-3.7,3.3-5.6.9-1.8,1.4-3.3,1.5-4.3l.4-1.4c-.3,1-1.3,2.6-3.1,4.8-.6.7-1.3,1.5-2.1,2.4-.9,1-2,2.1-3.2,3.2h-.1c0,.1-.1.2-.1.2-.8.8-1.7,1.6-2.9,2.6-1.1.9-3.1,2.1-5.9,3.6-2.8,1.5-5.8,2.4-8.8,2.9-.6,0-1.1.1-1.7.2-.6,0-1.2.1-1.8.2h-1.2c-4,0-7.4-1.1-10.2-3.4-2.8-2.3-4.2-5-4.2-8.2v-.2h0v-28.4c0-2.9-.5-5.5-1.5-7.7-1-2.2-2.2-3.8-3.7-4.8-.8-.5-1.2-1.2-1.2-2.1h23.4c.5,0,1,.2,1.5.6.4.4.6.9.6,1.5v30.5c0,.4,0,.7.1.9,0,0,0,.3,0,.6,0,.3,0,.6,0,.8,0,.2.1.4.1.6,0,.2.2.5.2.8v.5c.3.5.4.9.5,1.3.1.4.3.8.5,1.3v.4c.3.3.4.6.6.8,0,0,.2.2.2.4.2.2.3.5.5.7l.2.4c.3.3.6.6.8.9h.1c.2.2.4.4.6.6.3.2.5.4.7.5.2.1.3.2.4.2.2.2.4.3.6.4,0,0,.2.1.2.1.2.2.5.3.7.4,0,0,.2,0,.4,0,.2,0,.4,0,.6,0,.2,0,.3.1.4.1h.6c0,0,0,.1.2.1,2.6,0,5.3-1.1,8.2-3.7v-27.2c0-2.8-.5-5.4-1.4-7.7-.9-2.3-2.2-3.9-3.8-4.8-.8-.5-1.2-1.2-1.2-2.1h23.4c.6,0,1.1.2,1.5.6.4.4.6.9.6,1.5v41.1c0,.5.2,1,.6,1.4.4.4.9.6,1.5.6"/>
    </g>
    <g id="g144">
      <path id="path146" class="st3" d="M328.3,245.6s0,0,0,0c0,0,0,0,0,0M354.2,278.8h0s0,0,0,0ZM348,281.9h0s0,0,0,0ZM348.2,282.8s0,0,0,0c0,0,0,0,0,0ZM358.3,287.8h0s0,0,0,0M359.4,288.3s0,0,0,0c0,0,0,0,0,0M360.4,288.5h0,0ZM360.4,288.5h0s0,0,0,0c0,0,0,0,0,0M360.7,288.6s0,0,0,0c0,0,0,0,0,0M359.7,288.6h0s0,0,0,0ZM350.4,288.8h0s0,0,0,0ZM363.4,291.1c0,.2,0,.4,0,.6,0-.2,0-.4,0-.6M363.5,291.7h0s0,0,0,0ZM380.1,283.3c-.2,1.3-.8,3-1.8,5-.9,2-2.2,4.1-3.6,6.1-.3.3-.5.7-.8,1,.4,0,.7-.2,1.1-.2,4.2-.9,8-1.4,11.5-1.4-.2-.1-.3-.3-.5-.4-1-1-1.6-2.3-1.6-3.8v-39.9h-15.4c.4.7.8,1.5,1.2,2.3,1.1,2.7,1.7,5.7,1.7,8.9v22.5c1.8-2.3,2-3.1,2.1-3.2.5-1.7,2.3-2.7,4.1-2.2,1.7.5,2.8,2.3,2.3,4l-.3,1.3ZM332.2,249.7c.4.7.8,1.4,1.2,2.2,1.2,2.7,1.8,5.7,1.8,9.1v28.6c0,2.2,1,4,3,5.6,2.2,1.8,4.9,2.7,8.2,2.7h1c.6,0,1.2-.1,1.8-.2.5,0,1,0,1.5-.2,2.7-.4,5.3-1.3,7.8-2.5,0,0,.2,0,.3-.1,0,0,0,0,0,0-.2,0-.4,0-.6-.1-.2,0-.5,0-.7-.1-.4-.1-.7-.3-1.1-.5-.2,0-.3-.1-.4-.2-.2-.1-.5-.2-.7-.4-.3-.2-.5-.3-.7-.4l-.6-.5c-.3-.2-.6-.4-.8-.7-.2-.2-.5-.4-.6-.6-.1-.2-.3-.4-.5-.6-.2-.2-.3-.3-.4-.5l-.7-1.1c0,0,0-.1-.1-.2,0,0,0-.1-.1-.2-.2-.4-.5-.8-.7-1.2,0-.1-.1-.3-.2-.4h0c-.3-.7-.5-1.2-.6-1.7-.1-.4-.2-.8-.4-1.2,0,0,0-.2,0-.2v-.5c-.2-.2-.2-.4-.3-.6,0-.2-.1-.4-.1-.7,0-.3-.1-.6-.1-.9s0-.3,0-.4c0-.2,0-.3,0-.4-.1-.5-.2-.9-.2-1.5v-29.3h-15.4ZM368.6,305.3c-.2,0-.4,0-.5,0-1.6-.3-2.8-1.7-2.8-3.3v-3.2c-1.1.7-2.4,1.4-4,2.2-3.1,1.6-6.4,2.7-9.8,3.2-.7,0-1.3.2-2,.2-.5,0-1.1,0-1.6.2-.1,0-.3,0-.4,0h-1.2c-4.8,0-8.9-1.4-12.3-4.2-3.6-2.9-5.5-6.6-5.5-10.8v-28.6c0-2.4-.4-4.6-1.2-6.4-.7-1.6-1.5-2.7-2.4-3.3-1.7-1-2.7-2.8-2.7-4.9s1.5-3.3,3.3-3.3h23.4c1.4,0,2.8.6,3.8,1.6,1.1,1.1,1.6,2.4,1.6,3.8v30.5s0,0,0,0c0,0,0,0,0,0,0,.2.1.5.1.8,0,0,0,.2,0,.3,0,.2,0,.5,0,.7,0,.2,0,.4.1.6,0,.2.1.4.2.6v.4c.2.5.4.9.5,1.3,0,.2.1.4.3.8,0,.1.1.3.2.4h0c0,.2,0,.2,0,.3.1.2.3.4.4.6l.5.7c.1.2.3.3.4.5.2.2.4.3.6.5l.4.3c.2,0,.4.2.6.4,0,0,.1,0,.2,0,.1,0,.2.1.3.2.3,0,.5,0,.8.1h0c.3,0,.6,0,.8.1,1.3-.1,2.8-.7,4.3-1.9v-25.6c0-2.4-.4-4.5-1.2-6.4-.7-1.6-1.5-2.7-2.4-3.2-1.8-1.1-2.8-2.9-2.8-5s1.5-3.3,3.3-3.3h23.4c1.6,0,3,.6,4,1.7,1,1.1,1.5,2.3,1.5,3.7v39.8h3c1.8,0,3.3,1.5,3.3,3.3,0,2.7-.8,4.9-2.5,6.5-1.6,1.6-4.2,2.3-7.7,2.3s-6.9.4-10.9,1.3c-3.4.7-4.5,1.4-4.8,1.6-.5,1.2-1.7,1.9-3,1.9"/>
    </g>
    <g id="g148">
      <path id="path150" class="st3" d="M394.3,299.1c1.6-.9,2.8-2.6,3.8-4.9.9-2.3,1.4-5,1.4-7.9v-29.1c0-.5-.2-1-.6-1.5-.4-.4-.9-.6-1.5-.6h-4.2c0-.9.3-1.6.9-2.4.6-.7,1.4-1.1,2.4-1.1,5-.4,10-1.2,14.9-2.3,4.9-1.1,7.4-2.4,7.4-3.8v40.7c0,3,.5,5.6,1.4,7.9.9,2.3,2.2,3.9,3.7,4.9.9.5,1.3,1.2,1.3,2.1h-31.9c0-.9.4-1.6,1.2-2.1"/>
    </g>
    <g id="g152">
      <path id="path154" class="st3" d="M399.9,297.9h18.2c-.4-.7-.8-1.5-1.2-2.4-1.1-2.7-1.7-5.8-1.7-9.2v-34.5c-1.1.3-2.2.6-3.3.9-3.3.8-6.6,1.4-10,1.8.5.8.8,1.8.8,2.8v29.1c0,3.4-.6,6.5-1.7,9.2-.4.9-.8,1.7-1.2,2.4M425,304.6h-31.9c-1.8,0-3.3-1.5-3.3-3.3s1-3.9,2.8-5c0,0,0,0,0,0,.9-.6,1.7-1.7,2.4-3.3.8-1.9,1.2-4.2,1.2-6.7v-27.9h-3c-1.8,0-3.3-1.5-3.3-3.3s.6-3.3,1.8-4.6c1.2-1.4,2.9-2.1,4.7-2.2,4.8-.4,9.6-1.1,14.3-2.2,3.1-.7,4.5-1.3,5-1.6.4-1.3,1.7-2.3,3.2-2.3s3.3,1.5,3.3,3.3v40.7c0,2.5.4,4.8,1.2,6.7.6,1.6,1.4,2.7,2.3,3.3,1.9,1.1,2.9,2.9,2.9,5s-1.5,3.3-3.3,3.3"/>
    </g>
    <g id="g156">
      <path id="path158" class="st3" d="M449.7,289c0,1.6,1,2.9,3.1,4,2.1,1.1,4.6,1.6,7.5,1.6s5.5-.5,7.7-1.6c-.2,2.4-2.1,4.5-5.6,6.2-3.5,1.7-7.7,2.6-12.7,2.7h-.5c-2.4,0-4.8-.2-6.9-.7-3.5-.7-6.4-1.8-8.5-3.4-2.2-1.6-3.2-3.3-3.2-5.2v-39.3c0-.6-.2-1.1-.6-1.5-.4-.4-.9-.6-1.5-.6h-4.2c0-1.2.3-2.4.9-3.7s1.4-1.9,2.4-1.9c2.4,0,4.9-.8,7.7-2.4,2.8-1.6,5.2-3.4,7.2-5.4,2-2,3.8-4,5.2-5.9,1.4-1.9,2.1-3.3,2.1-4.2v4.5h0c0-.1,0,12.2,0,12.2,0,.5.2,1,.6,1.4.4.4.9.6,1.5.6h16.1c0,1.3-.5,2.5-1.4,3.4-.9.9-2.1,1.4-3.4,1.4h-27.4l14,2.2v35.6Z"/>
    </g>
    <g id="g160">
      <path id="path162" class="st3" d="M446.4,227.6h0s0,0,0,0ZM431,248.4c.5.2.9.6,1.3,1,.1.1.3.3.4.4.5-1.2,1.7-2,3-2h12c-.9-1-1.3-2.2-1.3-3.5v-5.9c-.5.6-1.1,1.1-1.6,1.7-2.2,2.2-4.9,4.3-8,6-2,1.1-4,1.9-5.9,2.4M433.9,254v38.7c0,.9,1,1.9,1.9,2.5,1.8,1.3,4.2,2.2,7.2,2.8,2,.4,4.1.6,6.3.6h.5c2.6,0,5-.3,7.1-.9-2-.3-3.9-.9-5.6-1.8-4-2.1-4.9-5-4.9-7v-32.7l-11.2-1.8c-.5,0-.9-.3-1.3-.5M449.3,305.3c-2.7,0-5.2-.3-7.6-.8-4-.8-7.3-2.1-9.8-4-3.8-2.8-4.6-5.8-4.6-7.9v-38.1h-3c-1.8,0-3.3-1.5-3.3-3.3s.4-3.4,1.2-5.1c1.5-3.4,4.1-3.9,5.4-3.9s3.8-.6,6.1-1.9c2.5-1.4,4.7-3.1,6.5-4.9,1.9-1.9,3.5-3.8,4.9-5.6,1.1-1.5,1.4-2.2,1.5-2.4.1-1.7,1.6-3.1,3.3-3.1s3.3,1.5,3.3,3.3v15.4h14.9c1.8,0,3.3,1.5,3.3,3.3s-.8,4.2-2.4,5.8c-1.6,1.6-3.6,2.4-5.8,2.4h-10.1v34.5s.2.4,1.3,1c1.6.8,3.6,1.3,5.9,1.3s4.5-.4,6.1-1.3c1.1-.6,2.4-.5,3.4.2s1.6,1.9,1.5,3.1c-.4,3.6-2.9,6.6-7.4,8.9-3.9,1.9-8.7,3-14.1,3.1h-.5Z"/>
    </g>
    <g id="g164">
      <path id="path166" class="st3" d="M500.6,292.3v-17.7c0-.7-.3-1.3-.8-1.6-.5-.4-1.1-.5-1.7-.5-1.7.3-3.2.6-4.3.9-1.1.3-2.5.7-4,1.4-1.5.6-2.8,1.5-3.8,2.7-1,1.2-1.8,2.6-2.4,4.2-.7,2.4-.6,4.6.3,6.6.9,2,2.3,3.3,4.2,4.1,1.9.8,4,1.3,6.2,1.4,2.2.2,4.3-.4,6.2-1.5M524.4,294.3c2.4,0,4.4-.5,6-1.6-.2,2-1.2,3.8-3.2,5.5-2,1.7-4.5,2.9-7.4,3.4-1.3.2-2.6.4-3.9.4h-.5c-1.9,0-3.7-.2-5.4-.6-1.9-.5-3.6-1.3-5.1-2.4-1.5-1.1-2.7-2.3-3.5-3.6l-.4.4c-.2.2-.4.4-.5.6-1.5,1.5-3.4,2.7-5.7,3.6-2.3.9-4.7,1.5-7.2,1.8-2.5.2-5.1.2-7.7,0-2.6-.3-5-.9-7.1-1.9-2.1-1-4-2.2-5.6-3.7-1.6-1.5-2.6-3.2-3-5.3s-.2-4.4.7-6.9c.9-2.6,2.5-4.8,4.6-6.6,2.1-1.8,4.6-3.2,7.4-4.1,2.8-.9,5.4-1.6,7.9-2.1,2.5-.5,5.2-.9,8.1-1.2,2.9-.4,4.9-.7,6.2-1,1-.2,1.5-.9,1.5-2v-13c0-2-1.2-3.4-3.5-4.2-3-1.1-5.5-.4-7.7,2.1-1.3,1.6-2.2,3.7-2.7,6.5-.2,1.5-.6,2.8-1.1,3.9-.5,1.1-1,2.1-1.5,2.9-.5.8-1.3,1.4-2.2,1.9-1,.5-1.8.8-2.5,1.1-.7.3-1.7.5-3.1.6-1.4.1-2.5.2-3.3.2s-2.1,0-3.8,0c-1.8,0-3.1,0-3.9,0,.4-4.1.9-7.1,1.5-9.1.9-2.6,2.4-4.8,4.4-6.8,2-1.9,4.3-3.4,6.9-4.5,2.7-1.1,5.4-1.8,8.2-2.3,2.8-.5,5.8-.7,8.9-.7s8,.4,11.5,1.3c3.5.9,6.5,2.4,9,4.5,2.5,2.1,3.8,4.8,4,7.9h0v31c0,1.3.3,2.4.9,3.1.6.7,1.8,1.1,3.6,1.1"/>
    </g>
    <g id="g168">
      <path id="path170" class="st3" d="M469,265.6c0,0,.2,0,.3,0,1.7,0,3,0,3.8,0s1.7,0,3-.2c1.6-.1,2.1-.3,2.1-.3.6-.3,1.4-.6,2.3-1,.4-.2.7-.4.9-.7.4-.6.8-1.4,1.2-2.3.4-.9.7-2,.8-3.2.6-3.4,1.7-6.1,3.5-8.1,0,0,.1-.2.2-.2,0,0-.1,0-.2,0-2.6.4-5.1,1.1-7.6,2.1-2.2.9-4.2,2.2-5.8,3.8-1.6,1.6-2.8,3.4-3.6,5.5-.3,1.1-.7,2.6-.9,4.6M498.3,265.7s0,0,0,0c0,0,0,0,0,0M494.5,252.6c-.9,0-1.7.5-2.5,1.4-.9,1.1-1.6,2.8-2,4.9-.3,1.7-.7,3.3-1.3,4.7-.5,1.3-1.1,2.5-1.8,3.4-.1.2-.2.3-.3.5,1.9-.3,3.8-.6,5.9-.8,2-.3,3.6-.5,4.8-.7v-11.9c0-.2,0-.6-1.3-1.1-.5-.2-1-.3-1.4-.3M497.3,276c-1,.2-1.9.4-2.7.6-1,.2-2.2.6-3.5,1.2-1.1.4-1.9,1-2.6,1.8-.7.8-1.3,1.9-1.7,3.1-.4,1.5-.4,2.9.2,4.1.5,1.2,1.3,2,2.5,2.4,1.6.6,3.3,1,5.2,1.2.9,0,1.8,0,2.6-.3v-14.1ZM483.9,274.8c-1.9.4-3.9,1-6,1.6-2.4.8-4.5,1.9-6.2,3.4-1.7,1.4-2.9,3.1-3.6,5.2-.6,1.9-.8,3.6-.6,5.1.3,1.4.9,2.5,2,3.4,1.4,1.2,3,2.3,4.8,3.1,1.8.8,3.8,1.4,6.1,1.6,2.4.3,4.8.3,7.1,0,2-.2,3.9-.6,5.8-1.3-2.2-.2-4.3-.8-6.2-1.6-2.7-1.1-4.7-3.1-6-5.8-1.2-2.7-1.4-5.7-.5-8.9.7-2.2,1.7-4,3-5.5.1-.2.3-.3.4-.5M503.9,293c.2.2.3.3.4.5.6.9,1.4,1.8,2.6,2.7,1.2.9,2.5,1.5,3.9,1.9,1.4.3,3,.5,4.6.5h.5c1.1,0,2.2-.1,3.3-.3,1-.2,2-.5,2.9-.9-1.7-.3-2.9-1-3.9-2-1.2-1.3-1.8-3.1-1.8-5.3v-30.9c-.1-2.2-1-3.9-2.8-5.5-2.1-1.8-4.7-3-7.7-3.8-1.2-.3-2.4-.5-3.7-.7,1.4,1.6,1.6,3.5,1.6,4.7v13c0,1.6-.5,2.9-1.5,3.9,1,1,1.5,2.3,1.5,3.8v17.7c0,.3,0,.5,0,.8M515.9,305.3h-.5c-2.1,0-4.2-.2-6.2-.7-2.4-.6-4.5-1.6-6.4-3-.6-.5-1.2-.9-1.7-1.4-1.5,1.1-3.1,2.1-5,2.8-2.6,1.1-5.4,1.7-8.2,2-2.7.3-5.5.2-8.4,0-3-.3-5.7-1-8.2-2.2-2.4-1.1-4.6-2.5-6.4-4.2-2.2-1.9-3.5-4.3-4-7.2-.5-2.6-.2-5.5.8-8.6,1.2-3.2,3-5.9,5.6-8,1.1-.9,2.3-1.8,3.6-2.5-.5,0-1.1,0-1.8,0-1.7,0-3,0-3.9,0s-1.8-.4-2.5-1.1c-.6-.7-.9-1.6-.9-2.6.4-4.4,1-7.6,1.7-9.8,1.2-3.2,2.9-5.9,5.2-8.1,2.3-2.2,5-4,8.1-5.2,2.9-1.1,5.9-2,8.9-2.5,3-.5,6.2-.8,9.5-.8s8.5.5,12.3,1.4c4,1,7.5,2.7,10.4,5.2,3.2,2.7,5,6.2,5.2,10.3,0,0,0,.1,0,.2v31c0,.3,0,.6,0,.7.2,0,.6,0,1.2,0,1.7,0,3.1-.4,4.2-1.1,1.1-.7,2.4-.7,3.5-.1,1.1.6,1.7,1.9,1.6,3.1-.2,2.9-1.7,5.5-4.4,7.8-2.4,2.1-5.4,3.5-8.9,4.2-1.6.3-3.1.4-4.5.4"/>
    </g>
    <g id="g172">
      <path id="path174" class="st9" d="M83.4,299.1c1.5-.9,2.6-2.6,3.5-4.9.8-2.3,1.2-5,1-7.9l-2.4-43.7c0-1.2-.7-1.8-1.8-2-1.1-.2-1.8.3-2.2,1.3l-17.7,44.4c-.4,1.1-.7,2.2-1.1,3.3v.4l3.7,8.4c.3.7.3,1.4-.1,2-.4.6-1,.9-1.8.9h-16.1c-.9,0-1.5-.4-1.9-1.3v-.2c-.1,0-6-13.4-6-13.4l-18.1-41.1c-.4-1-1.1-1.4-2.2-1.2-1.1.2-1.6.8-1.6,1.9l-1.5,40.4c-.2,3,.2,5.6,1.1,7.9.9,2.3,2,3.9,3.5,4.8.8.5,1.2,1.3,1.2,2.2H3.7c0-.9.4-1.7,1.3-2.2,1.5-.9,2.8-2.5,3.8-4.8,1.1-2.3,1.6-5,1.7-7.9l2.1-55.2c0-2.8-.3-5.4-1.1-7.7-2-2.5-4.1-4.2-6.1-5.2-1-.5-1.7-1.2-2.1-2.1h33.3c.5.9.4,1.6-.2,2.1-1.1.9-1.6,2.5-1.6,4.8,0,2.3.7,4.9,1.9,7.8l21.4,48.8c.2.5.6.7,1.1.7s.8-.2.9-.7l19.2-48.6c1-2.6,1.6-5,1.6-7.2,0-2.2-.3-3.8-1.2-4.9-.3-.2-.6-.4-.8-.6-.9-.5-1.3-1.2-1.4-2.1h33.4c0,.9-.4,1.6-1.2,2.1-1.4.9-2.5,2.6-3.4,4.9-.8,2.3-1.2,4.9-1,7.8l3.1,55.5c.2,2.9.8,5.5,1.8,7.8,1.1,2.3,2.4,3.9,3.9,4.9.9.5,1.3,1.2,1.3,2.1h-33.3c0-.9.3-1.6,1.1-2.1"/>
    </g>
    <g id="g176">
      <path id="path178" class="st9" d="M151.4,292.3v-17.7c0-.7-.3-1.3-.8-1.6-.5-.4-1.1-.5-1.7-.5-1.7.3-3.2.6-4.3.9-1.1.3-2.5.7-4,1.4-1.5.6-2.8,1.5-3.8,2.7-1,1.2-1.8,2.6-2.4,4.2-.7,2.4-.6,4.6.3,6.6.9,2,2.3,3.3,4.2,4.1,1.9.8,4,1.3,6.2,1.4,2.2.2,4.3-.4,6.2-1.5M175.1,294.3c2.4,0,4.4-.5,6-1.6-.2,2-1.2,3.8-3.2,5.5-2,1.7-4.5,2.9-7.4,3.4-1.3.2-2.6.4-3.9.4h-.5c-1.9,0-3.7-.2-5.4-.6-1.9-.5-3.6-1.3-5.1-2.4-1.5-1.1-2.7-2.3-3.5-3.6l-.4.4c-.2.2-.4.4-.5.6-1.5,1.5-3.4,2.7-5.7,3.6-2.3.9-4.7,1.5-7.2,1.8-2.5.2-5.1.2-7.7,0-2.6-.3-5-.9-7.1-1.9-2.1-1-4-2.2-5.6-3.7-1.6-1.5-2.6-3.2-3-5.3-.4-2.1-.2-4.4.7-6.9.9-2.6,2.5-4.8,4.6-6.6,2.1-1.8,4.6-3.2,7.4-4.1,2.8-.9,5.4-1.6,7.9-2.1,2.5-.5,5.2-.9,8.1-1.2,2.9-.4,4.9-.7,6.2-1,1-.2,1.5-.9,1.5-2v-13c0-2-1.2-3.4-3.5-4.2-3-1.1-5.5-.4-7.7,2.1-1.3,1.6-2.2,3.7-2.7,6.5-.2,1.5-.6,2.8-1.1,3.9-.5,1.1-1,2.1-1.5,2.9-.5.8-1.3,1.4-2.2,1.9-1,.5-1.8.8-2.5,1.1-.7.3-1.7.5-3.1.6-1.4.1-2.5.2-3.3.2s-2.1,0-3.8,0c-1.8,0-3.1,0-3.9,0,.4-4.1.9-7.1,1.5-9.1.9-2.6,2.4-4.8,4.4-6.8,2-1.9,4.3-3.4,6.9-4.5,2.7-1.1,5.4-1.8,8.2-2.3,2.8-.5,5.8-.7,8.9-.7s8,.4,11.5,1.3c3.5.9,6.5,2.4,9,4.5,2.5,2.1,3.8,4.8,4,7.9h0v31c0,1.3.3,2.4.9,3.1.6.7,1.8,1.1,3.7,1.1"/>
    </g>
    <g id="g180">
      <path id="path182" class="st9" d="M230.6,257.2v.2c0,2-.5,3.7-1.6,5.4-1.1,1.6-2.5,2.7-4.3,3.4-2,.6-3.9.7-5.7.1-1.8-.5-3.2-1.5-4.4-2.9-1.1-1.4-1.7-3-1.9-4.8v-.8c0-2,.5-3.7,1.6-5.3.3-.5.7-.9,1.1-1.2h.1c.2-.3.3-.4.4-.5,1-.8,2.1-1.3,3.3-1.6,0,0,.2-.1.2-.1-2.4.3-4.7,1.2-6.9,2.6-2.2,1.4-3.9,3-5.2,4.8-1.3,1.8-2.4,3.4-3.2,4.8-.8,1.4-1.2,2.5-1.3,3.2v22.1c0,2.9.5,5.5,1.4,7.8.9,2.3,2.2,3.9,3.7,4.8.9.5,1.3,1.3,1.3,2.2h-31.9c0-.9.4-1.7,1.2-2.2,1.6-.9,2.8-2.5,3.8-4.8.9-2.3,1.4-5,1.4-7.9v-30c0-.5-.2-1-.6-1.5-.4-.4-.9-.6-1.5-.6h-4.2c0-.9.3-1.6.9-2.3.6-.7,1.4-1,2.4-1.1,3.1-.2,6.2-.6,9.5-1.1,3.3-.5,6.2-1.2,8.8-2.2,2.6-.9,3.9-1.9,3.9-2.8v4.4c-1.1,1-2.1,2.1-2.9,3.3-.5.7-.9,1.3-1.2,1.9-.3.5-.6,1.1-.8,1.7-.2.6-.4,1.1-.5,1.6-.1.5-.2,1-.4,1.5-.1.5-.2.9-.2,1.3s0,.7,0,1c0,.3,0,.5,0,.6v.2c.7-2,2.2-4.4,4.4-7.1.4-.5.8-.9,1.2-1.4,0,0,0-.1.1-.1.3-.3.5-.5.5-.6,3.7-4,7.7-6.6,12.1-7.9,4.2-1.2,7.8-.6,11,1.6,3,2.3,4.6,5.8,4.7,10.5"/>
    </g>
    <g id="g184">
      <path id="path186" class="st9" d="M230.7,299.1c1.6-.9,2.8-2.6,3.8-4.9.9-2.3,1.4-5,1.4-7.9v-29.1c0-.5-.2-1-.6-1.5-.4-.4-.9-.6-1.5-.6h-4.2c0-.9.3-1.6.9-2.4.6-.7,1.4-1.1,2.4-1.1,5-.4,10-1.2,14.9-2.3,4.9-1.1,7.4-2.4,7.4-3.8v40.7c0,3,.5,5.6,1.4,7.9.9,2.3,2.2,3.9,3.7,4.9.9.5,1.3,1.2,1.3,2.1h-31.9c0-.9.4-1.6,1.2-2.1"/>
    </g>
    <g id="g188">
      <path id="path190" class="st9" d="M251.6,241.9s1.6-5.9,8.1-9.7c0,0-3.3-2-7.1-.8,0,0,1.9-6.3,6.2-10.9,0,0-8.1.5-11.1,5.5,0,0-.5-6.8-2.9-9.7-2.3,2.9-2.9,9.7-2.9,9.7-3-5-11.1-5.5-11.1-5.5,4.3,4.7,6.2,10.9,6.2,10.9-3.8-1.2-7.1.8-7.1.8,6.4,3.8,8.1,9.7,8.1,9.7,0,0,8.2-1.6,13.8,0"/>
    </g>
    <g id="g192">
      <path id="path194" class="st9" d="M415.2,241.9s1.6-5.9,8.1-9.7c0,0-3.3-2-7.1-.8,0,0,1.9-6.3,6.2-10.9,0,0-8.1.5-11.1,5.5,0,0-.5-6.8-2.9-9.7-2.3,2.9-2.9,9.7-2.9,9.7-3-5-11.1-5.5-11.1-5.5,4.3,4.7,6.2,10.9,6.2,10.9-3.8-1.2-7.1.8-7.1.8,6.4,3.8,8.1,9.7,8.1,9.7,0,0,8.2-1.6,13.8,0"/>
    </g>
    <g id="g196">
      <path id="path198" class="st9" d="M300.7,282.9v-21.8c0-3.3-.9-5.9-2.8-7.8-.2-.2-.4-.4-.6-.5-.9-.7-1.7-1.2-2.6-1.4-.6-.2-1.3-.2-1.9-.2-2.1,0-4.2,1.1-6.2,3.2-2,2.2-3.6,5-4.9,8.5s-1.9,7-1.9,10.5c0,5.5,1.1,10.2,3.4,14,2.3,3.8,5,5.8,8.2,5.8s5.2-1.4,7.3-4.2c1.3-1.7,1.9-3.8,1.9-6.1M325,326.8c.8.5,1.2,1.2,1.2,2.2h-31.8c0-1,.4-1.8,1.2-2.2,1.5-.9,2.7-2.5,3.6-4.8.9-2.3,1.4-4.9,1.4-7.8v-15.2c3.2-3.4,6.2-8.8,8.9-16.4-1.8,4.6-4.8,8.7-8.9,12.1-.9.7-1.8,1.4-2.8,2.1-5.3,3.5-10.6,5.3-16.1,5.3s-12-2.7-15.6-8.1c-3.7-5.4-5.5-12.3-5.5-20.6s2.2-14.9,6.7-20.4,10.1-8.3,17-8.3h1.1c2.7.2,4.5.4,5.4.6h.1c1,.2,2.6.6,4.8,1.2,2.2.6,3.8,1,4.9,1.2,3.9.9,7.2,1.4,9.8,1.4s3.7-.2,5.2-.7h.1c.2,0,.5-.2.7-.2.4-.2.8-.3,1.2-.5.2,0,.3-.2.4-.2.5-.2.9-.5,1.2-.8,0,0,.2,0,.2-.1,0,0,.1-.2.1-.2,0,0,.2-.2.2-.2h0c0-.1.1-.2.1-.2v-.4,68.5c0,2.5.4,4.8,1.2,6.9.5,1.4,1,2.6,1.6,3.5.7,1,1.5,1.8,2.4,2.2"/>
    </g>
    <g id="g200">
      <path id="path202" class="st9" d="M389.9,291.6h4.2c0,1.8-.5,3.2-1.5,4.1-1,.9-2.8,1.4-5.4,1.4s-7.3.5-11.6,1.4c-4.3.9-6.7,2.1-7.1,3.5v-5.4c.5-.5,1-1.1,1.5-1.8.6-.6,1.3-1.4,1.9-2.2,1.3-1.9,2.4-3.7,3.3-5.6.9-1.8,1.4-3.3,1.5-4.3l.4-1.4c-.3,1-1.3,2.6-3.1,4.8-.6.7-1.3,1.5-2.1,2.4-.9,1-2,2.1-3.2,3.2h-.1c0,.1-.1.2-.1.2-.8.8-1.7,1.6-2.9,2.6-1.1.9-3.1,2.1-5.9,3.6-2.8,1.5-5.8,2.4-8.8,2.9-.6,0-1.1.1-1.7.2-.6,0-1.2.1-1.8.2h-1.2c-4,0-7.4-1.1-10.2-3.4-2.8-2.3-4.2-5-4.2-8.2v-.2h0v-28.4c0-2.9-.5-5.5-1.5-7.7-1-2.2-2.2-3.8-3.7-4.8-.8-.5-1.2-1.2-1.2-2.1h23.4c.5,0,1,.2,1.5.6.4.4.6.9.6,1.5v30.5c0,.4,0,.7.1.9,0,0,0,.3,0,.6,0,.3,0,.6,0,.8,0,.2.1.4.1.6,0,.2.2.5.2.8v.5c.3.5.4.9.5,1.3.1.4.3.8.5,1.3v.4c.3.3.4.6.6.8,0,0,.2.2.2.4.2.2.3.5.5.7l.2.4c.3.3.6.6.8.9h.1c.2.2.4.4.6.6.3.2.5.4.7.5.2.1.3.2.4.2.2.2.4.3.6.4,0,0,.2.1.2.1.2.2.5.3.7.4,0,0,.2,0,.4,0,.2,0,.4,0,.6,0,.2,0,.3.1.4.1h.6c0,0,0,.1.2.1,2.6,0,5.3-1.1,8.2-3.7v-27.2c0-2.8-.5-5.4-1.4-7.7-.9-2.3-2.2-3.9-3.8-4.8-.8-.5-1.2-1.2-1.2-2.1h23.4c.6,0,1.1.2,1.5.6.4.4.6.9.6,1.5v41.1c0,.5.2,1,.6,1.4.4.4.9.6,1.5.6"/>
    </g>
    <g id="g204">
      <path id="path206" class="st9" d="M394.3,299.1c1.6-.9,2.8-2.6,3.8-4.9.9-2.3,1.4-5,1.4-7.9v-29.1c0-.5-.2-1-.6-1.5-.4-.4-.9-.6-1.5-.6h-4.2c0-.9.3-1.6.9-2.4.6-.7,1.4-1.1,2.4-1.1,5-.4,10-1.2,14.9-2.3,4.9-1.1,7.4-2.4,7.4-3.8v40.7c0,3,.5,5.6,1.4,7.9.9,2.3,2.2,3.9,3.7,4.9.9.5,1.3,1.2,1.3,2.1h-31.9c0-.9.4-1.6,1.2-2.1"/>
    </g>
    <g id="g208">
      <path id="path210" class="st9" d="M449.7,289c0,1.6,1,2.9,3.1,4,2.1,1.1,4.6,1.6,7.5,1.6s5.5-.5,7.7-1.6c-.2,2.4-2.1,4.5-5.6,6.2-3.5,1.7-7.7,2.6-12.7,2.7h-.5c-2.4,0-4.8-.2-6.9-.7-3.5-.7-6.4-1.8-8.5-3.4-2.2-1.6-3.2-3.3-3.2-5.2v-39.3c0-.6-.2-1.1-.6-1.5-.4-.4-.9-.6-1.5-.6h-4.2c0-1.2.3-2.4.9-3.7s1.4-1.9,2.4-1.9c2.4,0,4.9-.8,7.7-2.4,2.8-1.6,5.2-3.4,7.2-5.4,2-2,3.8-4,5.2-5.9,1.4-1.9,2.1-3.3,2.1-4.2v4.5h0c0-.1,0,12.2,0,12.2,0,.5.2,1,.6,1.4.4.4.9.6,1.5.6h16.1c0,1.3-.5,2.5-1.4,3.4-.9.9-2.1,1.4-3.4,1.4h-27.4l14,2.2v35.6Z"/>
    </g>
    <g id="g212">
      <path id="path214" class="st9" d="M500.6,292.3v-17.7c0-.7-.3-1.3-.8-1.6-.5-.4-1.1-.5-1.7-.5-1.7.3-3.2.6-4.3.9-1.1.3-2.5.7-4,1.4-1.5.6-2.8,1.5-3.8,2.7-1,1.2-1.8,2.6-2.4,4.2-.7,2.4-.6,4.6.3,6.6.9,2,2.3,3.3,4.2,4.1,1.9.8,4,1.3,6.2,1.4,2.2.2,4.3-.4,6.2-1.5M524.4,294.3c2.4,0,4.4-.5,6-1.6-.2,2-1.2,3.8-3.2,5.5-2,1.7-4.5,2.9-7.4,3.4-1.3.2-2.6.4-3.9.4h-.5c-1.9,0-3.7-.2-5.4-.6-1.9-.5-3.6-1.3-5.1-2.4-1.5-1.1-2.7-2.3-3.5-3.6l-.4.4c-.2.2-.4.4-.5.6-1.5,1.5-3.4,2.7-5.7,3.6-2.3.9-4.7,1.5-7.2,1.8-2.5.2-5.1.2-7.7,0-2.6-.3-5-.9-7.1-1.9-2.1-1-4-2.2-5.6-3.7-1.6-1.5-2.6-3.2-3-5.3s-.2-4.4.7-6.9c.9-2.6,2.5-4.8,4.6-6.6,2.1-1.8,4.6-3.2,7.4-4.1,2.8-.9,5.4-1.6,7.9-2.1,2.5-.5,5.2-.9,8.1-1.2,2.9-.4,4.9-.7,6.2-1,1-.2,1.5-.9,1.5-2v-13c0-2-1.2-3.4-3.5-4.2-3-1.1-5.5-.4-7.7,2.1-1.3,1.6-2.2,3.7-2.7,6.5-.2,1.5-.6,2.8-1.1,3.9-.5,1.1-1,2.1-1.5,2.9-.5.8-1.3,1.4-2.2,1.9-1,.5-1.8.8-2.5,1.1-.7.3-1.7.5-3.1.6-1.4.1-2.5.2-3.3.2s-2.1,0-3.8,0c-1.8,0-3.1,0-3.9,0,.4-4.1.9-7.1,1.5-9.1.9-2.6,2.4-4.8,4.4-6.8,2-1.9,4.3-3.4,6.9-4.5,2.7-1.1,5.4-1.8,8.2-2.3,2.8-.5,5.8-.7,8.9-.7s8,.4,11.5,1.3c3.5.9,6.5,2.4,9,4.5,2.5,2.1,3.8,4.8,4,7.9h0v31c0,1.3.3,2.4.9,3.1.6.7,1.8,1.1,3.6,1.1"/>
    </g>
  </g>
  <g id="g16">
    <g id="g216">
      <path id="path218" class="st0" d="M253.3,92.4s12.6-1,23.5,11.8c0,0,2.8,4.7-7.7,5.8,0,0,14.9,12.6,7,38.2,0,0-10,30.2-27.2,44.4-27.4,22.5-51.9-24.2-59.3-43.9-9.6-25.7,7.6-38.7,7.6-38.7-10.6-1-7.7-5.8-7.7-5.8,10.9-12.8,23.5-11.8,23.5-11.8-3.4-11.4-1.2-13.6-1.2-13.6,17.9-.5,21.4,13,21.4,13,0,0,11.8-11.7,21-7.7,0,0,2.1,4.5-.8,8.3"/>
    </g>
    <g id="g220">
      <path id="path222" class="st5" d="M207.2,109.2s-18.7,8.1-14.3,30.2c.6,3,1.3,5.8,2.5,8.7,4.2,10.5,9.7,20.5,16.3,29.6,5.7,8,16.1,17.1,26.8,14.9,5.5-1.1,9.9-6.2,13.3-10.2,12.4-14.8,23.1-34,22-54,0,0,0-7-9.5-11.6-.4-.2-2.1.5-2.4.6-2.1.4-4.3.7-6.4.8-6.3.3-12.7-.7-18.2-4-2.3-1.4-4.2-3-6-5-1.5,2.9-5,5.6-7.6,7.6-3.6,2.7-8.9,5.6-13.5,5.5-7-.2-4.8-9.3-2.9-13.3"/>
    </g>
    <g id="g224">
      <path id="path226" class="st8" d="M194.3,105.2s8.8-10.2,21.9-7.2c-.9.6-1.8,1.2-2.6,1.9-1.3,1.1-2.2,2.5-3.6,3.5-2.7,2-6.7,2.4-10,2.3-.9,0-1.8,0-2.7-.2-.4,0-1.8-.2-3.1-.4"/>
    </g>
    <g id="g228">
      <path id="path230" class="st8" d="M218.9,96.4s-4.8-7-3.9-13.7c0,0,10.6,1.5,14.6,10.6,0,0,1.9,4.1,3.2,4,0,0,1.1.1,3.8-2.7,0,0,7.1-6.9,12.9-6.1v10l-8.4-2.2s-2.7-.6-4,.9c0,0-.9,2.2,2.4,2.9,0,0,10.9,3.1,13,5.4l2.5,7.1-.7,1.2-1.5.3s-13.6,0-18.4-9.9c0,0-1.6-3.8-2.5-3.7-.9,0-2.4,3.1-2.4,3.1,0,0-4.6,12.4-19.8,13.7,0,0,1.3-14.1,13.1-17.5,0,0,2.3-.6,4.7-.8,0,0,2.3-.3,2-2.3,0,0,0-2.6-4.2-2.1,0,0-3.4.5-6.5,1.6"/>
    </g>
    <g id="g232">
      <path id="path234" class="st7" d="M205.4,130.2c0,2.5-1,4.5-2.3,4.5s-2.3-2-2.3-4.5,1-4.5,2.3-4.5,2.3,2,2.3,4.5"/>
    </g>
    <g id="g236">
      <path id="path238" class="st7" d="M209.3,156c0,2.5-1,4.5-2.3,4.5s-2.3-2-2.3-4.5,1-4.5,2.3-4.5,2.3,2,2.3,4.5"/>
    </g>
    <g id="g240">
      <path id="path242" class="st7" d="M220,141.6c0,2.5-1,4.5-2.3,4.5s-2.3-2-2.3-4.5,1-4.5,2.3-4.5,2.3,2,2.3,4.5"/>
    </g>
    <g id="g244">
      <path id="path246" class="st7" d="M233.1,155.1c0,2.5-1,4.5-2.3,4.5s-2.3-2-2.3-4.5,1-4.5,2.3-4.5,2.3,2,2.3,4.5"/>
    </g>
    <g id="g248">
      <path id="path250" class="st7" d="M239.5,179.6c0,2.5-1,4.5-2.3,4.5s-2.3-2-2.3-4.5,1-4.5,2.3-4.5,2.3,2,2.3,4.5"/>
    </g>
    <g id="g252">
      <path id="path254" class="st7" d="M222.9,171.7c0,2.5-1,4.5-2.3,4.5s-2.3-2-2.3-4.5,1-4.5,2.3-4.5,2.3,2,2.3,4.5"/>
    </g>
    <g id="g256">
      <path id="path258" class="st7" d="M230.2,125.7c0,2.5-1,4.5-2.3,4.5s-2.3-2-2.3-4.5,1-4.5,2.3-4.5,2.3,2,2.3,4.5"/>
    </g>
    <g id="g260">
      <path id="path262" class="st7" d="M247.7,138.5c0,2.5-1,4.5-2.3,4.5s-2.3-2-2.3-4.5,1-4.5,2.3-4.5,2.3,2,2.3,4.5"/>
    </g>
    <g id="g264">
      <path id="path266" class="st7" d="M254,127c0,2.5-1,4.5-2.3,4.5s-2.3-2-2.3-4.5,1-4.5,2.3-4.5,2.3,2,2.3,4.5"/>
    </g>
    <g id="g268">
      <path id="path270" class="st10" d="M343.8,172.6c0,27.8-22.6,50.4-50.4,50.4s-50.4-22.6-50.4-50.4,22.6-50.4,50.4-50.4,50.4,22.6,50.4,50.4"/>
    </g>
    <g id="g272">
      <path id="path274" class="st4" d="M327.4,142.3c-8.3-9.4-20.5-15.3-34-15.3s-21.3,4-29.2,10.6c6.7,5.2,32,21.8,63.2,4.7"/>
    </g>
    <g id="g276">
      <path id="path278" class="st4" d="M327.4,142.3c-31.2,17.1-56.5.5-63.2-4.7-10,8.4-16.4,20.9-16.4,35,0,25.2,20.4,45.6,45.6,45.6s45.6-20.4,45.6-45.6c0-11.6-4.4-22.2-11.6-30.3"/>
    </g>
    <g id="g280">
      <path id="path282" class="st7" d="M306,170.5c0,7-5.7,12.6-12.6,12.6s-12.6-5.7-12.6-12.6,5.7-12.6,12.6-12.6,12.6,5.7,12.6,12.6"/>
    </g>
    <g id="g284">
      <path id="path286" class="st7" d="M266.2,200c-.8-.4.4-2.7.7-3.2,1.3-2.4,3.3-4.7,5-6.8.9-1.1,1.8-2.3,2.8-3.4.9-1.1,1.8-2.4,2.9-3.3.4-.3,2-1.8,2.3-.9.3.8-.5,1.9-.9,2.5-2.8,4.3-6,8.4-9,12.6-.2.2-.3.5-.5.7-.7,1-1.8,1.8-3.1,1.9,0,0-.2,0-.2,0"/>
    </g>
    <g id="g288">
      <path id="path290" class="st7" d="M292.4,211.2c-.9.2-1.3-2.3-1.4-2.9-.4-2.7-.2-5.7-.2-8.5,0-1.4,0-3,0-4.4,0-1.4,0-3,.3-4.4,0-.5.5-2.6,1.3-2.2.7.4.8,1.9.8,2.6.5,5.1.4,10.3.6,15.5,0,.3,0,.6,0,.8,0,1.2-.3,2.6-1.3,3.4,0,0-.1.1-.2.1"/>
    </g>
    <g id="g292">
      <path id="path294" class="st7" d="M317.2,203.2c-.6.7-2.5-1-2.9-1.4-2-1.9-3.7-4.4-5.4-6.6-.9-1.1-1.8-2.3-2.7-3.5-.8-1.2-1.9-2.4-2.5-3.6-.2-.4-1.3-2.4-.3-2.5.8-.1,1.7,1,2.2,1.5,3.5,3.7,6.7,7.9,10,11.8.2.2.4.4.5.6.8,1,1.3,2.2,1.1,3.5,0,0,0,.2,0,.2"/>
    </g>
    <g id="g296">
      <path id="path298" class="st7" d="M328.3,151.2c.6.7-1.4,2.3-1.9,2.6-2.2,1.7-4.9,2.9-7.4,4.3-1.3.7-2.6,1.4-3.9,2-1.3.6-2.6,1.5-4,1.9-.5.1-2.5.9-2.5,0,0-.8,1.3-1.6,1.9-2,4.3-2.9,8.9-5.3,13.3-8,.2-.1.5-.3.7-.4,1.1-.6,2.4-.9,3.6-.5,0,0,.2,0,.2.1"/>
    </g>
    <g id="g300">
      <path id="path302" class="st7" d="M258.9,150.1c.3-.8,2.7,0,3.2.1,2.6.9,5.2,2.5,7.6,3.8,1.3.7,2.6,1.4,3.9,2.1,1.2.7,2.7,1.4,3.8,2.3.4.3,2.1,1.6,1.3,2.1-.7.4-2-.2-2.7-.5-4.7-2-9.3-4.4-14-6.7l-.8-.4c-1.1-.5-2.1-1.5-2.4-2.7,0,0,0-.2,0-.2"/>
    </g>
    <g id="g304">
      <path id="path306" class="st7" d="M252.5,176.1s5.9-5.7,22.2-4.4c0,0-7,5.4-22.2,4.4"/>
    </g>
    <g id="g308">
      <path id="path310" class="st7" d="M310.9,176.7s7.4-3.3,22.4,3.4c0,0-8.4,2.7-22.4-3.4"/>
    </g>
    <g id="g312">
      <path id="path314" class="st7" d="M287.8,154.2s-1.1.4-1.9-1.4c0,0-2.7-7.4-2.3-10.4,0,0,1.7-3.3,3.2,1.8,0,0,1.9,8.9,1,10.1"/>
    </g>
    <g id="g316">
      <path id="path318" class="st7" d="M300.5,154.5s.8-.3,1.1-.9c0,0,3.1-6.6,2.9-11.8,0,0-2.4-2-3-.3,0,0,0,5.4-1,9.3,0,0-.8,4.2,0,3.7"/>
    </g>
    <g id="g320">
      <path id="path322" class="st7" d="M251,162.3s6.6-3.3,14.4,1.2c0,0,1.4,1-1.7,1.6,0,0-8.9.9-12.4-.7,0,0-2.2-1.5-.3-2.1"/>
    </g>
    <g id="g324">
      <path id="path326" class="st7" d="M322.8,166.5s6.6-3.3,14.4,1.2c0,0,1.4,1-1.7,1.6,0,0-8.9.9-12.4-.7,0,0-2.2-1.5-.3-2.1"/>
    </g>
    <g id="g328">
      <path id="path330" class="st7" d="M327.7,195.3s-7.4-.5-11.8-8.3c0,0-.7-1.6,2.2-.5,0,0,8.1,3.7,10.4,6.8,0,0,1.1,2.4-.8,2"/>
    </g>
    <g id="g332">
      <path id="path334" class="st7" d="M305.3,211.8s-5-5.5-2.9-14.1c0,0,.6-1.6,2,1.2,0,0,3.3,8.3,2.8,12.1,0,0-.8,2.5-1.9.9"/>
    </g>
    <g id="g336">
      <path id="path338" class="st7" d="M275.6,210.2s-2.2-5.9,3.3-11.4c0,0,1.2-.9,1.3,1.6,0,0-.4,7.3-2.5,9.9,0,0-1.8,1.5-2.1-.1"/>
    </g>
    <g id="g340">
      <path id="path342" class="st7" d="M255.2,189.4s3.8-6.4,12.7-7c0,0,1.7,0-.5,2.2,0,0-7,5.7-10.8,6.4,0,0-2.6,0-1.4-1.6"/>
    </g>
    <g id="g344">
      <path id="path346" class="st3" d="M346.1,94.3c-3.7-22.9-17.9-35.8-19.5-37.1-16.8-15.9-35.9-16.7-43.8-16.2-2.3-5-7-9.3-9.9-11.6,5-12.5-1.3-21.8-5.8-25.4-3.9-5-9-4.3-11.2-3.2-3.3,1.9-4.7,5.4-3.5,8.9,1.1,3.4,4.2,5.3,8.1,4.9.2,0,.5,0,.8-.2,3.2,4,2.5,7.8,1.6,10-3.7-1-7.3-1.2-9.9-1-1.2-11.5-11.5-16.9-13.8-17.9-3.5-2.5-8.8-2.9-12.4-.9-1.7.9-2.9,2.6-3.4,4.6-.5,2-.1,4,.9,5.7,1.2,1.8,3.1,3,5.3,3.3,2,.2,4-.3,5.6-1.6,5.3,2.9,6.5,6.8,6.7,9.2-11.2,4.9-23.6,16.3-22.2,32.4.3,3.7,1.1,7,2.3,9.9,4.5,10.7,16.1,12.8,23.2,13-.3,1.3-.4,2.2-.4,2.3-5.2,33.8,16.6,50.1,17.5,50.8,13.9,10.2,27.5,15.4,40.7,15.4h0c17.1,0,27.4-8.9,28.5-9.9,20.3-16.7,15.4-42.4,14.7-45.4"/>
    </g>
    <g id="g348">
      <path id="path350" class="st2" d="M248,83.9s.4-3.1,1.5-6.3c0,0-19,2.2-24.5-10.8-1.2-2.8-1.8-5.9-2-8.9-1.2-14,9.9-25.2,22.2-29.9,0,0,1.8-10.3-10.7-15.5-.1,0-1.1,1.2-1.2,1.3-1.9,1.7-4.8,1.4-6.2-.8-1.2-1.8-.6-4.5,1.3-5.5,2.7-1.5,6.8-1,9.1.9,0,0,13.2,5.5,12.2,18.7,0,0,7.7-1.5,14.7,1.4,0,0,7-9.2-2.1-17.8,0,0-2,.6-2.2.6-2.1.2-3.9-.7-4.5-2.7-.7-2.1.1-3.9,2-5,0,0,3.8-1.9,7.2,2.6,0,0,11.9,8.6,4.1,24.1,0,0,10,6.8,11.8,14.1,0,0,24-3.8,43.9,15.1,0,0,14.9,12.6,18.5,35.3,0,0,6,26.2-13.6,42.2,0,0-24.7,24-65-5.6,0,0-21.2-15.4-16.2-47.6"/>
    </g>
    <g id="g352">
      <path id="path354" class="st5" d="M339.2,97c-2.3-20.4-17.7-33.3-17.7-33.3-19.6-18-40.6-14.6-40.6-14.6l-11.4,8.1c52.4,12.6,57.8,75.3,57.8,75.3,16-13.5,12-35.5,12-35.5"/>
    </g>
    <g id="g356">
      <path id="path358" class="st1" d="M303.6,66.7c-2.2,2.2-6.2,1.7-9-1.1-2.8-2.8-3.2-6.8-1.1-9,2.2-2.2,6.2-1.7,9,1.1,2.8,2.8,3.2,6.8,1.1,9"/>
    </g>
    <g id="g360">
      <path id="path362" class="st1" d="M317.4,84.7c-2.4-4.1-1.7-9,1.6-10.9,3.2-1.9,7.8,0,10.2,4.1s1.7,9-1.6,10.9c-3.3,1.9-7.8,0-10.2-4.1"/>
    </g>
    <g id="g364">
      <path id="path366" class="st1" d="M331.4,116.1c-2.5.1-4.6-2.3-4.7-5.4-.2-3.1,1.7-5.8,4.2-5.9,2.5-.1,4.6,2.3,4.7,5.4.2,3.1-1.7,5.8-4.2,5.9"/>
    </g>
    <g id="g368">
      <path id="path370" class="st5" d="M298.9,79.1c-16.7-19.8-31.3-20.8-31.3-20.8-10.1,8.6-16.5,22.4-15.8,35.6,1.3,25.1,23.1,45.4,47.6,47.5,6.1.5,13.8-.3,18.9-4.2l.2-4.8c1.5-29.3-19.5-53.4-19.5-53.4"/>
    </g>
    <g id="g372">
      <path id="path374" class="st1" d="M271.1,98.7c-3.5,1.3-7.7-1.2-9.4-5.7-1.7-4.5-.2-9.1,3.3-10.5,3.5-1.3,7.7,1.2,9.4,5.7,1.7,4.5.2,9.1-3.3,10.5"/>
    </g>
    <g id="g376">
      <path id="path378" class="st1" d="M293.6,130.9c-3.4,2.6-8.8,1.3-12-2.9-3.3-4.2-3.1-9.7.3-12.4,3.4-2.6,8.8-1.3,12,2.9,3.3,4.2,3.1,9.7-.3,12.4"/>
    </g>
    <g id="g380">
      <path id="path382" class="st1" d="M295.2,102.1c-3.5,1.3-7.7-1.2-9.4-5.7-1.7-4.5-.2-9.1,3.3-10.5,3.5-1.3,7.7,1.2,9.4,5.7,1.7,4.5.2,9.1-3.3,10.5"/>
    </g>
    <g id="g384">
      <path id="path386" class="st6" d="M235.8,49.5c-.4,2.7-2.1,4.6-3.9,4.4-1.8-.2-2.9-2.6-2.5-5.3.4-2.7,2.1-4.6,3.9-4.4,1.8.2,2.9,2.6,2.5,5.3"/>
    </g>
    <g id="g388">
      <path id="path390" class="st6" d="M252.1,52.3c-.4,2.7-2.1,4.6-3.9,4.4-1.8-.2-2.9-2.6-2.5-5.3.4-2.7,2.1-4.6,3.9-4.4,1.8.2,2.9,2.6,2.5,5.3"/>
    </g>
    <g id="g392">
      <path id="path394" class="st6" d="M243.8,59.9c-.1.6-.9,1.3-1.2,1.6-.8.6-1.7,1-2.7,1.2-2.4.5-4.7-.2-5.9-2.4-.4-.7-1.1-2-.6-2.8,0,0,0-.1.2-.2.1,0,.2,0,.3.1,1.4,1.5,3.7,2.2,5.7,2.2,1,0,2-.2,3-.5.4-.1,1,0,1.2.3,0,.1,0,.3,0,.4"/>
    </g>
  </g>
</svg>