<?xml version="1.0" encoding="UTF-8"?>
<svg id="Capa_2" data-name="Capa 2" xmlns="http://www.w3.org/2000/svg" viewBox="0 0 151.32 210.27">
  <defs>
    <style>
      .cls-1 {
        fill: #1e130f;
      }

      .cls-2 {
        fill: #df0814;
      }

      .cls-3 {
        fill: #04672f;
      }

      .cls-4 {
        fill: #4ea933;
      }

      .cls-5 {
        fill: #97be1e;
      }

      .cls-6 {
        fill: #068638;
      }

      .cls-7 {
        fill: #f6b413;
      }

      .cls-8 {
        fill: #009039;
      }

      .cls-9 {
        fill: #e66114;
      }

      .cls-10 {
        fill: #f19806;
      }
    </style>
  </defs>
  <g id="Capa_1-2" data-name="Capa 1">
    <g id="g16">
      <g id="g216">
        <path id="path218" class="cls-4" d="M62.85,87.12s11.84-.98,22.16,11.13c0,0,2.67,4.45-7.3,5.43,0,0,14.06,11.84,6.59,36.04,0,0-9.42,28.51-25.65,41.83-25.87,21.24-48.94-22.85-55.89-41.39-9.08-24.21,7.12-36.49,7.12-36.49-9.97-.98-7.3-5.43-7.3-5.43,10.32-12.1,22.16-11.13,22.16-11.13-3.2-10.77-1.1-12.85-1.1-12.85,16.85-.47,20.17,12.22,20.17,12.22,0,0,11.15-11.03,19.82-7.24,0,0,2,4.21-.78,7.86"/>
      </g>
      <g id="g220">
        <path id="path222" class="cls-2" d="M19.38,103s-17.68,7.59-13.53,28.48c.57,2.86,1.25,5.51,2.36,8.25,3.97,9.86,9.16,19.29,15.34,27.93,5.42,7.58,15.14,16.13,25.29,14.09,5.17-1.04,9.33-5.8,12.52-9.62,11.68-13.99,21.78-32.04,20.79-50.91,0,0,.05-6.58-8.99-10.98-.33-.16-1.94.5-2.3.57-2,.42-4.03.68-6.06.79-5.91.32-11.99-.69-17.13-3.74-2.16-1.28-4.01-2.81-5.66-4.68-1.42,2.74-4.72,5.29-7.15,7.16-3.36,2.59-8.38,5.29-12.72,5.17-6.62-.18-4.54-8.78-2.76-12.5"/>
      </g>
      <g id="g224">
        <path id="path226" class="cls-8" d="M7.27,99.2s8.32-9.61,20.65-6.76c-.85.53-1.67,1.13-2.44,1.77-1.23,1.01-2.08,2.38-3.35,3.34-2.52,1.9-6.36,2.23-9.42,2.19-.85-.01-1.7-.06-2.55-.14-.35-.03-1.67-.16-2.89-.4"/>
      </g>
      <g id="g228">
        <path id="path230" class="cls-8" d="M30.44,90.95s-4.48-6.65-3.65-12.87c0,0,9.97,1.42,13.76,10.03,0,0,1.77,3.87,3.01,3.8,0,0,1.07.11,3.56-2.56,0,0,6.68-6.54,12.15-5.74v9.39l-7.97-2.09s-2.58-.53-3.74.89c0,0-.89,2.05,2.27,2.72,0,0,10.23,2.92,12.28,5.12l2.4,6.67-.67,1.16-1.43.31s-12.86.09-17.31-9.35c0,0-1.49-3.54-2.31-3.47-.82.07-2.25,2.91-2.25,2.91,0,0-4.34,11.65-18.7,12.96,0,0,1.26-13.28,12.35-16.53,0,0,2.19-.59,4.41-.77,0,0,2.14-.31,1.91-2.14,0,0,0-2.45-3.96-1.96,0,0-3.25.49-6.14,1.51"/>
      </g>
      <g id="g232">
        <path id="path234" class="cls-10" d="M17.71,122.81c0,2.36-.98,4.27-2.2,4.27s-2.2-1.91-2.2-4.27.98-4.27,2.2-4.27,2.2,1.91,2.2,4.27"/>
      </g>
      <g id="g236">
        <path id="path238" class="cls-10" d="M21.39,147.11c0,2.36-.98,4.27-2.2,4.27s-2.2-1.91-2.2-4.27.98-4.27,2.2-4.27,2.2,1.91,2.2,4.27"/>
      </g>
      <g id="g240">
        <path id="path242" class="cls-10" d="M31.48,133.54c0,2.36-.98,4.27-2.2,4.27s-2.2-1.91-2.2-4.27.98-4.27,2.2-4.27,2.2,1.91,2.2,4.27"/>
      </g>
      <g id="g244">
        <path id="path246" class="cls-10" d="M43.8,146.31c0,2.36-.98,4.27-2.2,4.27s-2.2-1.91-2.2-4.27.98-4.27,2.2-4.27,2.2,1.91,2.2,4.27"/>
      </g>
      <g id="g248">
        <path id="path250" class="cls-10" d="M49.85,169.39c0,2.36-.98,4.27-2.2,4.27s-2.2-1.91-2.2-4.27.98-4.27,2.2-4.27,2.2,1.91,2.2,4.27"/>
      </g>
      <g id="g252">
        <path id="path254" class="cls-10" d="M34.22,161.91c0,2.36-.98,4.27-2.2,4.27s-2.2-1.91-2.2-4.27.98-4.27,2.2-4.27,2.2,1.91,2.2,4.27"/>
      </g>
      <g id="g256">
        <path id="path258" class="cls-10" d="M41.1,118.54c0,2.36-.98,4.27-2.2,4.27s-2.2-1.91-2.2-4.27.98-4.27,2.2-4.27,2.2,1.91,2.2,4.27"/>
      </g>
      <g id="g260">
        <path id="path262" class="cls-10" d="M57.57,130.58c0,2.36-.98,4.27-2.2,4.27s-2.2-1.91-2.2-4.27.98-4.27,2.2-4.27,2.2,1.91,2.2,4.27"/>
      </g>
      <g id="g264">
        <path id="path266" class="cls-10" d="M63.56,119.79c0,2.36-.98,4.27-2.2,4.27s-2.2-1.91-2.2-4.27.98-4.27,2.2-4.27,2.2,1.91,2.2,4.27"/>
      </g>
      <g id="g268">
        <path id="path270" class="cls-9" d="M148.2,162.76c0,26.24-21.27,47.51-47.51,47.51s-47.51-21.27-47.51-47.51,21.27-47.51,47.51-47.51,47.51,21.27,47.51,47.51"/>
      </g>
      <g id="g272">
        <path id="path274" class="cls-7" d="M132.76,134.23c-7.87-8.84-19.3-14.44-32.07-14.44-10.48,0-20.08,3.76-27.54,10,6.36,4.94,30.18,20.57,59.61,4.45"/>
      </g>
      <g id="g276">
        <path id="path278" class="cls-7" d="M132.76,134.23c-29.43,16.13-53.25.5-59.61-4.45-9.43,7.88-15.44,19.72-15.44,32.97,0,23.73,19.24,42.97,42.97,42.97s42.97-19.24,42.97-42.97c0-10.96-4.14-20.94-10.9-28.53"/>
      </g>
      <g id="g280">
        <path id="path282" class="cls-10" d="M112.6,160.81c0,6.58-5.33,11.91-11.91,11.91s-11.91-5.34-11.91-11.91,5.33-11.91,11.91-11.91,11.91,5.33,11.91,11.91"/>
      </g>
      <g id="g284">
        <path id="path286" class="cls-10" d="M75.04,188.57c-.74-.39.36-2.51.63-3,1.25-2.3,3.15-4.39,4.76-6.45.84-1.07,1.73-2.18,2.62-3.25.87-1.04,1.72-2.26,2.76-3.14.34-.29,1.86-1.69,2.19-.88.3.73-.51,1.82-.88,2.4-2.6,4.09-5.64,7.94-8.47,11.88-.15.21-.31.42-.46.64-.69.96-1.72,1.73-2.92,1.83-.08,0-.16.01-.23-.03"/>
      </g>
      <g id="g288">
        <path id="path290" class="cls-10" d="M99.75,199.2c-.82.14-1.25-2.21-1.34-2.75-.42-2.58-.2-5.4-.19-8.02,0-1.36.03-2.79.08-4.17.05-1.35-.02-2.84.25-4.17.09-.44.43-2.48,1.2-2.04.68.39.71,1.76.77,2.44.45,4.82.4,9.73.57,14.57.01.26.02.52.03.79.04,1.17-.31,2.42-1.19,3.23-.06.05-.12.11-.2.12"/>
      </g>
      <g id="g292">
        <path id="path294" class="cls-10" d="M123.1,191.59c-.56.62-2.35-.97-2.75-1.34-1.92-1.78-3.49-4.13-5.09-6.2-.83-1.07-1.69-2.21-2.51-3.33-.8-1.1-1.77-2.22-2.38-3.44-.2-.4-1.19-2.22-.31-2.34.78-.11,1.64.94,2.11,1.44,3.33,3.52,6.32,7.41,9.44,11.11.17.2.34.4.51.6.76.9,1.25,2.09,1.06,3.28-.01.08-.03.16-.08.22"/>
      </g>
      <g id="g296">
        <path id="path298" class="cls-10" d="M133.58,142.57c.52.65-1.34,2.16-1.77,2.49-2.07,1.6-4.65,2.77-6.94,4.01-1.19.65-2.46,1.31-3.7,1.93-1.21.61-2.48,1.39-3.78,1.78-.43.13-2.38.81-2.36-.08.02-.79,1.2-1.47,1.77-1.85,4.01-2.71,8.35-5.02,12.51-7.5.23-.13.45-.27.68-.4,1.01-.6,2.27-.89,3.41-.51.07.03.15.06.2.12"/>
      </g>
      <g id="g300">
        <path id="path302" class="cls-10" d="M68.1,141.54c.25-.8,2.54-.08,3.06.1,2.48.83,4.87,2.34,7.18,3.57,1.2.64,2.45,1.33,3.65,2.01,1.18.67,2.53,1.3,3.57,2.17.35.28,1.99,1.54,1.24,2.01-.67.42-1.89-.19-2.52-.45-4.47-1.85-8.8-4.18-13.16-6.27l-.71-.34c-1.06-.51-2-1.4-2.31-2.56-.02-.08-.04-.16-.01-.23"/>
      </g>
      <g id="g304">
        <path id="path306" class="cls-10" d="M62.15,166.05s5.52-5.34,20.94-4.15c0,0-6.59,5.1-20.94,4.15"/>
      </g>
      <g id="g308">
        <path id="path310" class="cls-10" d="M117.19,166.65s7.01-3.14,21.1,3.24c0,0-7.93,2.55-21.1-3.24"/>
      </g>
      <g id="g312">
        <path id="path314" class="cls-10" d="M95.44,145.4s-1.07.36-1.78-1.36c0,0-2.55-7-2.2-9.85,0,0,1.6-3.14,3.03,1.66,0,0,1.78,8.37.95,9.55"/>
      </g>
      <g id="g316">
        <path id="path318" class="cls-10" d="M107.33,145.74s.73-.29,1.07-.82c0,0,2.89-6.22,2.76-11.15,0,0-2.26-1.9-2.85-.3,0,0,.06,5.09-.98,8.8,0,0-.8,3.96,0,3.46"/>
      </g>
      <g id="g320">
        <path id="path322" class="cls-10" d="M60.66,153.08s6.26-3.07,13.54,1.16c0,0,1.3.95-1.57,1.48,0,0-8.4.83-11.66-.65,0,0-2.05-1.39-.31-1.99"/>
      </g>
      <g id="g324">
        <path id="path326" class="cls-10" d="M128.45,157.03s6.26-3.07,13.54,1.16c0,0,1.31.95-1.57,1.48,0,0-8.4.83-11.66-.65,0,0-2.05-1.39-.31-1.99"/>
      </g>
      <g id="g328">
        <path id="path330" class="cls-10" d="M132.98,184.17s-6.96-.48-11.14-7.79c0,0-.65-1.48,2.1-.5,0,0,7.68,3.49,9.76,6.41,0,0,1.08,2.23-.73,1.88"/>
      </g>
      <g id="g332">
        <path id="path334" class="cls-10" d="M111.9,199.7s-4.71-5.14-2.7-13.32c0,0,.54-1.52,1.87,1.09,0,0,3.16,7.82,2.65,11.37,0,0-.75,2.36-1.82.86"/>
      </g>
      <g id="g336">
        <path id="path338" class="cls-10" d="M83.85,198.24s-2.12-5.59,3.1-10.72c0,0,1.12-.89,1.23,1.53,0,0-.4,6.92-2.33,9.29,0,0-1.66,1.41-2-.1"/>
      </g>
      <g id="g340">
        <path id="path342" class="cls-10" d="M64.62,178.62s3.54-6.06,12-6.63c0,0,1.62.06-.49,2.11,0,0-6.58,5.4-10.14,6,0,0-2.49,0-1.37-1.48"/>
      </g>
      <g id="g344">
        <path id="path346" class="cls-1" d="M150.38,88.94c-3.45-21.57-16.91-33.72-18.41-35.02-15.8-15.01-33.86-15.75-41.34-15.28-2.15-4.69-6.59-8.75-9.33-10.93,4.69-11.82-1.2-20.58-5.51-23.96-3.71-4.73-8.5-4.03-10.56-2.98-3.13,1.77-4.43,5.08-3.32,8.42,1.08,3.25,3.99,5.03,7.59,4.65.23-.02.42-.06.78-.16,3.06,3.75,2.39,7.36,1.52,9.46-3.48-.98-6.86-1.1-9.29-.99-1.14-10.82-10.85-15.93-12.98-16.92-3.3-2.4-8.33-2.76-11.73-.85-1.59.89-2.76,2.46-3.2,4.3-.45,1.86-.13,3.81.89,5.37,1.14,1.73,2.96,2.87,5.01,3.12,1.9.22,3.78-.32,5.28-1.54,4.97,2.72,6.13,6.45,6.34,8.71-10.55,4.67-22.22,15.38-20.95,30.56.29,3.46,1.02,6.6,2.17,9.34,4.26,10.13,15.19,12.06,21.84,12.23-.25,1.18-.36,2.03-.39,2.21-4.93,31.88,15.63,47.27,16.51,47.91,13.07,9.62,25.97,14.49,38.34,14.49h0c16.11,0,25.84-8.39,26.88-9.32,19.16-15.71,14.49-39.99,13.87-42.8"/>
      </g>
      <g id="g348">
        <path id="path350" class="cls-3" d="M57.89,79.12s.38-2.96,1.42-5.94c0,0-17.93,2.1-23.09-10.18-1.11-2.63-1.69-5.55-1.93-8.38-1.1-13.16,9.35-23.77,20.92-28.17,0,0,1.66-9.73-10.09-14.63-.11-.05-1.04,1.09-1.16,1.2-1.75,1.62-4.54,1.29-5.86-.72-1.12-1.7-.55-4.2,1.23-5.2,2.5-1.41,6.37-.94,8.57.83,0,0,12.46,5.22,11.51,17.68,0,0,7.24-1.42,13.82,1.34,0,0,6.59-8.63-1.96-16.82-.03-.03-1.93.55-2.11.57-1.98.21-3.66-.62-4.29-2.52-.65-1.94.11-3.69,1.89-4.7,0,0,3.62-1.84,6.76,2.49,0,0,11.21,8.13,3.86,22.72,0,0,9.43,6.41,11.09,13.29,0,0,22.66-3.56,41.35,14.24,0,0,14.06,11.93,17.44,33.29,0,0,5.69,24.69-12.83,39.82,0,0-23.3,22.66-61.31-5.31,0,0-19.97-14.55-15.26-44.92"/>
      </g>
      <g id="g352">
        <path id="path354" class="cls-2" d="M143.85,91.49c-2.17-19.23-16.73-31.45-16.73-31.45-18.51-16.97-38.33-13.76-38.33-13.76l-10.74,7.65c49.42,11.92,54.52,71.02,54.52,71.02,15.07-12.7,11.27-33.46,11.27-33.46"/>
      </g>
      <g id="g356">
        <path id="path358" class="cls-5" d="M110.31,62.95c-2.06,2.06-5.85,1.61-8.46-1-2.61-2.61-3.06-6.4-1-8.46,2.06-2.06,5.85-1.61,8.46,1,2.61,2.61,3.06,6.4,1,8.46"/>
      </g>
      <g id="g360">
        <path id="path362" class="cls-5" d="M123.27,79.88c-2.24-3.89-1.58-8.47,1.49-10.24,3.06-1.77,7.37-.05,9.61,3.83,2.24,3.89,1.58,8.47-1.49,10.24-3.07,1.77-7.37.05-9.61-3.83"/>
      </g>
      <g id="g364">
        <path id="path366" class="cls-5" d="M136.54,109.49c-2.32.12-4.32-2.17-4.48-5.11-.15-2.94,1.6-5.42,3.92-5.54,2.32-.12,4.32,2.16,4.48,5.1.15,2.94-1.6,5.42-3.92,5.55"/>
      </g>
      <g id="g368">
        <path id="path370" class="cls-2" d="M105.88,74.64c-15.78-18.63-29.55-19.58-29.55-19.58-9.49,8.14-15.58,21.09-14.92,33.61,1.24,23.71,21.74,42.85,44.92,44.75,5.73.47,13.03-.31,17.78-3.93l.16-4.54c1.42-27.65-18.39-50.31-18.39-50.31"/>
      </g>
      <g id="g372">
        <path id="path374" class="cls-5" d="M79.66,93.07c-3.31,1.25-7.28-1.13-8.87-5.33-1.59-4.2-.2-8.62,3.11-9.87,3.31-1.25,7.28,1.13,8.87,5.33,1.59,4.2.2,8.62-3.11,9.87"/>
      </g>
      <g id="g376">
        <path id="path378" class="cls-5" d="M100.85,123.48c-3.2,2.48-8.29,1.27-11.36-2.7-3.07-3.97-2.96-9.19.24-11.67,3.2-2.48,8.29-1.27,11.36,2.7,3.07,3.97,2.96,9.19-.24,11.67"/>
      </g>
      <g id="g380">
        <path id="path382" class="cls-5" d="M102.38,96.24c-3.31,1.25-7.28-1.13-8.87-5.33-1.59-4.2-.2-8.62,3.11-9.87,3.31-1.25,7.28,1.13,8.87,5.33,1.59,4.2.2,8.62-3.11,9.87"/>
      </g>
      <g id="g384">
        <path id="path386" class="cls-6" d="M46.4,46.64c-.36,2.51-1.98,4.36-3.64,4.13-1.65-.23-2.71-2.46-2.35-4.98.36-2.51,1.98-4.36,3.64-4.13,1.65.23,2.71,2.46,2.35,4.98"/>
      </g>
      <g id="g388">
        <path id="path390" class="cls-6" d="M61.7,49.37c-.35,2.51-1.98,4.36-3.64,4.13-1.65-.23-2.71-2.46-2.35-4.98.36-2.51,1.98-4.36,3.64-4.13,1.65.23,2.71,2.46,2.35,4.98"/>
      </g>
      <g id="g392">
        <path id="path394" class="cls-6" d="M53.92,56.52c-.13.57-.81,1.19-1.17,1.48-.72.58-1.61.92-2.5,1.11-2.23.48-4.39-.21-5.56-2.26-.39-.69-1.05-1.86-.56-2.65.04-.06.09-.12.15-.14.11-.04.22.04.3.12,1.31,1.43,3.46,2.09,5.35,2.08.96,0,1.92-.17,2.83-.46.33-.11.97-.08,1.12.3.05.13.05.27.02.42"/>
      </g>
    </g>
  </g>
</svg>